/* XPM */
static char *result[] = {
/* columns rows colors chars-per-pixel */
"64 64 140 2 ",
"   c #5E443A",
".  c #6E4237",
"X  c #64473C",
"o  c #6D453A",
"O  c #64483D",
"+  c #6A4B3D",
"@  c #704237",
"#  c #774138",
"$  c #704F3E",
"%  c #72503F",
"&  c #79543F",
"*  c #644A41",
"=  c #6C4F42",
"-  c #755341",
";  c #7A5642",
":  c #7D5A45",
">  c #B6241F",
",  c #8E362E",
"<  c #94342C",
"1  c #9C3229",
"2  c #853A31",
"3  c #A12E27",
"4  c #AE2822",
"5  c #B62520",
"6  c #B92922",
"7  c #BC3326",
"8  c #BD3528",
"9  c #AB3D31",
"0  c #C13227",
"q  c #C53329",
"w  c #CC352B",
"e  c #C03B2A",
"r  c #CE3A2D",
"t  c #D0372C",
"y  c #D33A2E",
"u  c #D43E30",
"i  c #9A4236",
"p  c #9A4B3A",
"a  c #9C513B",
"s  c #CF4533",
"d  c #CE4936",
"f  c #D54332",
"g  c #D54933",
"h  c #D84D36",
"j  c #D84C38",
"k  c #CB5437",
"l  c #D65337",
"z  c #D25338",
"x  c #DA5239",
"c  c #D15B3F",
"v  c #D85B3A",
"b  c #D3653F",
"n  c #DB613E",
"m  c #825C44",
"M  c #885F44",
"N  c #825F48",
"B  c #8C6145",
"V  c #866249",
"C  c #8B654B",
"Z  c #8E684D",
"A  c #946747",
"S  c #956748",
"D  c #946C4E",
"F  c #9C6C4A",
"G  c #956E50",
"H  c #9B7252",
"J  c #A5734C",
"K  c #AA744D",
"L  c #AD784F",
"P  c #B27A4F",
"I  c #A57A56",
"U  c #AD7950",
"Y  c #A87D58",
"T  c #B67E51",
"R  c #B97F51",
"E  c #D45E41",
"W  c #DF6044",
"Q  c #D76D44",
"!  c #DC7745",
"~  c #DD7846",
"^  c #DD744B",
"/  c #DD7D4B",
"(  c #DE7850",
")  c #E06647",
"_  c #E5744E",
"`  c #E67F4F",
"'  c #AE8259",
"]  c #B38055",
"[  c #BC8252",
"{  c #B2855C",
"}  c #B7895E",
"|  c #BB8D5F",
" . c #BD8E60",
".. c #C28654",
"X. c #C68855",
"o. c #CC8D56",
"O. c #D08F57",
"+. c #D08F5F",
"@. c #D69259",
"#. c #D9955A",
"$. c #DE995B",
"%. c #E08A4E",
"&. c #E48254",
"*. c #E48D53",
"=. c #E88C54",
"-. c #E68D5C",
";. c #EB885A",
":. c #E49554",
">. c #EB945D",
",. c #E39C5C",
"<. c #ED9D5C",
"1. c #EEA35F",
"2. c #F0A45F",
"3. c #C29262",
"4. c #C89765",
"5. c #CD9B67",
"6. c #D19E68",
"7. c #ED9E66",
"8. c #F09B64",
"9. c #D4A16A",
"0. c #DBA66C",
"q. c #DDA86D",
"w. c #EEA560",
"e. c #E1AB6E",
"r. c #F0A661",
"t. c #F2AA65",
"y. c #F3A068",
"u. c #F4AE69",
"i. c #F6B36D",
"p. c #E5AE70",
"a. c #F8AF70",
"s. c #E7B071",
"d. c #EDB473",
"f. c #F1B774",
"g. c #F8B670",
"h. c #F4BA76",
"j. c #FBBC75",
"k. c #FBBF78",
"l. c #FEC27A",
"z. c None",
/* pixels */
"z.z.z.z.z.z.z.z.z.z.z.z.z.z.z.z.z.z.z.z.z.z.z.z.z.z.z.z.z.z.z.z.z.z.z.z.z.z.z.z.z.z.z.z.z.z.z.z.z.z.z.z.z.z.z.z.z.z.z.z.z.z.z.z.",
"z.z.z.z.z.z.z.z.z.z.z.z.z.z.z.z.z.z.z.z.z.z.z.z.z.z.z.z.z.z.z.z.z.z.z.z.z.z.z.z.z.z.z.z.z.z.z.z.z.z.z.z.z.z.z.z.z.z.z.z.z.z.z.z.",
"z.z.z.z.z.z.z.z.z.z.z.z.z.z.z.z.z.z.z.z.z.z.z.z.z.z.z.z.z.z.z.z.z.z.z.z.z.z.z.z.z.z.z.z.z.z.z.z.z.z.z.z.z.z.z.z.z.z.z.z.z.z.z.z.",
"z.z.z.z.z.z.z.z.z.z.z.z.z.z.z.z.z.z.z.z.z.z.z.z.z.z.z.z.z.z.z.z.z.z.z.z.z.z.z.z.z.z.z.z.z.z.z.z.z.z.z.z.z.z.z.z.z.z.z.z.z.z.z.z.",
"z.z.z.z.z.z.z.z.z.z.z.z.z.z.z.z.z.z.z.z.z.z.z.z.z.z.z.z.z.z.z.z.z.z.z.z.z.z.z.z.z.z.z.z.z.z.z.z.z.z.z.z.z.z.z.z.z.z.z.z.z.z.z.z.",
"z.z.z.z.z.z.z.z.z.z.z.z.z.z.z.z.z.z.z.z.z.z.z.z.z.z.z.z.z.z.z.z.z.z.X       O O z.z.z.z.z.z.z.z.z.z.z.z.z.z.z.z.z.z.z.z.z.z.z.z.",
"z.z.z.z.z.z.z.z.z.z.z.z.z.z.z.z.z.z.z.z.z.z.z.z.z.z.z.z.z.z.z.z.O X + : V V - + X X z.z.z.z.z.z.z.z.z.z.z.z.z.z.z.z.z.z.z.z.z.z.",
"z.z.z.z.z.z.z.z.z.z.z.z.z.z.z.z.z.z.z.z.z.z.z.z.z.z.z.z.z.z.z.O + G 9.d.k.h.p.9.Y - O = z.z.z.z.z.z.z.z.z.z.z.z.z.z.z.z.z.z.z.z.",
"z.z.z.z.z.z.z.z.z.z.z.z.z.z.z.z.z.z.z.z.z.z.z.z.z.z.z.z.z.z.X + { h.l.l.l.k.l.l.l.q.C + z.z.z.z.z.z.z.z.z.z.z.z.z.z.z.z.z.z.z.z.",
"z.z.z.z.z.z.z.z.z.z.z.z.z.z.z.z.z.z.z.z.z.z.z.z.z.z.z.z.z.  O Y k.l.l.l.l.l.l.l.l.l.0.- X z.z.z.z.z.z.z.z.z.z.z.z.z.z.z.z.z.z.z.",
"z.z.z.z.z.z.z.z.z.z.z.z.z.z.z.z.z.z.z.z.z.z.z.z.z.z.z.z.z.X : d.l.l.l.l.l.l.l.l.l.l.k.Z X z.z.z.z.z.z.z.z.z.z.z.z.z.z.z.z.z.z.z.",
"z.z.z.z.z.z.z.z.z.z.z.z.z.z.z.z.z.z.z.z.z.z.z.z.z.z.z.z.z.O  .l.l.l.l.l.l.l.l.l.l.l.u.B X X z.z.z.z.z.z.z.z.z.z.z.z.z.z.z.z.z.z.",
"z.z.z.z.z.z.z.z.z.z.z.z.z.z.z.z.z.z.z.z.z.z.z.z.z.z.z.z.X = 0.l.l.l.l.l.l.l.l.l.l.u.w.L ; + X   z.z.z.z.z.z.z.z.z.z.z.z.z.z.z.z.",
"z.z.z.z.z.z.z.z.z.z.z.z.z.z.z.z.z.z.z.z.z.z.z.z.z.z.z.z.* ; d.l.l.l.l.l.l.l.l.l.i.1.<.1.,...m O X z.z.z.z.z.z.z.z.z.z.z.z.z.z.z.",
"z.z.z.z.z.z.z.z.z.z.z.z.z.z.z.z.z.z.z.z.z.z.z.z.z.z.z.z.  : f.l.l.l.l.l.l.l.l.l.w.w.1.1.<.w.@.; X z.z.z.z.z.z.z.z.z.z.z.z.z.z.z.",
"z.z.z.z.z.z.z.z.z.z.z.z.z.z.z.z.z.z.z.z.z.z.z.z.z.z.z.z.  : f.l.l.l.l.l.l.l.l.g.t.g.f.t.w.1.w.T + * z.z.z.z.z.z.z.z.z.z.z.z.z.z.",
"z.z.z.z.z.z.z.z.z.z.z.z.z.z.z.z.z.z.z.z.z.z.z.z.z.z.z.z.  m f.l.l.l.l.l.l.l.l.j.l.l.l.j.t.w.2.O.-   z.z.z.z.z.z.z.z.z.z.z.z.z.z.",
"z.z.z.z.z.z.z.z.z.z.z.z.z.z.z.z.z.z.z.z.z.z.z.z.z.z.z.z.  : f.l.l.l.l.l.l.l.l.l.l.l.l.l.u.<.1.,.& * z.z.z.z.z.z.z.z.z.z.z.z.z.z.",
"z.z.z.z.z.z.z.z.z.z.z.z.z.z.z.z.z.z.z.z.z.z.z.z.z.z.z.z.* - d.k.h.l.l.l.l.l.l.l.l.l.l.j.t.<.2.,.; * z.z.z.z.z.z.z.z.z.z.z.z.z.z.",
"z.z.z.z.z.z.z.z.z.z.z.z.z.z.z.z.z.z.z.z.z.z.z.z.z.z.z.* o p -.*.%.:.1.i.j.l.l.l.l.l.g.t.7.w.2.X.+   z.z.z.z.z.z.z.z.z.z.z.z.z.z.",
"z.z.z.z.z.z.z.z.z.z.z.z.z.z.z.z.z.z.z.z.z.z.z.z.z.z.z.X i u u u f l n ! :.1.g.l.g.1.1.1.r.1.O.m X z.z.z.z.z.z.z.z.z.z.z.z.z.z.z.",
"z.z.z.z.z.z.z.z.z.z.z.z.z.z.z.z.z.z.z.z.z.z.z.z.z.X X X 9 w w w t y t f g v ! ,.*.%.,.@.X.J ; O * z.z.z.z.z.z.z.z.z.z.z.z.z.z.z.",
"z.z.z.z.z.z.z.z.z.z.z.z.z.z.z.z.z.z.z.z.z.z.z.* * O - G +.-.( E d r t y y y y 0 7 8 a % + O X z.z.z.z.z.z.z.z.z.z.z.z.z.z.z.z.z.",
"z.z.z.z.z.z.z.z.z.z.z.z.z.z.z.z.z.z.z.z.z.  X + :  .p.l.l.l.l.k.f.7.` b s r w 5 5 > , O * z.z.z.z.z.z.z.z.z.z.z.z.z.z.z.z.z.z.z.",
"z.z.z.z.z.z.z.z.z.z.z.z.z.z.z.z.z.z.z.z.O O : | d.l.l.l.l.l.l.l.l.l.l.k.u.-.E 6 5 5 3 # O z.z.z.z.z.z.z.z.z.z.z.z.z.z.z.z.z.z.z.",
"z.z.z.z.z.z.z.z.z.z.z.z.z.z.z.z.z.z.z.X + I s.l.l.l.l.l.l.l.l.l.l.l.l.l.l.l.h.( q 6 5 4 , + z.z.z.z.z.z.z.z.z.z.z.z.z.z.z.z.z.z.",
"z.z.z.z.z.z.z.z.z.z.z.z.z.z.z.z.z.* X -  .l.l.l.l.l.l.l.l.l.l.l.l.l.l.l.l.l.k.k.W r q 6 5 1 . z.z.z.z.z.z.z.z.z.z.z.z.z.z.z.z.z.",
"z.z.z.z.z.z.z.z.z.z.z.z.z.z.z.z.* X : 9.l.l.l.l.l.l.l.l.l.l.l.l.l.l.l.l.l.l.k.l.y.f y z 8 > 3 . z.z.z.z.z.z.z.z.z.z.z.z.z.z.z.z.",
"z.z.z.z.z.z.z.z.z.z.z.z.z.z.z.z.  : 0.l.l.l.l.l.l.l.l.p.0.l.l.l.l.l.l.l.l.l.l.l.l.) y x ^ 7 5 3 . z.z.z.z.z.z.z.z.z.z.z.z.z.z.z.",
"z.z.z.z.z.z.z.z.z.z.z.z.z.z.z.O - 9.l.l.l.l.l.l.l.l.0.: C h.l.l.l.l.l.l.l.l.l.l.l.;.u u &./ 7 5 1 o z.z.z.z.z.z.z.z.z.z.z.z.z.z.",
"z.z.z.z.z.z.z.z.z.z.z.z.z.z.O + 4.l.l.l.l.l.l.l.l.0.:   = q.l.l.l.l.l.l.l.l.l.l.l.a.j y v 2.Q 5 5 < + z.z.z.z.z.z.z.z.z.z.z.z.z.",
"z.z.z.z.z.z.z.z.z.z.z.z.z.O O I l.l.l.l.l.l.l.l.q.: X + O { l.l.l.k.l.l.l.l.k.l.l.j.W y h <.1.k 5 5 2 X z.z.z.z.z.z.z.z.z.z.z.z.",
"z.z.z.z.z.z.z.z.z.z.z.z.z.X : d.l.l.l.l.l.l.l.e.m X X X X C h.l.l.l.l.l.l.l.l.l.l.l._ y f =.r.*.8 > < O z.z.z.z.z.z.z.z.z.z.z.z.",
"z.z.z.z.z.z.z.z.z.z.z.z.X + 3.l.l.s.9.4.3. .{ m + X X X X + 4.k.l.l.l.l.l.l.l.l.l.l._ y y &.1.1.b 1 o O z.z.z.z.z.z.z.z.z.z.z.z.",
"z.z.z.z.z.z.z.z.z.z.z.z.  V h.l.l.H + O X X X X X X + X X X & H 6.h.l.l.l.l.l.k.l.l.8._ ;.<.2.1.<.K O z.z.z.z.z.z.z.z.z.z.z.z.z.",
"z.z.z.z.z.z.z.z.z.z.z.  +  .l.l.l.3.+ X X O X + X X X X X X X X = C  .d.l.l.l.l.l.l.l.l.l.i.1.1.1.@.& O z.z.z.z.z.z.z.z.z.z.z.z.",
"z.z.z.z.z.z.z.z.z.z.z.X - s.l.l.l.h.C X X X X o X X X X X X X X X X * : 5.l.l.l.l.l.l.l.l.j.2.1.1.1.S X z.z.z.z.z.z.z.z.z.z.z.z.",
"z.z.z.z.z.z.z.z.z.z.z.* G k.l.l.l.l.3.+ X X X X X + X X X + X X X O O C q.l.l.l.l.l.l.j.l.j.r.1.1.1...O X z.z.z.z.z.z.z.z.z.z.z.",
"z.z.z.z.z.z.z.z.z.z.z.O  .l.l.l.l.l.h.V X X X X O X X X X X X X X o I d.l.l.l.l.l.l.l.l.l.l.u.1.1.2.$.& O z.z.z.z.z.z.z.z.z.z.z.",
"z.z.z.z.z.z.z.z.z.z.X = 0.l.l.l.l.l.l.H X X + X X X + o X O X X - 3.k.l.l.l.l.l.l.l.l.l.l.l.u.1.1.1.1.B X z.z.z.z.z.z.z.z.z.z.z.",
"z.z.z.z.z.z.z.z.z.z.  ; d.l.l.l.l.l.d.: X X X X X X X X X + X B q.l.l.l.l.l.l.k.l.l.l.l.l.l.u.1.1.1.1.J X z.z.z.z.z.z.z.z.z.z.z.",
"z.z.z.z.z.z.z.z.z.z.* m h.l.l.l.l.l.5.+ X X O X X X O X X X + 6.l.l.l.l.l.l.l.l.l.l.l.l.l.j.t.1.1.1.2.T X z.z.z.z.z.z.z.z.z.z.z.",
"z.z.z.z.z.z.z.z.z.z.X Z k.l.l.l.l.l.' X X X X X X X X X X X + 0.l.l.l.l.l.l.l.l.l.l.l.l.l.l.r.1.1.1.2.[ X z.z.z.z.z.z.z.z.z.z.z.",
"z.z.z.z.z.z.z.z.z.z.X G k.l.l.l.l.l.G X X X X % : + X + X X $ e.l.l.l.l.l.l.l.l.l.l.l.l.l.g.w.1.1.1.2.[ O z.z.z.z.z.z.z.z.z.z.z.",
"z.z.z.z.z.z.z.z.z.z.X C h.l.l.l.l.d.:   X ; I 0.d. .- O X O - q.l.l.l.l.l.l.l.l.l.k.l.l.l.u.1.1.1.1.r.R X z.z.z.z.z.z.z.z.z.z.z.",
"z.z.z.z.z.z.z.z.z.z.* : f.l.l.l.l.p.- V } e.l.l.l.l.0.Z O X ; s.l.l.l.l.l.l.l.l.l.l.l.l.g.r.1.1.1.1.2.L X z.z.z.z.z.z.z.z.z.z.z.",
"z.z.z.z.z.z.z.z.z.z.O = e.l.l.l.l.h.5.f.l.l.l.l.l.l.l.h.{ $ : d.l.l.l.l.l.l.l.l.l.l.l.k.t.1.1.1.1.1.1.A + z.z.z.z.z.z.z.z.z.z.z.",
"z.z.z.z.z.z.z.z.z.z.z.+ ] g.l.l.l.l.l.l.l.l.l.l.l.l.l.l.l.9.' g.l.l.l.l.l.l.l.l.l.l.k.u.2.1.w.1.1.2.#.; X z.z.z.z.z.z.z.z.z.z.z.",
"z.z.z.z.z.z.z.z.z.z.z.X m ,.g.j.l.l.l.l.l.l.l.l.l.l.l.l.l.l.l.l.l.l.l.l.l.l.l.l.l.j.u.1.1.1.1.1.1.1.P + X z.z.z.z.z.z.z.z.z.z.z.",
"z.z.z.z.z.z.z.z.z.z.z.X X P r.r.g.l.l.l.l.l.l.l.l.l.l.l.l.l.l.l.l.l.l.l.l.l.l.l.j.t.1.1.1.1.1.1.2.,.m X z.z.z.z.z.z.z.z.z.z.z.z.",
"z.z.z.z.z.z.z.z.z.z.z.z.  & O.2.1.r.g.j.l.l.l.l.l.l.l.l.l.l.l.l.l.l.l.l.l.l.j.i.r.1.1.1.1.1.1.1.1.J X O z.z.z.z.z.z.z.z.z.z.z.z.",
"z.z.z.z.z.z.z.z.z.z.z.z.z.+ m #.2.1.1.2.t.g.l.l.l.l.l.l.l.l.l.l.l.l.l.l.g.u.r.1.1.1.1.1.1.1.1.1.T + + z.z.z.z.z.z.z.z.z.z.z.z.z.",
"z.z.z.z.z.z.z.z.z.z.z.z.z.  + m #.1.1.1.1.w.w.t.u.g.j.j.l.j.l.h.i.i.u.r.r.1.1.1.1.1.w.1.w.1.1.T + X z.z.z.z.z.z.z.z.z.z.z.z.z.z.",
"z.z.z.z.z.z.z.z.z.z.z.z.z.z.  X m o.1.1.1.w.w.1.1.1.1.1.2.1.2.2.1.1.1.w.1.1.1.1.1.1.1.2.r.$.J + X z.z.z.z.z.z.z.z.z.z.z.z.z.z.z.",
"z.z.z.z.z.z.z.z.z.z.z.z.z.z.z.X O + K $.1.1.1.1.1.1.1.1.1.1.1.1.1.1.1.1.1.1.1.1.1.1.2.,.[ m X + z.z.z.z.z.z.z.z.z.z.z.z.z.z.z.z.",
"z.z.z.z.z.z.z.z.z.z.z.z.z.z.z.z.z.X X ; L #.1.w.1.2.1.1.1.1.1.1.1.1.1.1.1.1.1.2.1.,.[ B + X   z.z.z.z.z.z.z.z.z.z.z.z.z.z.z.z.z.",
"z.z.z.z.z.z.z.z.z.z.z.z.z.z.z.z.z.z.X X O - A T o.,.,.w.1.w.1.1.2.2.1.1.1.,.@...F ; + X * z.z.z.z.z.z.z.z.z.z.z.z.z.z.z.z.z.z.z.",
"z.z.z.z.z.z.z.z.z.z.z.z.z.z.z.z.z.z.z.z.z.X X + + : m B S F J L U L J F M m $ + X X * z.z.z.z.z.z.z.z.z.z.z.z.z.z.z.z.z.z.z.z.z.",
"z.z.z.z.z.z.z.z.z.z.z.z.z.z.z.z.z.z.z.z.z.z.z.z.+ X X X + X X X X X X O X   + O z.z.z.z.z.z.z.z.z.z.z.z.z.z.z.z.z.z.z.z.z.z.z.z.",
"z.z.z.z.z.z.z.z.z.z.z.z.z.z.z.z.z.z.z.z.z.z.z.z.z.z.z.z.z.z.z.z.z.z.z.z.z.z.z.z.z.z.z.z.z.z.z.z.z.z.z.z.z.z.z.z.z.z.z.z.z.z.z.z.",
"z.z.z.z.z.z.z.z.z.z.z.z.z.z.z.z.z.z.z.z.z.z.z.z.z.z.z.z.z.z.z.z.z.z.z.z.z.z.z.z.z.z.z.z.z.z.z.z.z.z.z.z.z.z.z.z.z.z.z.z.z.z.z.z.",
"z.z.z.z.z.z.z.z.z.z.z.z.z.z.z.z.z.z.z.z.z.z.z.z.z.z.z.z.z.z.z.z.z.z.z.z.z.z.z.z.z.z.z.z.z.z.z.z.z.z.z.z.z.z.z.z.z.z.z.z.z.z.z.z.",
"z.z.z.z.z.z.z.z.z.z.z.z.z.z.z.z.z.z.z.z.z.z.z.z.z.z.z.z.z.z.z.z.z.z.z.z.z.z.z.z.z.z.z.z.z.z.z.z.z.z.z.z.z.z.z.z.z.z.z.z.z.z.z.z.",
"z.z.z.z.z.z.z.z.z.z.z.z.z.z.z.z.z.z.z.z.z.z.z.z.z.z.z.z.z.z.z.z.z.z.z.z.z.z.z.z.z.z.z.z.z.z.z.z.z.z.z.z.z.z.z.z.z.z.z.z.z.z.z.z."
};
