/* XPM */
static char *result[] = {
/* columns rows colors chars-per-pixel */
"64 64 238 2 ",
"   c #1C1C1B",
".  c #262725",
"X  c #33322F",
"o  c #3E3D3C",
"O  c #302F2D",
"+  c #403836",
"@  c #4A4744",
"#  c #585855",
"$  c #50504C",
"%  c #665753",
"&  c #746A64",
"*  c #CC2C2B",
"=  c #D43532",
"-  c #E43633",
";  c #E93936",
":  c #F43E3A",
">  c #EA423F",
",  c #F4413D",
"<  c #E8593C",
"1  c #EE6B38",
"2  c #805E59",
"3  c #BE5767",
"4  c #B1676E",
"5  c #857B74",
"6  c #D95255",
"7  c #D34B4B",
"8  c #EC4A44",
"9  c #FB4642",
"0  c #FC4A46",
"q  c #FC4D49",
"w  c #F54744",
"e  c #EE534A",
"r  c #FD524D",
"t  c #F6564A",
"y  c #E54E53",
"u  c #E35859",
"i  c #FD5A54",
"p  c #FC5E59",
"a  c #F85552",
"s  c #D26757",
"d  c #FB635E",
"f  c #F7665B",
"g  c #FA6149",
"h  c #CE5A67",
"j  c #DB746F",
"k  c #CB746F",
"l  c #E76866",
"z  c #FE6A65",
"x  c #F86965",
"c  c #EA736E",
"v  c #FD726D",
"b  c #F3716E",
"n  c #E87676",
"m  c #FD7B75",
"M  c #F97B76",
"N  c #E96E76",
"B  c #0DAE07",
"V  c #0EB105",
"C  c #0EAB0E",
"Z  c #34B608",
"A  c #11AF2F",
"S  c #7BA21A",
"D  c #5EAC07",
"F  c #16D510",
"G  c #33DC15",
"H  c #1BE50D",
"J  c #1DE315",
"K  c #1DF10D",
"L  c #27E70E",
"P  c #2AF310",
"I  c #21DB20",
"U  c #1FEE3D",
"Y  c #28FD24",
"T  c #43E10D",
"R  c #40D40C",
"E  c #13A74F",
"W  c #15A260",
"Q  c #2ABC7B",
"!  c #27DE60",
"~  c #6EDC4A",
"^  c #CA970E",
"/  c #FC9639",
"(  c #D1A12A",
")  c #D6A638",
"_  c #F5B035",
"`  c #DEAF0E",
"'  c #86EF2B",
"]  c #98DA1B",
"[  c #FECA3C",
"{  c #E0C621",
"}  c #FD9341",
"|  c #FF8459",
" . c #F98548",
".. c #DBB243",
"X. c #E1A947",
"o. c #E1B557",
"O. c #FDBE56",
"+. c #F2BA47",
"@. c #FF837C",
"#. c #F48979",
"$. c #E88B76",
"%. c #EFB272",
"&. c #A3EC45",
"*. c #FBD565",
"=. c #ECC679",
"-. c #FDE262",
";. c #E8D24D",
":. c #6E76A6",
">. c #8D7197",
",. c #DD7A86",
"<. c #24BF99",
"1. c #1D91AF",
"2. c #4FBE9B",
"3. c #27CB8B",
"4. c #2AD9AD",
"5. c #70E585",
"6. c #1E8CC5",
"7. c #1F8DD6",
"8. c #1F91DE",
"9. c #2287C7",
"0. c #2B8DD0",
"q. c #2DBAD4",
"w. c #2D98E5",
"e. c #38A9F4",
"r. c #33B8FA",
"t. c #30AEEC",
"y. c #53AEE9",
"u. c #62ACCE",
"i. c #35C8F9",
"p. c #31E0D9",
"a. c #70C6DD",
"s. c #41CDF5",
"d. c #8E8C8B",
"f. c #B3AEB0",
"g. c #B0A39C",
"h. c #DA9387",
"j. c #D88D93",
"k. c #FE8B84",
"l. c #F78B85",
"z. c #E59589",
"x. c #F39586",
"c. c #FD9787",
"v. c #FD958A",
"b. c #FC9B8B",
"n. c #F5998A",
"m. c #EA9C92",
"M. c #FD9D95",
"N. c #F69A95",
"B. c #DDAC9C",
"V. c #D2B896",
"C. c #CEAF93",
"Z. c #FFA08F",
"A. c #E4A597",
"S. c #FDA392",
"D. c #FDA996",
"F. c #FDA49C",
"G. c #FEAB9A",
"H. c #F5A497",
"J. c #FEB19E",
"K. c #F2B99D",
"L. c #EAAD94",
"P. c #C9B8B0",
"I. c #FDACA2",
"U. c #F5AEA8",
"Y. c #E6B7A6",
"T. c #FEB4A2",
"R. c #FEB3AC",
"E. c #FFBDAB",
"W. c #FABAA6",
"Q. c #FFBCB4",
"!. c #F5B9B3",
"~. c #E7ADA0",
"^. c #C394A6",
"/. c #CBC09E",
"(. c #F2CD95",
"). c #F3CD91",
"_. c #D1C8BA",
"`. c #FEC1AE",
"'. c #FAC6A8",
"]. c #F8D6AB",
"[. c #E2CABB",
"{. c #FEC5B2",
"}. c #FFC9B6",
"|. c #FECDBB",
" X c #F9C5B8",
".X c #F6DEB2",
"XX c #FBDCB3",
"oX c #FFD1BE",
"OX c #FAD9B8",
"+X c #EBD1AC",
"@X c #FBE2B5",
"#X c #F5E4BC",
"$X c #FBE4BC",
"%X c #FBE5BB",
"&X c #F9E6AF",
"*X c #8FA6CA",
"=X c #DBD7C4",
"-X c #DCD9D5",
";X c #FCCEC7",
":X c #E9D4C5",
">X c #FFD5C2",
",X c #FFD9C6",
"<X c #FFDCCB",
"1X c #F4DAC7",
"2X c #EED8D2",
"3X c #EEE6CA",
"4X c #F4E5C3",
"5X c #F5E9C5",
"6X c #FCEAC4",
"7X c #FEE0CE",
"8X c #F5ECCD",
"9X c #FBECCB",
"0X c #FAE6C4",
"qX c #FEF1CC",
"wX c #E4E2DE",
"eX c #EBE4DB",
"rX c #FFE3D3",
"tX c #F3EED2",
"yX c #FBEDD3",
"uX c #FEE9DC",
"iX c #FCF3D5",
"pX c #FCF4DC",
"aX c #FFFADC",
"sX c #F3F2D8",
"dX c #E9E6E3",
"fX c #EBE9E4",
"gX c #F7EDE5",
"hX c #F5F3E4",
"jX c #FBF6E3",
"kX c #FFFBE4",
"lX c #F5F4ED",
"zX c #FBF5EB",
"xX c #FEFDEC",
"cX c #F5F5F2",
"vX c #FEFDF3",
"bX c #FFFFFB",
"nX c #FBF6F1",
"mX c None",
/* pixels */
"mXmXmXmXmXmXmXmXmXmXmXmXmXmXmXmXmXmXmXmXmXmXmXmXmXmXmXmXmXmXmXmXmXmXmXmXmXmXmXmXmXmXmXmXmXmXmXmXmXmXmXmXmXmXmXmXmXmXmXmXmXmXmXmX",
"mXmXmXmXmXmXmXmXmXmXmXmXmXmXmXmXmXmXmXmXmXmXmXmXmXmXmXmXmXmXmXmXmXmXmXmXmXmXmXmXmXmXmXmXmXmXmXmXmXmXmXmXmXmXmXmXmXmXmXmXmXmXmXmX",
"mXmXmXmXmXmXmXmXmXmXmXmXmXmXmXmXmXmXmXmXmXmXmXmXmXmXmXmXmXmXmXmXmXmXmXmXmXmXmXmXmXmXmXmXmXmXmXmXmXmXmXmXmXmXmXmXmXmXmXmXmXmXmXmX",
"mXmXmXmXmXmXmXmXmXmXmXmXmXmXmXmXmXmXmXmXmXmXmXmXmXmXmXmXmXmXmXmXmXmXmXmXmXmXmXmXmXmXmXmXmXmXmXmXmXmXmXmXmXmXmXmXmXmXmXmXmXmXmXmX",
"mXmXmXmXmXmXmXmXmXmXmXmXmXmXmXmXmXmXmXmXmXmXmXmXmXmXmXmXmXmXmXmXmXmXmXmXmXmXmXmXmXmXmXmXmXmXmXmXmXmXmXmXmXmXmXmXmXmXmXmXmXmXmXmX",
"mXmXmXmXmXmXmXmXmXmXmXmXmXmXmXmXmXmXmXmXmXmXmXmXmXmXmXmXmXmXmXmXmXmXmXmXmXmXmXmXmXmXmXmXmXmXmXmXmXmXmXmXmXmXmXmXmXmXmXmXmXmXmXmX",
"mXmXmXmXmXmXmXmXmXmXmXmXmXmXmXmXmXmXmXmXmXmXmXmXmXmXmXmXmXdXlXcXcXcXwXmXmXmXmXmXmXmXmXmXmXmXmXmXmXmXmXmXmXmXmXmXmXmXmXmXmXmXmXmX",
"mXmXmXmXmXmXmXmXmXmXmXmXmXmXmXmXmXmXmXmXmXmXmXmXmXmX-XlXnXzXlXlXnXnXnXbXcX-XmXmXmXmXmXmXmXmXmXmXmXmXmXmXmXmXmXmXmXmXmXmXmXmXmXmX",
"mXmXmXmXmXmXmXmXmXmXmXmXmXmXmXmXmXmXmXmXmXs l l mXfXgX1X,X>X<X<XrXrXrXuXuXnXlXmXc c j mXmXmXmXmXmXmXmXmXmXmXmXmXmXmXmXmXmXmXmXmX",
"mXmXmXmXmXmXmXmXmXmXmXmXmXmXmXmXmXmXmXl a i p r gXgX}. X XN.U.<XrXR.T.<XrXuXvXlXw a p d j mXmXmXmXmXmXmXmXmXmXmXmXmXmXmXmXmXmXmX",
"mXmXmXmXmXmXmXmXmXmXmXmXmXmXmXmXmXmXx r i i p M zXoX`.C.Y.>X,X<X<XrX7X[.P.rXgXbXb 0 a i x b mXmXmXmXmXmXmXmXmXmXmXmXmXmXmXmXmXmX",
"mXmXmXmXmXmXmXmXmXmXmXmXmXmXmXmXmXd M.R.R.M.d zXsXB.# d.  |.>X<X<X<X<X  d.# [.vXnX8 S.R.Q.!.M mXmXmXmXmXmXmXmXmXmXmXmXmXmXmXmXmX",
"mXmXmXmXmXmXmXmXmXmXmXmXmXmXmXmXM M.I.R.Q.Q.;XzXY.O f.o O |.>X,X<X<X7XX @ f.+ :XnX!.I.!.Q.Q.;Xx.mXmXmXmXmXmXmXmXmXmXmXmXmXmXmXmX",
"mXmXmXmXmXmXmXmXmXmXmXmXmXmXmXs M.M.I.I.Q.R.sXtX@     . +XoX>X,X<X7X<X=X. . X # vXnXl.Q.Q.Q.Q.Q.k mXmXmXmXmXmXmXmXmXmXmXmXmXmXmX",
"mXmXmXmXmXmXmXmXmXmXmXmXmXmXmXM v m @.M.R. XXX'.o # @  XoXoXoX>X,X<X<X<X2X$ & @ 4XpX!.F.I.v.v.v.S.mXmXmXmXmXmXmXmXmXmXmXmXmXmXmX",
"mXmXmXmXmXmXmXmXmXmXmXmXmXmXmXx v v m @.@.H.9XY.& B.`.{.oX>XoX>X<X,X<X<X<X7X_.5 1XhXN.d k.k.k.k.k.mXmXmXmXmXmXmXmXmXmXmXmXmXmXmX",
"mXmXmXmXmXmXmXmXmXmXmXe mXmXa z z v m @.z jXuXT.T.E.`.}.}.|.oX% 2 ,X,X<X<X7X<X<X,XzXnXe @.k.k.k.k.x mXmXe mXmXmXmXmXmXmXmXmXmXmX",
"mXmXmXmXmXmXmXmXmXmXmX8 i d z i d z v v I.kX>XJ.T.E.`.{.{.}.}.|.>X>X,X<X,X<X<X<X,XgXbXH.d @.@.@.m v r w e mXmXmXmXmXmXmXmXmXmXmX",
"mXmXmXmXmXmXmXmXmXmXmXmXr i q : : 0 i p %X@XE.G.G.T.E.W.4 J.J.z.z.W.!.k  X,X,X,X>X,XaXpX8 z d i r 0 9 0 mXmXmXmXmXmXmXmXmXmXmXmX",
"mXmXmXmXmXmXmXmXmXmXmXmX, a r ; ; ; : = .X+XJ.G.G.T.T.E.h.4 4 K.Y.k k A.|.>X>X>X>X|..X3X* - 0 0 q 0 9 w mXmXmXmXmXmXmXmXmXmXmXmX",
"mXmXmXmXmXmXmXmXmXmXmXmX8 q v ; - - = 7 tX8XG.G.G.G.T.E.T.`.E.E.E. X}.|.|.|.>X>X>X}.xXzX= * 8 0 9 d , 8 mXmXmXmXmXmXmXmXmXmXmXmX",
"mXmXmXmXmXmXmXmXmXmXmXmXmX; v x - - * +XaXiXI.D.S.G.G.G.T.T.T.E.E.E.{.`.}.}.}.|.|.{.vXvXB.* = , l x ; mXmXmXmXmXmXmXmXmXmXmXmXmX",
"mXmXmXmXmXmXmXmXmXmXmXmXmXu #.l.x ; n.%XyX$XT.S.S.D.D.D.T.G.T.T.T.E.E.E.E.{.{.}. XE.kXzX#X$.; l n n 6 mXmXmXmXmXmXmXmXmXmXmXmXmX",
"mXmXmXmXmXmXmXmXmXmXmXmXmXmXn n c e #.5X$X].'.S.b.b.b.S.D.G.G.G.T.J.T.T.E.E.E.E.E.(.%XiX3X$.8 l j c mXmXmXmXmXmXmXmXmXmXmXmXmXmX",
"mXmXmXmXmXmXmXmXmXmXmXmXmXmXmXmX6 mXmXjXiX8XyXD.b.b.b.b.M.S.S.D.D.G.D.J.J.G.T.T.J.yXtXzXhXmXmX6 mXmXmXmXmXmXmXmXmXmXmXmXmXmXmXmX",
"mXmXmXmXmXmXmXmXmXmXmXmXmXmXmXmXmXmX=XpXpXyXyX>Xb.b.b.b.c.b.c.b.b.S.Z.S.D.G.D.D.2XvXvXvXlX_.mXmXmXmXmXmXmXmXmXmXmXmXmXmXmXmXmXmX",
"mXmXmXmXmXmXmXmXmXmXmXmXmXmXmXmXmXmX5XpX6XpXyXiX>XS.b.c.c.c.c.c.b.c.b.b.b.b.S.uXbXvXvXkXlX3XmXmXmXmXmXmXmXmXmXmXmXmXmXmXmXmXmXmX",
"mXmXmXmXmXmXmXmXmXmXmXmXmXmXmXmXmXmX.X@X@X9XyX#X@XyX`.S.b.c.b.c.c.b.b.b.S.{.zXxXxXvXxXiXsX#XmXmXmXmXmXmXmXmXmXmXmXmXmXmXmXmXmXmX",
"mXmXmXmXmXmXmXmXmXmXmXmXmXmXmXmXmXmXmX~ ..XX].].).XX.X#XOX(.].].XXoX(.@X6XiXaX&XtXaXsXI 5.mXmXmXmXmXmXmXmXmXmXmXmXmXmXmXmXmXmXmX",
"mXmXmXmXmXmXmXmXmXmXmXmXmXmXmXmXmXmXI Z ( ) o.) ( o.(.)...^ =.].].=.` +.).@X*._ +.;.K H 4.s.mXmXmXmXmXmXmXmXmXmXmXmXmXmXmXmXmXmX",
"mXmXmXmXmXmXmXmXmXmXmXmXmXmXmXmXmXw.A Z ^ ) X.1 8 < < 8 8 > 1 e t 1 1 1 g _ [ +.[ -.K H t.y.x mXmXmXmXmXmXmXmXmXmXmXmXmXmXmXmXmX",
"mXmXmXmXmXmXmXmXmXmXmXmXmXmXmXmXmXf.1.C ^ X.w w 8 6 h 6 4 >.y h h a u d z z z v v O.' ! t.n m.mXmXmXmXmXmXmXmXmXmXmXmXmXmXmXmXmX",
"mXmXmXmXmXmXmXmXmXmXmXmXmXmXmXmXmXS.f.C S t 8 :.9.9.9.9.6.1.6.1.1.7.t.y.y.N z z d z -.Q w.z.|.mXmXmXmXmXmXmXmXmXmXmXmXmXmXmXmXmX",
"mXmXmXmXmXmXmXmXmXmXmXmXmXmXmXmXS.n.x.h.s u 8.7.9.W A B V V Z Z G T L Y 3.i.*Xz z f *.~ x.'.|.oXmXmXmXmXmXmXmXmXmXmXmXmXmXmXmXmX",
"mXmXmXmXmXmXmXmXmXmXmXmXmXmXmXz.n.n.#.Z.g >.8.7.W B B B D ` / g N 2.! 3.u.u.,.z } O.' Y A.J.`.oX[.mXmXmXmXmXmXmXmXmXmXmXmXmXmXmX",
"mXmXmXmXmXmXmXmXmXmXmXmXmXmXmXS.b.x.c.=.r u 0.7.9.E B F G ] { / /  .f } / _ ..] ~ Y Y p.a.Z.T.}.|.mXmXmXmXmXmXmXmXmXmXmXmXmXmXmX",
"mXmXmXmXmXmXmXmXmXmXmXmXmXmXH.n.n.x.I.=.g t y >.w.t.q.<.3.F J I L L G J K K U U ! p.i.a.N.I.D.E.oX|.mXmXmXmXmXmXmXmXmXmXmXmXmXmX",
"mXmXmXmXmXmXmXmXmXmXmXmXmXmXM.n.x.n.jXsX3X%.f i a l y.e.e.r.r.r.r.q.i.r.i.i.i.y.*X*X!.zXbXvXM.G.`.1XmXmXmXmXmXmXmXmXmXmXmXmXmXmX",
"mXmXmXmXmXmXmXmXmXmXmXmXmXdXdXN.x.tX6XpXiXpXaXjX7X XN.@.m M j.,.n j.^.j.N.R.;XgXnXbXbXbXbXvXxXb.E.nXcXmXmXmXmXmXmXmXmXmXmXmXmXmX",
"mXmXmXmXmXmXmXmXmXmXmXmXmX-XdXdX:X&X#XpXxXxXkXkXvXvXvXxXvXxXvXvXbXnXbXbXbXbXbXbXbXbXbXbXbXtXiX2XfXcXdXmXmXmXmXmXmXmXmXmXmXmXmXmX",
"mXmXmXmXmXmXmXmXmXmXmXmXmXmX_.-Xf.[.5XqXiXqXaXxXxXvXkXvXvXvXbXvXbXbXbXbXbXvXbXbXbXbXxXxXxXjX=Xf.-X=XmXmXmXmXmXmXmXmXmXmXmXmXmXmX",
"mXmXmXmXmXmXmXmXmXmXmXmXmXmXmXmXmXtX9X@X.X#X9XaXkXkXqXkXvXvXvXxXxXbXbXbXvXaXvXvXvXxXiX9X9XhXhXmXmXmXmXmXmXmXmXmXmXmXmXmXmXmXmXmX",
"mXmXmXmXmXmXmXmXmXmXmXmXmXmXmXmXmX#X6XsXyXpX%XqXqX@X6XqXaXaXkXqXqXkXxXxXaXpX0XiXkXtXvXvXvXxXhXmXmXmXmXmXmXmXmXmXmXmXmXmXmXmXmXmX",
"mXmXmXmXmXmXmXmXmXmXmXmXmXmXmXmXg.&X9XpXkXyXiX5XyXkXpX9X@X6X6XkXpX%X6X9XpXvXxXkXkXbXvXvXbXpXtXmXmXmXmXmXmXmXmXmXmXmXmXmXmXmXmXmX",
"mXmXmXmXmXmXmXmXmXmXmXmXmXmXmXmXmXmX#X6X6X%XpXpXkXkXpXkXxXxXvXxXxXxXvXvXbXxXbXbXbXvXkXkXxXtXmXmXmXmXmXmXmXmXmXmXmXmXmXmXmXmXmXmX",
"mXmXmXmXmXmXmXmXmXmXmXmXmXmXmXmXmXmX3X@XXX#X6XqXiXiX9XkXxXxXvXkXkXxXvXvXbXkXkXxXxXkX5X5X9XeXmXmXmXmXmXmXmXmXmXmXmXmXmXmXmXmXmXmX",
"mXmXmXmXmXmXmXmXmXmXmXmXmXmXmXmXmXmX8XpXuX9X$X$X0X.X#XqXiXaXaX6X6XiXaXkXkX5X%XaXkXsXxXjXjXhXmXmXmXmXmXmXmXmXmXmXmXmXmXmXmXmXmXmX",
"mXmXmXmXmXmXmXmXmXmXmXmXmXmXmXmXmXmX.XiXiXyXyX5X4X8X8X#X%X%X#XpX5X#X%X9XsXxXkXiXjXvXvXvXjX8XmXmXmXmXmXmXmXmXmXmXmXmXmXmXmXmXmXmX",
"mXmXmXmXmXmXmXmXmXmXmXmXmXmXmXmXmXmXmX#X$XXX$XiXpXpX9X8X8XpXxXxXkXpXkXvXvXvXvXvXvXxXkXjXtXmXmXmXmXmXmXmXmXmXmXmXmXmXmXmXmXmXmXmX",
"mXmXmXmXmXmXmXmXmXmXmXmXmXmXmXmXmXmXmXmXC.C.V.$X9X9X%XyXkXkXkXyXiXxXxXvXxXaXaXkXpX_.V./.mXmXmXmXmXmXmXmXmXmXmXmXmXmXmXmXmXmXmXmX",
"mXmXmXmXmXmXmXmXmXmXmXmXmXmXmXmXmXmXmXmXmXmXmXmX].].D.'.$X6X6X+X+X6XyXiXoXJ.OX5XmXmXmXmXmXmXmXmXmXmXmXmXmXmXmXmXmXmXmXmXmXmXmXmX",
"mXmXmXmXmXmXmXmXmXmXmXmXmXmXmXmXmXmXmXmXmXmXmXmXmXb.b.b.D.K.mXmXmXmX(.S.b.Z.S.mXmXmXmXmXmXmXmXmXmXmXmXmXmXmXmXmXmXmXmXmXmXmXmXmX",
"mXmXmXmXmXmXmXmXmXmXmXmXmXmXmXmXmXmXmXmXmXmXmXmXmXb.n.b.S.x.mXmXmXmXH.b.c.b.S.mXmXmXmXmXmXmXmXmXmXmXmXmXmXmXmXmXmXmXmXmXmXmXmXmX",
"mXmXmXmXmXmXmXmXmXmXmXmXmXmXmXmXmXmXmXmXmXmXmXmXmXb.n.Z.S.h.mXmXmXmXA.b.b.b.N.mXmXmXmXmXmXmXmXmXmXmXmXmXmXmXmXmXmXmXmXmXmXmXmXmX",
"mXmXmXmXmXmXmXmXmXmXmXmXmXmXmXmXmXmXmXmXmXmXmXmXmXF.b.b.G.P.mXmXmXmX:XS.n.S.W.mXmXmXmXmXmXmXmXmXmXmXmXmXmXmXmXmXmXmXmXmXmXmXmXmX",
"mXmXmXmXmXmXmXmXmXmXmXmXmXmXmXmXmXmXmXmXmXmXmXmXmXcXdXcXvX-XmXmXmXmXeXlXbXlXcXmXmXmXmXmXmXmXmXmXmXmXmXmXmXmXmXmXmXmXmXmXmXmXmXmX",
"mXmXmXmXmXmXmXmXmXmXmXmXmXmXmXmXmXmXmXmXmXmXmXmXmXdX-XdXdXmXmXmXmXmXmXdXfXdXfXmXmXmXmXmXmXmXmXmXmXmXmXmXmXmXmXmXmXmXmXmXmXmXmXmX",
"mXmXmXmXmXmXmXmXmXmXmXmXmXmXmXmXmXmXmXmXmXmXmXmXmXmXmXmXmXmXmXmXmXmXmXmXmXmXmXmXmXmXmXmXmXmXmXmXmXmXmXmXmXmXmXmXmXmXmXmXmXmXmXmX",
"mXmXmXmXmXmXmXmXmXmXmXmXmXmXmXmXmXmXmXmXmXmXmXmXmXmXmXmXmXmXmXmXmXmXmXmXmXmXmXmXmXmXmXmXmXmXmXmXmXmXmXmXmXmXmXmXmXmXmXmXmXmXmXmX",
"mXmXmXmXmXmXmXmXmXmXmXmXmXmXmXmXmXmXmXmXmXmXmXmXmXmXmXmXmXmXmXmXmXmXmXmXmXmXmXmXmXmXmXmXmXmXmXmXmXmXmXmXmXmXmXmXmXmXmXmXmXmXmXmX",
"mXmXmXmXmXmXmXmXmXmXmXmXmXmXmXmXmXmXmXmXmXmXmXmXmXmXmXmXmXmXmXmXmXmXmXmXmXmXmXmXmXmXmXmXmXmXmXmXmXmXmXmXmXmXmXmXmXmXmXmXmXmXmXmX",
"mXmXmXmXmXmXmXmXmXmXmXmXmXmXmXmXmXmXmXmXmXmXmXmXmXmXmXmXmXmXmXmXmXmXmXmXmXmXmXmXmXmXmXmXmXmXmXmXmXmXmXmXmXmXmXmXmXmXmXmXmXmXmXmX",
"mXmXmXmXmXmXmXmXmXmXmXmXmXmXmXmXmXmXmXmXmXmXmXmXmXmXmXmXmXmXmXmXmXmXmXmXmXmXmXmXmXmXmXmXmXmXmXmXmXmXmXmXmXmXmXmXmXmXmXmXmXmXmXmX",
"mXmXmXmXmXmXmXmXmXmXmXmXmXmXmXmXmXmXmXmXmXmXmXmXmXmXmXmXmXmXmXmXmXmXmXmXmXmXmXmXmXmXmXmXmXmXmXmXmXmXmXmXmXmXmXmXmXmXmXmXmXmXmXmX"
};
