/* XPM */
static char *result[] = {
/* columns rows colors chars-per-pixel */
"64 64 211 2 ",
"   c #1F2221",
".  c #212322",
"X  c #2D2A28",
"o  c #30302E",
"O  c #383431",
"+  c #403F3E",
"@  c #575653",
"#  c #584E49",
"$  c #6E6A68",
"%  c #EB3C38",
"&  c #EA3A36",
"*  c #F23E3A",
"=  c #F24B3E",
"-  c #F17A37",
";  c #8F7D78",
":  c #B16763",
">  c #BB776F",
",  c #CB524D",
"<  c #D85653",
"1  c #EB4948",
"2  c #FD4641",
"3  c #FF4E49",
"4  c #FA4A46",
"5  c #EC5244",
"6  c #FE524D",
"7  c #FE5F49",
"8  c #EE5D56",
"9  c #FF5A55",
"0  c #FF5F59",
"q  c #F35B56",
"w  c #FE625C",
"e  c #FA654A",
"r  c #C95E73",
"t  c #CE716A",
"y  c #EE6566",
"u  c #FF6561",
"i  c #FD6A65",
"p  c #F46865",
"a  c #FC716C",
"s  c #FC796E",
"d  c #E06F7D",
"f  c #E77677",
"g  c #FC7C75",
"h  c #FF7F79",
"j  c #FE7771",
"k  c #5EB915",
"l  c #7BAB19",
"z  c #14CA09",
"x  c #1DDB19",
"c  c #19CD14",
"v  c #26D013",
"b  c #1EE31C",
"n  c #21F514",
"m  c #1BDC2D",
"M  c #1EE72B",
"N  c #3BEC39",
"B  c #54CC17",
"V  c #68CD15",
"C  c #67E815",
"Z  c #1ECF4D",
"A  c #1FCC5A",
"S  c #32DB52",
"D  c #22E356",
"F  c #1EC373",
"G  c #21C970",
"H  c #60EE5D",
"J  c #B1BE1C",
"K  c #D2991C",
"L  c #DDA70B",
"P  c #F5BB1C",
"I  c #E6AE0F",
"U  c #F69438",
"Y  c #C7A52A",
"T  c #EFA12C",
"R  c #FEB133",
"E  c #FDB426",
"W  c #A0DD16",
"Q  c #92E31D",
"!  c #DBC719",
"~  c #F9D11D",
"^  c #FDD527",
"/  c #B5B345",
"(  c #9B8378",
")  c #AB8973",
"_  c #FB8A44",
"`  c #FD9143",
"'  c #E69B56",
"]  c #E4B746",
"[  c #CB827D",
"{  c #FC827C",
"}  c #F3867D",
"|  c #EB9E67",
" . c #E7BE65",
".. c #97D16B",
"X. c #9A688E",
"o. c #BC738D",
"O. c #887EAD",
"+. c #DB7B92",
"@. c #1FB19D",
"#. c #1AA98A",
"$. c #24BB9F",
"%. c #1B95B7",
"&. c #27BAAD",
"*. c #519B9F",
"=. c #4DB184",
"-. c #5680A6",
";. c #7786BC",
":. c #5FB3B8",
">. c #2AD092",
",. c #2090D9",
"<. c #208DC3",
"1. c #30A0E9",
"2. c #30AEF2",
"3. c #4B94D5",
"4. c #6D96CF",
"5. c #6AA6D9",
"6. c #56A4E5",
"7. c #4CAFEC",
"8. c #35C7F9",
"9. c #32CCEB",
"0. c #41C8F7",
"q. c #969592",
"w. c #A49086",
"e. c #918EB9",
"r. c #B99BB1",
"t. c #A6A0B6",
"y. c #D1998A",
"u. c #FD8B83",
"i. c #FA8781",
"p. c #FE958A",
"a. c #FC9C8C",
"s. c #F79589",
"d. c #FD9D91",
"f. c #EB9889",
"g. c #CCAA8E",
"h. c #D5AF96",
"j. c #FDA494",
"k. c #FDA59C",
"l. c #FEAC9B",
"z. c #F9A896",
"x. c #FEB09E",
"c. c #D5A2A7",
"v. c #CABEAF",
"b. c #DDBCAD",
"n. c #C6B7AF",
"m. c #FBABA5",
"M. c #FEB5A3",
"N. c #FFB9A7",
"B. c #FEB5AC",
"V. c #FDBCAA",
"C. c #FFBCB4",
"Z. c #FFBFB8",
"A. c #EFB5A5",
"S. c #C7DE90",
"D. c #ECD298",
"F. c #C9E69D",
"G. c #D4C6AF",
"H. c #E3C9A8",
"J. c #FFC0AD",
"K. c #F7C8A5",
"L. c #F6D9A8",
"P. c #ECCDBD",
"I. c #E7C5B7",
"U. c #FFC5B2",
"Y. c #FFC9B6",
"T. c #FFCDBB",
"R. c #FBC3B7",
"E. c #EBD9B6",
"W. c #FED1BE",
"Q. c #F4DCB8",
"!. c #FAD9B7",
"~. c #DBEAA8",
"^. c #F5E3BC",
"/. c #FAE4BD",
"(. c #F7E1B4",
"). c #8AA4C7",
"_. c #D2D0CD",
"`. c #DDD5D0",
"'. c #FED5C3",
"]. c #FFD9C6",
"[. c #FFDCCA",
"{. c #F6D7C7",
"}. c #F0D5CC",
"|. c #F4E6C4",
" X c #FBE6C2",
".X c #F6E9C5",
"XX c #FCEAC3",
"oX c #F5EACC",
"OX c #FCEDCB",
"+X c #F9E5CC",
"@X c #FEF1CD",
"#X c #FEE4D4",
"$X c #FAECD3",
"%X c #FAE8DA",
"&X c #FDF3D4",
"*X c #FCF4DB",
"=X c #FFF9DD",
"-X c #F7F0D5",
";X c #EBE1C8",
":X c #EBE8E4",
">X c #FCECE3",
",X c #F1EEEA",
"<X c #FDF4E4",
"1X c #FFFBE4",
"2X c #F3F1EE",
"3X c #FDF5EA",
"4X c #FFFDEC",
"5X c #F6F5F2",
"6X c #FEFDF4",
"7X c #FFFFFA",
"8X c None",
/* pixels */
"8X8X8X8X8X8X8X8X8X8X8X8X8X8X8X8X8X8X8X8X8X8X8X8X8X8X8X8X8X8X8X8X8X8X8X8X8X8X8X8X8X8X8X8X8X8X8X8X8X8X8X8X8X8X8X8X8X8X8X8X8X8X8X8X",
"8X8X8X8X8X8X8X8X8X8X8X8X8X8X8X8X8X8X8X8X8X8X8X8X8X8X8X8X8X8X8X8X8X8X8X8X8X8X8X8X8X8X8X8X8X8X8X8X8X8X8X8X8X8X8X8X8X8X8X8X8X8X8X8X",
"8X8X8X8X8X8X8X8X8X8X8X8X8X8X8X8X8X8X8X8X8X8X8X8X8X8X8X8X8X8X8X8X8X8X8X8X8X8X8X8X8X8X8X8X8X8X8X8X8X8X8X8X8X8X8X8X8X8X8X8X8X8X8X8X",
"8X8X8X8X8X8X8X8X8X8X8X8X8X8X8X8X8X8X8X8X8X8X8X8X8X8X8X8X8X8X8X8X8X8X8X8X8X8X8X8X8X8X8X8X8X8X8X8X8X8X8X8X8X8X8X8X8X8X8X8X8X8X8X8X",
"8X8X8X8X8X8X8X8X8X8X8X8X8X8X8X8X8X8X8X8X8X8X8X8X8X8X8X8X8X8X8X8X8X8X8X8X8X8X8X8X8X8X8X8X8X8X8X8X8X8X8X8X8X8X8X8X8X8X8X8X8X8X8X8X",
"8X8X8X8X8X8X8X8X8X8X8X8X8X8X8X8X8X8X8X8X8X8X8X8X8X8X8X8X8X8X8X8X8X8X8X8X8X8X8X8X8X8X8X8X8X8X8X8X8X8X8X8X8X8X8X8X8X8X8X8X8X8X8X8X",
"8X8X8X8X8X8X8X8X8X8X8X8X8X8X8X8X8X8X8X8X8X8X8X8X8X8X8X8X8X8X8X8X8X8X8X8X8X8X8X8X8X8X8X8X8X8X8X8X8X8X8X8X8X8X8X8X8X8X8X8X8X8X8X8X",
"8X8X8X8X8X8X8X8X8X8X8X8X8X8X8X8X8X8X8X8X8X8X8X8X8X8X8X8X8X8X8X8X8X8X8X8X8X8X8X8X8X8X8X8X8X8X8X8X8X8X8X8X8X8X8X8X8X8X8X8X8X8X8X8X",
"8X8X8X8X8X8X8X8X8X8X8X8X8X8X8X8X8X8X8X8X8X8X8X8X8X8X8X8X8X8X8X8X8X8X8X8X8X8X8X8X8X8X8X8X8X8X8X8X8X8X8X8X8X8X8X8X8X8X8X8X8X8X8X8X",
"8X8X8X8X8X8X8X8X8X8X8X8X8X8X8X8X8X8X8X8X8X8X8X8X8X8X8X8X8X8X8X8X8X8X8X8X8X8X8X8X8X8X8X8X8X8X8X8X8X8X8X8X8X8X8X8X8X8X8X8X8X8X8X8X",
"8X8X8X8X8X8X8X8X8X8X8X8X8X8X8X8X8X8X8X8X8X8X8X8X8X8X8X8X8X8X8X8X8X8X8X8X8X8X8X8X8X8X8X8X8X8X8X8X8X8X8X8X8X8X8X8X8X8X8X8X8X8X8X8X",
"8X8X8X8X8X8X8X8X8X8X8X8X8X8X8X8X8X8X8X8X8X8X8X8X8X8X8X8Xv.:X5X5X5X5X,X8X8X8X8X8X8X8X8X8X8X8X8X8X8X8X8X8X8X8X8X8X8X8X8X8X8X8X8X8X",
"8X8X8X8X8X8X8X8X8X8X8X8X8X8X8X8X8X8X8X8X8X8X8X8X8X+.I.oX#X#X>X6X6X6X6X5X5X8X8X8X8X8X8X8X8X8X8X8X8X8X8X8X8X8X8X8X8X8X8X8X8X8X8X8X",
"8X8X8X8X8X8X8X8X8X8X8X8X8X8X8X8X8X8X8X8X8X8X8Xq p.Z.[.V.].[.[.[.[.6X6X6X6X'.i.f 8X8X8X8X8X8X8X8X8X8X8X8X8X8X8X8X8X8X8X8X8X8X8X8X",
"8X8X8X8X8X8X8X8X8X8X8X8X8X8X8X8X8X8X8X8X8X8Xa y.[.+X[.[.P.[.[.[.[.6X6X5Xk.9 9 w u i.8X8X8X8X8X8X8X8X8X8X8X8X8X8X8X8X8X8X8X8X8X8X",
"8X8X8X8X8X8X8X8X8X8X8X8X8X8X8X8X8X8X8X8X8Xm.; ].[.[.P.X q.+ ( [.].6X6X6X9 i i w 0 w u.8X8X8X8X8X8X8X8X8X8X8X8X8X8X8X8X8X8X8X8X8X",
"8X8X8X8X8X8X8X8X8X8X8X8X8X8X8X8X8X8X8X8Xp.( ].].].[.#   q.# . b.].6X6X>Xm.B.C.C.p.w w d.8X8X8X8X8X8X8X8X8X8X8X8X8X8X8X8X8X8X8X8X",
"8X8X8X8X8X8X8X8X8X8X8X8X8X8X8X8X8X8X8Xt A.W.'.'.].].w.  o $ . w.].6X6X>Xm.B.C.Z.R.C.a i B.8X8X8X8X8X8X8X8X8X8X8X8X8X8X8X8X8X8X8X",
"8X8X8X8X8X8X8X8X8X8X8X8X8X8X8X8X8X< 8XM.Y.T.T.'.'.].'.n.O @ o P.].].OX%Xm.d.d.k.m.B.C.i p.t 8X8X8X8X8X8X8X8X8X8X8X8X8X8X8X8X8X8X",
"8X8X8X8X8X8X8X8X8X8X8X8X8X8X8X8X8X8Xs V.V.> h.T.W.'.].[.[.{.+X[.[.#X6X#Xj h u.p.p.p.s.g i { 8X8X8X8X8X8X8X8X8X8X8X8X8X8X8X8X8X8X",
"8X8X8X8X8X8X8X8X8X8X8X8X8X8X8X8X8X8XM.t M.M.J.R.V.W.].].[.[.[.].].>X6X6Xa h i.u.u.u.u.< i i.8X8X8X8X8X8X8X8X8X8X8X8X8X8X8X8X8X8X",
"8X8X8X8X8X8X8X8X8X8X8X8X8X8X8X8X8X8Xl.> : > : : V.Y.T.'.].].].].'.OX4X6Xp.j h h { j i 3 2 u., 8X8X8X8X8X8X8X8X8X8X8X8X8X8X8X8X8X",
"8X8X8X8X8X8X8X8X8X8X8X8X8X8X8X8X8X8Xj.j.l.l.M.N.V.J.Y.T.W.'.'.W.!.R./.&X!.2 3 3 6 6 4 * 2 g , 8X8X8X8X8X8X8X8X8X8X8X8X8X8X8X8X8X",
"8X8X8X8X8X8X8X8X8X8X8X8X8X8X8X8X8X8Xj.j.j.l.l.l.M.N.J.U.T.W.W.W.T.#X1X=X$X1 2 2 3 3 * % 2 i p 8X8X8X8X8X8X8X8X8X8X8X8X8X8X8X8X8X",
"8X8X8X8X8X8X8X8X8X8X8X8X8X8X8X8X8X8Xj.j.a.j.j.z.l.x.N.J.U.Y.Y.U.U.&X4X6X4X/.& * = * = & 2 i.8X8X8X8X8X8X8X8X8X8X8X8X8X8X8X8X8X8X",
"8X8X8X8X8X8X8X8X8X8X8X8X8X8X8X8X8X8Xd.j.a.a.a.a.j.z.x.x.N.V.V.V.l.L.*X1X=XOXK.8 % a 8 & 3 i.8X8X8X8X8X8X8X8X8X8X8X8X8X8X8X8X8X8X",
"8X8X8X8X8X8X8X8X8X8X8X8X8X8X8X8X8X8X8Xa.a.a.a.s.a.a.a.z.j.x.l.z.oXOX|..X.X*X&X^.@X{ { } i.8X8X8X8X8X8X8X8X8X8X8X8X8X8X8X8X8X8X8X",
"8X8X8X8X8X8X8X8X8X8X8X8X8X8X8X8X8X8X8X8Xa.a.p.a.p.a.p.a.j.a.M.1X4X<X*X4X6X6X4X1X1X=XJ.{ 8X8X8X8X8X8X8X8X8X8X8X8X8X8X8X8X8X8X8X8X",
"8X8X8X8X8X8X8X8X8X8X8X8X8X8X8X8X8X8X8X8X8XK.x.a.a.a.a.a.N.OX4X6X6X6X6X6X6X6X7X6X@X&X/.G.8X8X8X8X8X8X8X8X8X8X8X8X8X8X8X8X8X8X8X8X",
"8X8X8X8X8X8X8X8X8X8X8X8X8X8X8X8X8X8X8X8X8X8XD.D.D.L.!.D./.&X4X-X=X4X4X1X=X1X4X4X~.&X8X8X8X8X8X8X8X8X8X8X8X8X8X8X8X8X8X8X8X8X8X8X",
"8X8X8X8X8X8X8X8X8X8X8X8X8X8X8X8X8X8X8X8X8X*./ e = | ' K  .L.L.R ] (.OXS.v ..F.H 8.:.8X8X8X8X8X8X8X8X8X8X8X8X8X8X8X8X8X8X8X8X8X8X",
"8X8X8X8X8X8X8X8X8X8X8X8X8X8X8X8X8X8X8X8X8X8X) e.X.= 5 1 5 5 - P L L I ~ v z x 8.8.t.8X8X8X8X8X8X8X8X8X8X8X8X8X8X8X8X8X8X8X8X8X8X",
"8X8X8X8X8X8X8X8X8X8X8X8X8X8X8X8X8X8X8X8X8Xz.5.$.#.%.<.3.4.y w w u ` E ^ C z &.2.f u y 8X8X8X8X8X8X8X8X8X8X8X8X8X8X8X8X8X8X8X8X8X",
"8X8X8X8X8X8X8X8X8X8X8X8X8X8X8X8X8X8X8X8X8Xj.S z k l B v F 1.e.u u u i R ^ c ,.y } W.I.8X8X8X8X8X8X8X8X8X8X8X8X8X8X8X8X8X8X8X8X8X",
"8X8X8X8X8X8X8X8X8X8X8X8X8X8X8X8X8X8X8X8Xz.c.>.z Y 7 o.=.F $.7.+.u u u ` ^ Q -.d.U.'.].8X8X8X8X8X8X8X8X8X8X8X8X8X8X8X8X8X8X8X8X8X",
"8X8X8X8X8X8X8X8X8X8X8X8X8X8X8X8X8X8X8X8Xp.+.1.@.x V J T U U _ U ` P ! W C n S d.V.T.].8X8X8X8X8X8X8X8X8X8X8X8X8X8X8X8X8X8X8X8X8X",
"8X8X8X8X8X8X8X8X8X8X8X8X8X8X8X8X8X8X8X,X{.k.r 4.2.2.G A Z m m m M M M D >.9.0.c.k.U.'.P.8X8X8X8X8X8X8X8X8X8X8X8X8X8X8X8X8X8X8X8X",
"8X8X8X8X8X8X8X8X8X8X8X8X8X8X8X8X8X8X8X8X*X*X*X{.s.d e.4.4.6.2.5.7.7.5.).r.A.R.%Xa.M.Y.'.8X8X8X8X8X8X8X8X8X8X8X8X8X8X8X8X8X8X8X8X",
"8X8X8X8X8X8X8X8X8X8X8X8X8X8X8X8X8X8X8Xg.*X1X=X1X4X4X4X4X4X4X4X4X6X6X6X6X7X7X6X7XR.j.V.T.b.8X8X8X8X8X8X8X8X8X8X8X8X8X8X8X8X8X8X8X",
"8X8X8X8X8X8X8X8X8X8X8X8X8X8X8X8X8X8X8X8XXX/.=X4X1X4X4X6X6X6X6X6X6X6X7X7X7X6X4X6X4Xd.V.3X2X8X8X8X8X8X8X8X8X8X8X8X8X8X8X8X8X8X8X8X",
"8X8X8X8X8X8X8X8X8X8X8X8X8X8X8X8X8X8X8X8XoXoXXX@X/.=X4X4X&X=X6X6X6X=X1X6X6X1XOX X.X}.,X5X,X8X8X8X8X8X8X8X8X8X8X8X8X8X8X8X8X8X8X8X",
"8X8X8X8X8X8X8X8X8X8X8X8X8X8X8X8X8X8X8XH.*X-X.X^.&X X&XOX@X/.&X1X&X*X XXXOX3X6X4X4X|.:X`.8X8X8X8X8X8X8X8X8X8X8X8X8X8X8X8X8X8X8X8X",
"8X8X8X8X8X8X8X8X8X8X8X8X8X8X8X8X8X8X8X8X/. X*X1X*X=X*X1X4X1X&X&X4X6X4X6X6X6X1X6X5X^.(.G.8X8X8X8X8X8X8X8X8X8X8X8X8X8X8X8X8X8X8X8X",
"8X8X8X8X8X8X8X8X8X8X8X8X8X8X8X8X8X8X8X8XE.XXOX@XXX*X4X4X=X1X4X6X6X=X1X6X6X4X.X*X=XoX;X8X8X8X8X8X8X8X8X8X8X8X8X8X8X8X8X8X8X8X8X8X",
"8X8X8X8X8X8X8X8X8X8X8X8X8X8X8X8X8X8X8X8X|.*X/.Q..XXXOX@X^.@X&X=X=X.XOX=X=X&X-XQ.|.2X-X8X8X8X8X8X8X8X8X8X8X8X8X8X8X8X8X8X8X8X8X8X",
"8X8X8X8X8X8X8X8X8X8X8X8X8X8X8X8X8X8X8X8X8X.X&X&XoXOX.XoX$X.X^. X-X1X&X.X-X6X4X6X4X&X|.8X8X8X8X8X8X8X8X8X8X8X8X8X8X8X8X8X8X8X8X8X",
"8X8X8X8X8X8X8X8X8X8X8X8X8X8X8X8X8X8X8X8X8XH.Q. X!. X&X1X1X*X*X4X4X1X4X4X6X4X*X<X-XH.8X8X8X8X8X8X8X8X8X8X8X8X8X8X8X8X8X8X8X8X8X8X",
"8X8X8X8X8X8X8X8X8X8X8X8X8X8X8X8X8X8X8X8X8X8X8Xh.g.8X/.OXXX/.&X&X=XXX&X=X*X8Xg.E.8X8X8X8X8X8X8X8X8X8X8X8X8X8X8X8X8X8X8X8X8X8X8X8X",
"8X8X8X8X8X8X8X8X8X8X8X8X8X8X8X8X8X8X8X8X8X8X8X8X8X8Xy.z.a.z.K.Q.8Xa.a.z.z.8X8X8X8X8X8X8X8X8X8X8X8X8X8X8X8X8X8X8X8X8X8X8X8X8X8X8X",
"8X8X8X8X8X8X8X8X8X8X8X8X8X8X8X8X8X8X8X8X8X8X8X8X8X8X8Xa.s.j.f.8X8Xa.s.a.j.8X8X8X8X8X8X8X8X8X8X8X8X8X8X8X8X8X8X8X8X8X8X8X8X8X8X8X",
"8X8X8X8X8X8X8X8X8X8X8X8X8X8X8X8X8X8X8X8X8X8X8X8X8X8X8Xj.a.M.I.8X8Xj.s.s.j.8X8X8X8X8X8X8X8X8X8X8X8X8X8X8X8X8X8X8X8X8X8X8X8X8X8X8X",
"8X8X8X8X8X8X8X8X8X8X8X8X8X8X8X8X8X8X8X8X8X8X8X8X8X8X`.:X5X2X_.8X8Xa.s.j.V.8X8X8X8X8X8X8X8X8X8X8X8X8X8X8X8X8X8X8X8X8X8X8X8X8X8X8X",
"8X8X8X8X8X8X8X8X8X8X8X8X8X8X8X8X8X8X8X8X8X8X8X8X8X8X8X8X8X8X8X8X8X:X%X>X,X8X8X8X8X8X8X8X8X8X8X8X8X8X8X8X8X8X8X8X8X8X8X8X8X8X8X8X",
"8X8X8X8X8X8X8X8X8X8X8X8X8X8X8X8X8X8X8X8X8X8X8X8X8X8X8X8X8X8X8X8X8X`.2X2X8X8X8X8X8X8X8X8X8X8X8X8X8X8X8X8X8X8X8X8X8X8X8X8X8X8X8X8X",
"8X8X8X8X8X8X8X8X8X8X8X8X8X8X8X8X8X8X8X8X8X8X8X8X8X8X8X8X8X8X8X8X8X8X8X8X8X8X8X8X8X8X8X8X8X8X8X8X8X8X8X8X8X8X8X8X8X8X8X8X8X8X8X8X",
"8X8X8X8X8X8X8X8X8X8X8X8X8X8X8X8X8X8X8X8X8X8X8X8X8X8X8X8X8X8X8X8X8X8X8X8X8X8X8X8X8X8X8X8X8X8X8X8X8X8X8X8X8X8X8X8X8X8X8X8X8X8X8X8X",
"8X8X8X8X8X8X8X8X8X8X8X8X8X8X8X8X8X8X8X8X8X8X8X8X8X8X8X8X8X8X8X8X8X8X8X8X8X8X8X8X8X8X8X8X8X8X8X8X8X8X8X8X8X8X8X8X8X8X8X8X8X8X8X8X",
"8X8X8X8X8X8X8X8X8X8X8X8X8X8X8X8X8X8X8X8X8X8X8X8X8X8X8X8X8X8X8X8X8X8X8X8X8X8X8X8X8X8X8X8X8X8X8X8X8X8X8X8X8X8X8X8X8X8X8X8X8X8X8X8X",
"8X8X8X8X8X8X8X8X8X8X8X8X8X8X8X8X8X8X8X8X8X8X8X8X8X8X8X8X8X8X8X8X8X8X8X8X8X8X8X8X8X8X8X8X8X8X8X8X8X8X8X8X8X8X8X8X8X8X8X8X8X8X8X8X",
"8X8X8X8X8X8X8X8X8X8X8X8X8X8X8X8X8X8X8X8X8X8X8X8X8X8X8X8X8X8X8X8X8X8X8X8X8X8X8X8X8X8X8X8X8X8X8X8X8X8X8X8X8X8X8X8X8X8X8X8X8X8X8X8X",
"8X8X8X8X8X8X8X8X8X8X8X8X8X8X8X8X8X8X8X8X8X8X8X8X8X8X8X8X8X8X8X8X8X8X8X8X8X8X8X8X8X8X8X8X8X8X8X8X8X8X8X8X8X8X8X8X8X8X8X8X8X8X8X8X",
"8X8X8X8X8X8X8X8X8X8X8X8X8X8X8X8X8X8X8X8X8X8X8X8X8X8X8X8X8X8X8X8X8X8X8X8X8X8X8X8X8X8X8X8X8X8X8X8X8X8X8X8X8X8X8X8X8X8X8X8X8X8X8X8X",
"8X8X8X8X8X8X8X8X8X8X8X8X8X8X8X8X8X8X8X8X8X8X8X8X8X8X8X8X8X8X8X8X8X8X8X8X8X8X8X8X8X8X8X8X8X8X8X8X8X8X8X8X8X8X8X8X8X8X8X8X8X8X8X8X",
"8X8X8X8X8X8X8X8X8X8X8X8X8X8X8X8X8X8X8X8X8X8X8X8X8X8X8X8X8X8X8X8X8X8X8X8X8X8X8X8X8X8X8X8X8X8X8X8X8X8X8X8X8X8X8X8X8X8X8X8X8X8X8X8X"
};
