/* XPM */
static char *result[] = {
/* columns rows colors chars-per-pixel */
"64 64 211 2 ",
"   c #1F2221",
".  c #212322",
"X  c #2D2A28",
"o  c #30302E",
"O  c #383431",
"+  c #403F3E",
"@  c #575653",
"#  c #584E49",
"$  c #6E6A68",
"%  c #EB3C38",
"&  c #EA3A36",
"*  c #F23E3A",
"=  c #F24B3E",
"-  c #F17A37",
";  c #8F7D78",
":  c #B16763",
">  c #BB776F",
",  c #CB524D",
"<  c #D85653",
"1  c #EB4948",
"2  c #FD4641",
"3  c #FF4E49",
"4  c #FA4A46",
"5  c #EC5244",
"6  c #FE524D",
"7  c #FE5F49",
"8  c #EE5D56",
"9  c #FF5A55",
"0  c #FF5F59",
"q  c #F35B56",
"w  c #FE625C",
"e  c #FA654A",
"r  c #C95E73",
"t  c #CE716A",
"y  c #EE6566",
"u  c #FF6561",
"i  c #FD6A65",
"p  c #F46865",
"a  c #FC716C",
"s  c #FC796E",
"d  c #E06F7D",
"f  c #E77677",
"g  c #FC7C75",
"h  c #FF7F79",
"j  c #FE7771",
"k  c #5EB915",
"l  c #7BAB19",
"z  c #14CA09",
"x  c #1DDB19",
"c  c #19CD14",
"v  c #26D013",
"b  c #1EE31C",
"n  c #21F514",
"m  c #1BDC2D",
"M  c #1EE72B",
"N  c #3BEC39",
"B  c #54CC17",
"V  c #68CD15",
"C  c #67E815",
"Z  c #1ECF4D",
"A  c #1FCC5A",
"S  c #32DB52",
"D  c #22E356",
"F  c #1EC373",
"G  c #21C970",
"H  c #60EE5D",
"J  c #B1BE1C",
"K  c #D2991C",
"L  c #DDA70B",
"P  c #F5BB1C",
"I  c #E6AE0F",
"U  c #F69438",
"Y  c #C7A52A",
"T  c #EFA12C",
"R  c #FEB133",
"E  c #FDB426",
"W  c #A0DD16",
"Q  c #92E31D",
"!  c #DBC719",
"~  c #F9D11D",
"^  c #FDD527",
"/  c #B5B345",
"(  c #9B8378",
")  c #AB8973",
"_  c #FB8A44",
"`  c #FD9143",
"'  c #E69B56",
"]  c #E4B746",
"[  c #CB827D",
"{  c #FC827C",
"}  c #F3867D",
"|  c #EB9E67",
" . c #E7BE65",
".. c #97D16B",
"X. c #9A688E",
"o. c #BC738D",
"O. c #887EAD",
"+. c #DB7B92",
"@. c #1FB19D",
"#. c #1AA98A",
"$. c #24BB9F",
"%. c #1B95B7",
"&. c #27BAAD",
"*. c #519B9F",
"=. c #4DB184",
"-. c #5680A6",
";. c #7786BC",
":. c #5FB3B8",
">. c #2AD092",
",. c #2090D9",
"<. c #208DC3",
"1. c #30A0E9",
"2. c #30AEF2",
"3. c #4B94D5",
"4. c #6D96CF",
"5. c #6AA6D9",
"6. c #56A4E5",
"7. c #4CAFEC",
"8. c #35C7F9",
"9. c #32CCEB",
"0. c #41C8F7",
"q. c #969592",
"w. c #A49086",
"e. c #918EB9",
"r. c #B99BB1",
"t. c #A6A0B6",
"y. c #D1998A",
"u. c #FD8B83",
"i. c #FA8781",
"p. c #FE958A",
"a. c #FC9C8C",
"s. c #F79589",
"d. c #FD9D91",
"f. c #EB9889",
"g. c #CCAA8E",
"h. c #D5AF96",
"j. c #FDA494",
"k. c #FDA59C",
"l. c #FEAC9B",
"z. c #F9A896",
"x. c #FEB09E",
"c. c #D5A2A7",
"v. c #CABEAF",
"b. c #DDBCAD",
"n. c #C6B7AF",
"m. c #FBABA5",
"M. c #FEB5A3",
"N. c #FFB9A7",
"B. c #FEB5AC",
"V. c #FDBCAA",
"C. c #FFBCB4",
"Z. c #FFBFB8",
"A. c #EFB5A5",
"S. c #C7DE90",
"D. c #ECD298",
"F. c #C9E69D",
"G. c #D4C6AF",
"H. c #E3C9A8",
"J. c #FFC0AD",
"K. c #F7C8A5",
"L. c #F6D9A8",
"P. c #ECCDBD",
"I. c #E7C5B7",
"U. c #FFC5B2",
"Y. c #FFC9B6",
"T. c #FFCDBB",
"R. c #FBC3B7",
"E. c #EBD9B6",
"W. c #FED1BE",
"Q. c #F4DCB8",
"!. c #FAD9B7",
"~. c #DBEAA8",
"^. c #F5E3BC",
"/. c #FAE4BD",
"(. c #F7E1B4",
"). c #8AA4C7",
"_. c #D2D0CD",
"`. c #DDD5D0",
"'. c #FED5C3",
"]. c #FFD9C6",
"[. c #FFDCCA",
"{. c #F6D7C7",
"}. c #F0D5CC",
"|. c #F4E6C4",
" X c #FBE6C2",
".X c #F6E9C5",
"XX c #FCEAC3",
"oX c #F5EACC",
"OX c #FCEDCB",
"+X c #F9E5CC",
"@X c #FEF1CD",
"#X c #FEE4D4",
"$X c #FAECD3",
"%X c #FAE8DA",
"&X c #FDF3D4",
"*X c #FCF4DB",
"=X c #FFF9DD",
"-X c #F7F0D5",
";X c #EBE1C8",
":X c #EBE8E4",
">X c #FCECE3",
",X c #F1EEEA",
"<X c #FDF4E4",
"1X c #FFFBE4",
"2X c #F3F1EE",
"3X c #FDF5EA",
"4X c #FFFDEC",
"5X c #F6F5F2",
"6X c #FEFDF4",
"7X c #FFFFFA",
"8X c None",
/* pixels */
"8X8X8X8X8X8X8X8X8X8X8X8X8X8X8X8X8X8X8X8X8X8X8X8X8X8X8X8X8X8X8X8X8X8X8X8X8X8X8X8X8X8X8X8X8X8X8X8X8X8X8X8X8X8X8X8X8X8X8X8X8X8X8X8X",
"8X8X8X8X8X8X8X8X8X8X8X8X8X8X8X8X8X8X8X8X8X8X8X8X8X8X8X8X8X8X8X8X8X8X8X8X8X8X8X8X8X8X8X8X8X8X8X8X8X8X8X8X8X8X8X8X8X8X8X8X8X8X8X8X",
"8X8X8X8X8X8X8X8X8X8X8X8X8X8X8X8X8X8X8X8X8X8X8X8X8X8X8X8X8X8X8X8X8X8X8X8X8X8X8X8X8X8X8X8X8X8X8X8X8X8X8X8X8X8X8X8X8X8X8X8X8X8X8X8X",
"8X8X8X8X8X8X8X8X8X8X8X8X8X8X8X8X8X8X8X8X8X8X8X8X8X8X8X8X8X8X8X8X8X8X8X8X8X8X8X8X8X8X8X8X8X8X8X8X8X8X8X8X8X8X8X8X8X8X8X8X8X8X8X8X",
"8X8X8X8X8X8X8X8X8X8X8X8X8X8X8X8X8X8X8X8X8X8X8X8X8X8X8X8X8X8X8X8X8X8X8X8X8X8X8X8X8X8X8X8X8X8X8X8X8X8X8X8X8X8X8X8X8X8X8X8X8X8X8X8X",
"8X8X8X8X8X8X8X8X8X8X8X8X8X8X8X8X8X8X8X8X8X8X8X8X8X8X8X8X8X8X8X8X8X8X8X8X8X8X8X8X8X8X8X8X8X8X8X8X8X8X8X8X8X8X8X8X8X8X8X8X8X8X8X8X",
"8X8X8X8X8X8X8X8X8X8X8X8X8X8X8X8X8X8X8X8X8X8X8X8X8X8X8X8X8X8X8X8X8X8X8X8X8X8X8X8X8X8X8X8X8X8X8X8X8X8X8X8X8X8X8X8X8X8X8X8X8X8X8X8X",
"8X8X8X8X8X8X8X8X8X8X8X8X8X8X8X8X8X8X8X8X8X8X8X8X8X8X8X8X8X8X8X8X8X8X8X8X8X8X8X8X8X8X8X8X8X8X8X8X8X8X8X8X8X8X8X8X8X8X8X8X8X8X8X8X",
"8X8X8X8X8X8X8X8X8X8X8X8X8X8X8X8X8X8X8X8X8X8X8X8X8X8X8X8X8X8X8X8X8X8X8X8X8X8X8X8X8X8X8X8X8X8X8X8X8X8X8X8X8X8X8X8X8X8X8X8X8X8X8X8X",
"8X8X8X8X8X8X8X8X8X8X8X8X8X8X8X8X8X8X8X8X8X8X8X8X8X8X8X8X8X8X8X8X8X8X8X8X8X8X8X8X8X8X8X8X8X8X8X8X8X8X8X8X8X8X8X8X8X8X8X8X8X8X8X8X",
"8X8X8X8X8X8X8X8X8X8X8X8X8X8X8X8X8X8X8X8X8X8X8X8X8X8X8X8X8X8X8X8X8X8X8X8X8X8X8X8X8X8X8X8X8X8X8X8X8X8X8X8X8X8X8X8X8X8X8X8X8X8X8X8X",
"8X8X8X8X8X8X8X8X8X8X8X8X8X8X8X8X8X8X8X8X8X8X8X8X8X8X8X8X8X,X5X5X5X5X:Xv.8X8X8X8X8X8X8X8X8X8X8X8X8X8X8X8X8X8X8X8X8X8X8X8X8X8X8X8X",
"8X8X8X8X8X8X8X8X8X8X8X8X8X8X8X8X8X8X8X8X8X8X8X8X8X8X8X5X5X6X6X7X7X3X%X#X#X}.[ 8X8X8X8X8X8X8X8X8X8X8X8X8X8X8X8X8X8X8X8X8X8X8X8X8X",
"8X8X8X8X8X8X8X8X8X8X8X8X8X8X8X8X8X8X8X8X8X8X8X8Xf i.'.6X6X6X6X[.[.[.[.'.V.[.R.u.q 8X8X8X8X8X8X8X8X8X8X8X8X8X8X8X8X8X8X8X8X8X8X8X",
"8X8X8X8X8X8X8X8X8X8X8X8X8X8X8X8X8X8X8X8X8X8Xi.u 0 9 9 k.6X6X6X].[.[.[.P.].[.[.[.y.a 8X8X8X8X8X8X8X8X8X8X8X8X8X8X8X8X8X8X8X8X8X8X",
"8X8X8X8X8X8X8X8X8X8X8X8X8X8X8X8X8X8X8X8X8Xu.0 0 w i i 9 5X6X6X].[.; + q.X P.[.[.[.; k.8X8X8X8X8X8X8X8X8X8X8X8X8X8X8X8X8X8X8X8X8X",
"8X8X8X8X8X8X8X8X8X8X8X8X8X8X8X8X8X8X8X8Xd.w w p.C.C.B.m.3X6X6X].b.  @ q.  # [.].].'.( s.8X8X8X8X8X8X8X8X8X8X8X8X8X8X8X8X8X8X8X8X",
"8X8X8X8X8X8X8X8X8X8X8X8X8X8X8X8X8X8X8XB.i a C.R.Z.C.B.m.>X6X4X].w.  $ o   w.[.].'.'.'.A.t 8X8X8X8X8X8X8X8X8X8X8X8X8X8X8X8X8X8X8X",
"8X8X8X8X8X8X8X8X8X8X8X8X8X8X8X8X8X8Xt a.i C.B.m.k.d.d.k.%X+X].[.P.X @ O n.'.].'.'.T.Y.Y.M.8X< 8X8X8X8X8X8X8X8X8X8X8X8X8X8X8X8X8X",
"8X8X8X8X8X8X8X8X8X8X8X8X8X8X8X8X8X8X{ u g p.p.p.p.u.h h #X6X#X].].[.[.[.[.].].W.T.h.) V.V.s 8X8X8X8X8X8X8X8X8X8X8X8X8X8X8X8X8X8X",
"8X8X8X8X8X8X8X8X8X8X8X8X8X8X8X8X8X8Xi.u < u.u.p.u.{ h s 6X6X<X].].].[.[.].'.W.V.C.V.m.l.t x.8X8X8X8X8X8X8X8X8X8X8X8X8X8X8X8X8X8X",
"8X8X8X8X8X8X8X8X8X8X8X8X8X8X8X8X8X, u.2 4 u j { { h j u.6X4XOX'.].].].].'.T.Y.V.: : ) : > l.8X8X8X8X8X8X8X8X8X8X8X8X8X8X8X8X8X8X",
"8X8X8X8X8X8X8X8X8X8X8X8X8X8X8X8X8X, g 2 * 3 6 3 3 3 4 !.&X/.U.W.'.'.'.W.T.Y.J.J.N.N.l.k.z.j.8X8X8X8X8X8X8X8X8X8X8X8X8X8X8X8X8X8X",
"8X8X8X8X8X8X8X8X8X8X8X8X8X8X8X8X8Xp i 2 % * 3 3 2 2 1 -X=X1X#XW.W.W.W.T.U.J.N.M.l.l.k.j.j.z.8X8X8X8X8X8X8X8X8X8X8X8X8X8X8X8X8X8X",
"8X8X8X8X8X8X8X8X8X8X8X8X8X8X8X8X8X8Xu.2 & = * % * % /.6X4X4X&XU.U.U.Y.U.J.N.x.l.j.j.j.a.j.j.8X8X8X8X8X8X8X8X8X8X8X8X8X8X8X8X8X8X",
"8X8X8X8X8X8X8X8X8X8X8X8X8X8X8X8X8X8X} 6 & 8 a % 8 K.XX=X1X=XL.l.V.V.V.N.x.x.l.d.a.a.a.a.j.j.8X8X8X8X8X8X8X8X8X8X8X8X8X8X8X8X8X8X",
"8X8X8X8X8X8X8X8X8X8X8X8X8X8X8X8X8X8X8Xi.{ } { @X^.&X*X.X.X^.$X+Xz.l.l.k.j.j.a.a.p.a.a.a.a.8X8X8X8X8X8X8X8X8X8X8X8X8X8X8X8X8X8X8X",
"8X8X8X8X8X8X8X8X8X8X8X8X8X8X8X8X8X8X8X8X{ U.=X1X1X4X6X7X4X*X1X4X1XM.j.a.a.p.p.p.p.a.a.d.8X8X8X8X8X8X8X8X8X8X8X8X8X8X8X8X8X8X8X8X",
"8X8X8X8X8X8X8X8X8X8X8X8X8X8X8X8X8X8X8X8XG./.&X@X6X7X7X6X7X6X6X6X6X4X+XV.a.a.a.a.d.l.K.8X8X8X8X8X8X8X8X8X8X8X8X8X8X8X8X8X8X8X8X8X",
"8X8X8X8X8X8X8X8X8X8X8X8X8X8X8X8X8X8X8X8X8X8X&X~.1X4X1X=X1X4X1X&X&X1X*X/.D.L.L.D.D.D.8X8X8X8X8X8X8X8X8X8X8X8X8X8X8X8X8X8X8X8X8X8X",
"8X8X8X8X8X8X8X8X8X8X8X8X8X8X8X8X8X8X8X8X8X8X:.8.H F...v S.@X(.] ] L.L. .K ' | = e / *.8X8X8X8X8X8X8X8X8X8X8X8X8X8X8X8X8X8X8X8X8X",
"8X8X8X8X8X8X8X8X8X8X8X8X8X8X8X8X8X8X8X8X8X8Xt.8.8.x z v ~ I L I P - 5 5 5 1 5 X.e.) 8X8X8X8X8X8X8X8X8X8X8X8X8X8X8X8X8X8X8X8X8X8X",
"8X8X8X8X8X8X8X8X8X8X8X8X8X8X8X8X8X8X8X8X8Xy u f 2.&.z C ^ E _ u w w y ;.3.%.%.#.$.6.j.8X8X8X8X8X8X8X8X8X8X8X8X8X8X8X8X8X8X8X8X8X",
"8X8X8X8X8X8X8X8X8X8X8X8X8X8X8X8X8X8X8X8X8XI.T.} y ,.c ^ R u u u u e.1.G x B l k z S j.8X8X8X8X8X8X8X8X8X8X8X8X8X8X8X8X8X8X8X8X8X",
"8X8X8X8X8X8X8X8X8X8X8X8X8X8X8X8X8X8X8X8X8X].'.U.d.-.Q ^ ` u u u +.7.&.F =.o.7 Y c >.c.k.8X8X8X8X8X8X8X8X8X8X8X8X8X8X8X8X8X8X8X8X",
"8X8X8X8X8X8X8X8X8X8X8X8X8X8X8X8X8X8X8X8X8X].T.V.j.S n C W ! P ` U _ U U T J V x @.1.d d.8X8X8X8X8X8X8X8X8X8X8X8X8X8X8X8X8X8X8X8X",
"8X8X8X8X8X8X8X8X8X8X8X8X8X8X8X8X8X8X8X8XW.'.U.z.c.0.9.>.D b M M m m x Z A G 2.2.4.r z.{.2X8X8X8X8X8X8X8X8X8X8X8X8X8X8X8X8X8X8X8X",
"8X8X8X8X8X8X8X8X8X8X8X8X8X8X8X8X8X8X8X8XW.T.M.a.$XY.m.r.).5.7.7.5.2.6.4.4.e.d f.W.*X*X*X8X8X8X8X8X8X8X8X8X8X8X8X8X8X8X8X8X8X8X8X",
"8X8X8X8X8X8X8X8X8X8X8X8X8X8X8X8X8X8X8Xb.W.V.j.R.7X7X7X7X6X7X6X6X3X3X4X4X4X4X4X4X1X=X<X*Xg.8X8X8X8X8X8X8X8X8X8X8X8X8X8X8X8X8X8X8X",
"8X8X8X8X8X8X8X8X8X8X8X8X8X8X8X8X8X8X8X,X2XB.d.4X4X4X7X7X7X7X6X7X7X7X6X6X6X4X4X1X4X=X/.OX8X8X8X8X8X8X8X8X8X8X8X8X8X8X8X8X8X8X8X8X",
"8X8X8X8X8X8X8X8X8X8X8X8X8X8X8X8X8X8X8X,X5X,X{.oX/.oX1X6X6X1X=X6X7X6X1X&X4X4X=X/.&XXX.X.X8X8X8X8X8X8X8X8X8X8X8X8X8X8X8X8X8X8X8X8X",
"8X8X8X8X8X8X8X8X8X8X8X8X8X8X8X8X8X8X8X8X`.:X|.4X6X6X<XOX XXX&X&X1X&X/.@XOX@X/.&X/..X&X*XH.8X8X8X8X8X8X8X8X8X8X8X8X8X8X8X8X8X8X8X",
"8X8X8X8X8X8X8X8X8X8X8X8X8X8X8X8X8X8X8X8Xv.^.^.4X6X1X6X6X4X4X4X6X&X&X1X4X1X*X1X*X1X*X X^.8X8X8X8X8X8X8X8X8X8X8X8X8X8X8X8X8X8X8X8X",
"8X8X8X8X8X8X8X8X8X8X8X8X8X8X8X8X8X8X8X8X8X;XoX*X*X.X4X6X6X4X=X6X6X4X1X=X4X4X*XXX@XOXXXE.8X8X8X8X8X8X8X8X8X8X8X8X8X8X8X8X8X8X8X8X",
"8X8X8X8X8X8X8X8X8X8X8X8X8X8X8X8X8X8X8X8X8X-X2X|.^.-X*X=X&X@X/.=X=X&XOX^.@X@XXX.X(.^.*X|.8X8X8X8X8X8X8X8X8X8X8X8X8X8X8X8X8X8X8X8X",
"8X8X8X8X8X8X8X8X8X8X8X8X8X8X8X8X8X8X8X8X8X|.-X4X4X6X6X-X.X&X4X-X.X/..XOXoX^.oXoX$X&XOX8X8X8X8X8X8X8X8X8X8X8X8X8X8X8X8X8X8X8X8X8X",
"8X8X8X8X8X8X8X8X8X8X8X8X8X8X8X8X8X8X8X8X8X8XH.*X<X*X4X6X4X4X1X4X1X*X*X1X1X&X X!. X/.H.8X8X8X8X8X8X8X8X8X8X8X8X8X8X8X8X8X8X8X8X8X",
"8X8X8X8X8X8X8X8X8X8X8X8X8X8X8X8X8X8X8X8X8X8X8X8XE.g.8X*X=X&XXX=X=X&XXXXXOX/.8Xg.h.8X8X8X8X8X8X8X8X8X8X8X8X8X8X8X8X8X8X8X8X8X8X8X",
"8X8X8X8X8X8X8X8X8X8X8X8X8X8X8X8X8X8X8X8X8X8X8X8X8X8X8Xz.z.a.a.8XE.K.z.j.z.y.8X8X8X8X8X8X8X8X8X8X8X8X8X8X8X8X8X8X8X8X8X8X8X8X8X8X",
"8X8X8X8X8X8X8X8X8X8X8X8X8X8X8X8X8X8X8X8X8X8X8X8X8X8X8Xj.a.s.j.8X8Xf.j.s.a.8X8X8X8X8X8X8X8X8X8X8X8X8X8X8X8X8X8X8X8X8X8X8X8X8X8X8X",
"8X8X8X8X8X8X8X8X8X8X8X8X8X8X8X8X8X8X8X8X8X8X8X8X8X8X8Xz.s.s.a.8X8XI.x.a.j.8X8X8X8X8X8X8X8X8X8X8X8X8X8X8X8X8X8X8X8X8X8X8X8X8X8X8X",
"8X8X8X8X8X8X8X8X8X8X8X8X8X8X8X8X8X8X8X8X8X8X8X8X8X8X8XN.j.a.a.8X8X_.2X5X:X`.8X8X8X8X8X8X8X8X8X8X8X8X8X8X8X8X8X8X8X8X8X8X8X8X8X8X",
"8X8X8X8X8X8X8X8X8X8X8X8X8X8X8X8X8X8X8X8X8X8X8X8X8X8X8X,X>X%X:X8X8X8X8X8X8X8X8X8X8X8X8X8X8X8X8X8X8X8X8X8X8X8X8X8X8X8X8X8X8X8X8X8X",
"8X8X8X8X8X8X8X8X8X8X8X8X8X8X8X8X8X8X8X8X8X8X8X8X8X8X8X8X5X5X`.8X8X8X8X8X8X8X8X8X8X8X8X8X8X8X8X8X8X8X8X8X8X8X8X8X8X8X8X8X8X8X8X8X",
"8X8X8X8X8X8X8X8X8X8X8X8X8X8X8X8X8X8X8X8X8X8X8X8X8X8X8X8X8X8X8X8X8X8X8X8X8X8X8X8X8X8X8X8X8X8X8X8X8X8X8X8X8X8X8X8X8X8X8X8X8X8X8X8X",
"8X8X8X8X8X8X8X8X8X8X8X8X8X8X8X8X8X8X8X8X8X8X8X8X8X8X8X8X8X8X8X8X8X8X8X8X8X8X8X8X8X8X8X8X8X8X8X8X8X8X8X8X8X8X8X8X8X8X8X8X8X8X8X8X",
"8X8X8X8X8X8X8X8X8X8X8X8X8X8X8X8X8X8X8X8X8X8X8X8X8X8X8X8X8X8X8X8X8X8X8X8X8X8X8X8X8X8X8X8X8X8X8X8X8X8X8X8X8X8X8X8X8X8X8X8X8X8X8X8X",
"8X8X8X8X8X8X8X8X8X8X8X8X8X8X8X8X8X8X8X8X8X8X8X8X8X8X8X8X8X8X8X8X8X8X8X8X8X8X8X8X8X8X8X8X8X8X8X8X8X8X8X8X8X8X8X8X8X8X8X8X8X8X8X8X",
"8X8X8X8X8X8X8X8X8X8X8X8X8X8X8X8X8X8X8X8X8X8X8X8X8X8X8X8X8X8X8X8X8X8X8X8X8X8X8X8X8X8X8X8X8X8X8X8X8X8X8X8X8X8X8X8X8X8X8X8X8X8X8X8X",
"8X8X8X8X8X8X8X8X8X8X8X8X8X8X8X8X8X8X8X8X8X8X8X8X8X8X8X8X8X8X8X8X8X8X8X8X8X8X8X8X8X8X8X8X8X8X8X8X8X8X8X8X8X8X8X8X8X8X8X8X8X8X8X8X",
"8X8X8X8X8X8X8X8X8X8X8X8X8X8X8X8X8X8X8X8X8X8X8X8X8X8X8X8X8X8X8X8X8X8X8X8X8X8X8X8X8X8X8X8X8X8X8X8X8X8X8X8X8X8X8X8X8X8X8X8X8X8X8X8X",
"8X8X8X8X8X8X8X8X8X8X8X8X8X8X8X8X8X8X8X8X8X8X8X8X8X8X8X8X8X8X8X8X8X8X8X8X8X8X8X8X8X8X8X8X8X8X8X8X8X8X8X8X8X8X8X8X8X8X8X8X8X8X8X8X",
"8X8X8X8X8X8X8X8X8X8X8X8X8X8X8X8X8X8X8X8X8X8X8X8X8X8X8X8X8X8X8X8X8X8X8X8X8X8X8X8X8X8X8X8X8X8X8X8X8X8X8X8X8X8X8X8X8X8X8X8X8X8X8X8X",
"8X8X8X8X8X8X8X8X8X8X8X8X8X8X8X8X8X8X8X8X8X8X8X8X8X8X8X8X8X8X8X8X8X8X8X8X8X8X8X8X8X8X8X8X8X8X8X8X8X8X8X8X8X8X8X8X8X8X8X8X8X8X8X8X"
};
