/* XPM */
static char *result[] = {
/* columns rows colors chars-per-pixel */
"64 64 238 2 ",
"   c #1C1C1B",
".  c #151817",
"X  c #1D211F",
"o  c #1D2220",
"O  c #232523",
"+  c #343633",
"@  c #4F3A35",
"#  c #35423C",
"$  c #50504D",
"%  c #705C54",
"&  c #787978",
"*  c #616160",
"=  c #5F5779",
"-  c #BD3838",
";  c #BD2826",
":  c #C93938",
">  c #DA3936",
",  c #E43533",
"<  c #E93A37",
"1  c #F03C39",
"2  c #AC790A",
"3  c #B07618",
"4  c #BE4033",
"5  c #CF4737",
"6  c #F7423D",
"7  c #DD6836",
"8  c #98504F",
"9  c #BA5E5F",
"0  c #AE635E",
"q  c #864D64",
"w  c #9E756A",
"e  c #B26C69",
"r  c #D94A4A",
"t  c #CF4E55",
"y  c #EA4745",
"u  c #FC4642",
"i  c #FE4A45",
"p  c #FE4E49",
"a  c #F54845",
"s  c #FE534D",
"d  c #EC5D5B",
"f  c #FF5A55",
"g  c #FE5E5B",
"h  c #F85956",
"j  c #E2554F",
"k  c #DF605E",
"l  c #F56744",
"z  c #FF635E",
"x  c #F46952",
"c  c #E45C67",
"v  c #D66469",
"b  c #CB6978",
"n  c #CF7271",
"m  c #E96768",
"M  c #FE6561",
"N  c #FF6A65",
"B  c #F66869",
"V  c #FE736E",
"C  c #F46974",
"Z  c #E57774",
"A  c #FC7B75",
"S  c #E96974",
"D  c #DA5C62",
"F  c #099906",
"G  c #0E9519",
"H  c #13B70C",
"J  c #0EA306",
"K  c #21A006",
"L  c #0D942A",
"P  c #2AB22D",
"I  c #779314",
"U  c #6FA719",
"Y  c #17CC13",
"T  c #25CB0C",
"R  c #1BEC10",
"E  c #2DEE19",
"W  c #19CB2A",
"Q  c #27FC33",
"!  c #51CB0D",
"~  c #56F626",
"^  c #65F322",
"/  c #119154",
"(  c #21B976",
")  c #1DC74F",
"_  c #958708",
"`  c #B78B15",
"'  c #B9902D",
"]  c #8CAC0A",
"[  c #C9B20D",
"{  c #E6A917",
"}  c #CF942A",
"|  c #F38F2E",
" . c #F2B333",
".. c #D8A029",
"X. c #FBCA38",
"o. c #D7C21B",
"O. c #AD8578",
"+. c #D3A851",
"@. c #F6AB54",
"#. c #CB8479",
"$. c #DD877F",
"%. c #E88C7E",
"&. c #FE837C",
"*. c #E4A463",
"=. c #BBF251",
"-. c #FBCB53",
";. c #FAE664",
":. c #DDD45E",
">. c #177596",
",. c #2D689B",
"<. c #1B7BBA",
"1. c #2B79B6",
"2. c #2B73AA",
"3. c #5078B2",
"4. c #247DC1",
"5. c #996B96",
"6. c #A37998",
"7. c #D27586",
"8. c #27BE9D",
"9. c #1A81B4",
"0. c #2DABB9",
"q. c #168488",
"w. c #66A598",
"e. c #28E08B",
"r. c #5AD288",
"t. c #1A84CA",
"y. c #1B8CD9",
"u. c #2897D8",
"i. c #2991D0",
"p. c #29AEC4",
"a. c #339EE7",
"s. c #2DAAE9",
"d. c #35B4F9",
"f. c #539AD1",
"g. c #5FA9D7",
"h. c #34D3F7",
"j. c #35DBDB",
"k. c #9E9891",
"l. c #BBAF96",
"z. c #898AB3",
"x. c #AF95A6",
"c. c #D19487",
"v. c #EB8B85",
"b. c #FE8C85",
"n. c #FE8E8A",
"m. c #FA8782",
"M. c #EF9182",
"N. c #E49384",
"B. c #F49485",
"V. c #FA9486",
"C. c #FE948B",
"Z. c #F49A8A",
"A. c #FC9B8C",
"S. c #F6958A",
"D. c #FD9B94",
"F. c #FF9F99",
"G. c #E99E98",
"H. c #D7A695",
"J. c #FCA08E",
"K. c #E9A997",
"L. c #FEA493",
"P. c #FEA997",
"I. c #FFAC9A",
"U. c #F9A497",
"Y. c #FFB19E",
"T. c #F3B89A",
"R. c #E7AF90",
"E. c #CBABAB",
"W. c #FEABA3",
"Q. c #FDAEAC",
"!. c #FEB4A3",
"~. c #FEB9A6",
"^. c #FEBDAA",
"/. c #FBB6AA",
"(. c #FFBBB4",
"). c #BCF3AE",
"_. c #E8C79A",
"`. c #EFCD85",
"'. c #CEC8B2",
"]. c #EECBA4",
"[. c #FFC2AE",
"{. c #F8C8A7",
"}. c #E9D6AB",
"|. c #FAD8AE",
" X c #F6D7AC",
".X c #FEC5B3",
"XX c #FFCAB6",
"oX c #FFCDBA",
"OX c #F8C4B9",
"+X c #EADDB8",
"@X c #F5DDB3",
"#X c #FBDDB4",
"$X c #FFD1BD",
"%X c #F5DDB8",
"&X c #F3E3BC",
"*X c #FCE4BB",
"=X c #FBE5B9",
"-X c #8598C6",
";X c #BCD9CF",
":X c #CCC7C5",
">X c #DEDECC",
",X c #D8D1CD",
"<X c #DDD9D8",
"1X c #D1C6C3",
"2X c #FACBC4",
"3X c #EAD6C5",
"4X c #FED5C2",
"5X c #FEDAC6",
"6X c #FEDDCB",
"7X c #F6DBC5",
"8X c #EED4D2",
"9X c #FCE6C2",
"0X c #FDEBC5",
"qX c #FDE2CD",
"wX c #F6EACC",
"eX c #FCECCC",
"rX c #F4E6C7",
"tX c #FEF1CD",
"yX c #FEF0C6",
"uX c #E6E5D9",
"iX c #FFE5D3",
"pX c #FBEDD4",
"aX c #F9EBD7",
"sX c #FDF3D4",
"dX c #F5F4DD",
"fX c #FCF4DC",
"gX c #FDF9DD",
"hX c #E9E6C9",
"jX c #ECE8E6",
"kX c #FAECE7",
"lX c #FFF5E3",
"zX c #FEFBE3",
"xX c #FEFCEB",
"cX c #F7F4E9",
"vX c #FEFDF3",
"bX c #FFFFFB",
"nX c #F6F3F2",
"mX c None",
/* pixels */
"mXmXmXmXmXmXmXmXmXmXmXmXmXmXmXmXmXmXmXmXmXmXmXmXmXmXmXmXmXmXmXmXmXmXmXmXmXmXmXmXmXmXmXmXmXmXmXmXmXmXmXmXmXmXmXmXmXmXmXmXmXmXmXmX",
"mXmXmXmXmXmXmXmXmXmXmXmXmXmXmXmXmXmXmXmXmXmXmXmXmXmXmXmXmXmXmXmXmXmXmXmXmXmXmXmXmXmXmXmXmXmXmXmXmXmXmXmXmXmXmXmXmXmXmXmXmXmXmXmX",
"mXmXmXmXmXmXmXmXmXmXmXmXmXmXmXmXmXmXmXmXmXmXmXmXmXmXmXmXmXmXmXmXmXmXmXmXmXmXmXmXmXmXmXmXmXmXmXmXmXmXmXmXmXmXmXmXmXmXmXmXmXmXmXmX",
"mXmXmXmXmXmXmXmXmXmXmXmXmXmXmXmXmXmXmXmXmXmXmXmXmXmXmXmXmXmXmXmXmXmXmXmXmXmXmXmXmXmXmXmXmXmXmXmXmXmXmXmXmXmXmXmXmXmXmXmXmXmXmXmX",
"mXmXmXmXmXmXmXmXmXmXmXmXmXmXmXmXmXmXmXmXmXmXmXmXmXmXmXmXmXmXmXmXmXmXmXmXmXmXmXmXmXmXmXmXmXmXmXmXmXmXmXmXmXmXmXmXmXmXmXmXmXmXmXmX",
"mXmXmXmXmXmXmXmXmXmXmXmXmXmXmXmXmXmXmXmXmXmXmXmXmXmXmXmXmXmXmXmXmXmXmXmXmXmXmXmXmXmXmXmXmXmXmXmXmXmXmXmXmXmXmXmXmXmXmXmXmXmXmXmX",
"mXmXmXmXmXmXmXmXmXmXmXmXmXmXmXmXmXmXmXmXmXmXmXmXmXmXmXmX>X>X>X>XmXmXmXmXmXmXmXmXmXmXmXmXmXmXmXmXmXmXmXmXmXmXmXmXmXmXmXmXmXmXmXmX",
"mXmXmXmXmXmXmXmXmXmXmXmXmXmXmXmXmXmXmXmXmXmXmXmXmXdXcXxXxXvXnXxXcXxXuXmXd z M &.mXmXmXmXmXmXmXmXmXmXmXmXmXmXmXmXmXmXmXmXmXmXmXmX",
"mXmXmXmXmXmXmXmXmXmXmXmXmXmXmXmXmXmXmXmXmXmXmXdXcXxXvXvXbXbXbXvXvXxXvXvXg s f f M V mXmXmXmXmXmXmXmXmXmXmXmXmXmXmXmXmXmXmXmXmXmX",
"mXmXmXmXmXmXmXmXmXmXmXmXmXmXmXmXmXmXmXmXmXmXdXgXxXxXcXxXxXkX6XiXlXiXbXbXQ.6 s f g M N Z mXmXmXmXmXmXmXmXmXmXmXmXmXmXmXmXmXmXmXmX",
"mXmXmXmXmXmXmXmXmXmXmXmXmXmXmXmXmXmXB z A dXcXfXfXXXXXoX4X4XqXqXiXiXaXbXbXs p z n.(.(.V.m mXmXmXmXmXmXmXmXmXmXmXmXmXmXmXmXmXmXmX",
"mXmXmXmXmXmXmXmXmXmXmXmXmXmXmXmXmXs s f M zXdX~.~..X[..X$X4Xv.U.qXiXiXkXbXkXd Q.(.(.oX2X4Xn mXmXmXmXmXmXmXmXmXmXmXmXmXmXmXmXmXmX",
"mXmXmXmXmXmXmXmXmXmXmXmXmXmXmXmXi p s f N dXqX~.~.G.$.XX$X$X5XqXE.$ k.aXvXbX(.F.(.(.OX2XOX(.mXmXmXmXmXmXmXmXmXmXmXmXmXmXmXmXmXmX",
"mXmXmXmXmXmXmXmXmXmXmXmXmXmXmXi i p s f OXgX~.!.K./..X.X$X$X4X5XX '.k.+ 3XbXbXD.W./.U.C.D.D.&.mXmXmXmXmXmXmXmXmXmXmXmXmXmXmXmXmX",
"mXmXmXmXmXmXmXmXmXmXmXmXmXmXi f m.C.b.V dXgX!.@ + X ^.XX$X$X$XqXO + & X # aXaX6Xb.n.&.b.n.D.b.F.> u mXmXmXmXmXmXmXmXmXmXmXmXmXmX",
"mXmXmXmXmXmXmXmXmXmXmXmXmXmXA C.F.U.W.^.gXqX% & <XX H.XXXX$X$X5XE.X O $ * l.dXcXg V &.m.m.b.A 1 1 u mXmXmXmXmXmXmXmXmXmXmXmXmXmX",
"mXmXmXmXmXmXmXmXmXmXmXmXmXV C.n.D.L.W.4XpXOX. .   X [.[.XX$X$X$X4X3X$ O $ $ lXbX2Xf A &.&.A z < 6 u mXmXmXmXmXmXmXmXmXmXmXmXmXmX",
"mXmXmXmXmXmXmXmXmXmXmXmXmXn.7.m.n.D.W.aX*XH.O     O.[.[..XXXoX$X$X5X5XqX8XiXiXbXbXA.z B s p s < , 5 mXmXmXmXmXmXmXmXmXmXmXmXmXmX",
"mXmXmXmXmXmXmXmXmXmXmXmXmXM z M N V n.K.9Xw & . w ~.^.[.[.XXoX$X$X4X4X6XeXiXiXsXzXzX, 6 6 u p y < mXmXmXmXmXmXmXmXmXmXmXmXmXmXmX",
"mXmXmXmXmXmXmXmXmXmXmXmXa M g z M N g aXpXK.% K.Y.!.~.^.[.H.c.XXXXoX4X5X5XqXqX5X}.wXr , < 6 j m > mXmXmXmXmXmXmXmXmXmXmXmXmXmXmX",
"mXmXmXmXmXmXmXmXmX5 j mXV M g g z M d sXeXW.P.P.I.!.!.!.~.w c.(.XX.X^.$X$XqX5XqXxXvXwXy > r Z Z mXmXmXmXmXmXmXmXmXmXmXmXmXmXmXmX",
"mXmXmXmXmXmXmXmXmXmXp s u p f s g g Z.0X|.W.P.P.P.I.Y.Y.K.n 0 9 e 0 #..XXX$X5X5XxXvXzX}.g M A v mXmXmXmXmXmXmXmXmXmXmXmXmXmXmXmX",
"mXmXmXmXmXmXmXmXmXmXa u 1 u 1 , < : N.*X].!.P.L.L.J.8 8 0 3X8X2Xm v Y.[..X$X$X4X0XgXgX>XmXmXmXmXmXmXmXmXmXmXmXmXmXmXmXmXmXmXmXmX",
"mXmXmXmXmXmXmXmXmXmXmX, < h 1 , , ; c.wX9X!.L.L.A.D.c.t c S C C C 9 Y.~.~.[..X$X}.rXvXbXmXmXmXmXmXmXmXmXmXmXmXmXmXmXmXmXmXmXmXmX",
"mXmXmXmXmXmXmXmXmXmXmXj > k p , , ; rXdXsX!.P.L.A.A.J.8 m C C C C 0 I.Y.Y.~.[.[.dXbXbXbXxXmXmXmXmXmXmXmXmXmXmXmXmXmXmXmXmXmXmXmX",
"mXmXmXmXmXmXmXmXmXmXmXmX> k Z m > %.0XfXeX/.P.D.A.A.Z.N.8 m m v 8 J.L.P.Y.Y.P.~.bXbXvXbXaXmXmXmXmXmXmXmXmXmXmXmXmXmXmXmXmXmXmXmX",
"mXmXmXmXmXmXmXmXmXmXmXmXmXv.Z m r mXhX0X*X{.P.L.A.A.A.S.Z.e 0 #.Z.Z.D.J.L.J.J.iXbXbXxXdX5XW.qX3XmXmXmXmXmXmXmXmXmXmXmXmXmXmXmXmX",
"mXmXmXmXmXmXmXmXmXmXmXmXmXmXmXmXmXmXdXdXwXwX!.L.A.A.A.V.Z.B.B.B.Z.B.Z.V.Z.M.OXxXxXxX).g.-XF.4X6X6X6X5X4XmXmXmXmXmXmXmXmXmXmXmXmX",
"mXmXmXmXmXmXmXmXmXmXmXmXmXmXmXmXmXmXsXfXsXsX5XI.L.A.A.A.V.V.V.V.V.B.B.B.%.2XgXtXyXsXE 8.z.A..XXXXXXXXX.X6XbX,XmXmXmXmXmXmXmXmXmX",
"mXmXmXmXmXmXmXmXmXmXmXmXmXmXmXmXmXmXsXgX0XpXsX4XI.P.A.A.C.V.V.B.&.V.V.R.9XtX=X .-.:.R ( i.S.Y.Y.I.!.Y.W.oXnX<XmXmXmXmXmXmXmXmXmX",
"mXmXmXmXmXmXmXmXmXmXmXmXmXmXmXmXmXmX;X*X=XtXwX#X#X7X~.P.L.L.U.U._.]...`.#X`.X.X.-.;.~ W 4.v.V.V.V.S.Z.B.2XjX,XmXmXmXmXmXmXmXmXmX",
"mXmXmXmXmXmXmXmXmXmXmXmXmXmXmXmXI.P.i.P I #X|. X*.&X}.]._.2 _.]._.} ` { |  . .x @.@.;.E 9.mXmXmXmXmXJ.A.jXjXmXmXmXmXmXmXmXmXmXmX",
"mXmXmXmXmXmXmXmXmXmXmXmXmXmXL.P.J.J.f.L _ ' +.' ` ' +.7 2 2 2 3 4 5 7 f f g z z z z @.=.r.mXmXmXmXmXmXmXmXmXmXmXmXmXmXmXmXmXmXmX",
"mXmXmXmXmXmXmXmXmXmXmXmXP.L.A.A.%.&.E.G _ ` +.7 : : 8 - - : : : r j b 5.b S B z z z -.~ j.v.mXmXmXmXmXmXmXmXmXmXmXmXmXmXmXmXmXmX",
"mXmXmXmXmXmXmXmXmXmXjX/.A.A.B.B.V.B.S.G I ' l < > : q % = ,.,.2.i.u.0.0.0.s.d.7.z @.^ Q h.Z.cXmXmXmXmXmXmXmXmXmXmXmXmXmXmXmXmXmX",
"mXmXmXmXmXmXmXmXmXmXnXOXA.V.V.V.V.A.A.w.U @.a t 4.1.<.>.>./ G G Y T ! T W 0.7.z X.^ E h.E.nXbX'.mXmXmXmXmXmXmXmXmXmXmXmXmXmXmXmX",
"mXmXmXmXmXmXmXmXmXmXnXnXA.V.A.N.mXmXmXmXR.f 5.y.4.9.L G F K ] } l b w.e v | o.E E e.h.x.kXbXvXxXmXmXmXmXmXmXmXmXmXmXmXmXmXmXmXmX",
"mXmXmXmXmXmXmXmXmXmX:XnX1XmXmXmXmXmXmXmX:.h 5.y.y./ F F J U [ { l ....o.! R E 0.d.g.E.bXbXbXdXwXmXmXmXmXmXmXmXmXmXmXmXmXmXmXmXmX",
"mXmXmXmXmXmXmXmXmXmXmXmXmXmXmXmXmXmXmXdX@.l a 3.t.9.q./ H H H T T Y W ) p.s.a.g.G.kXbXbXbXbXvXxXmXmXmXmXmXmXmXmXmXmXmXmXmXmXmXmX",
"mXmXmXmXmXmXmXmXmXmXmXmXmXmXmXmXmXmXmXgXeX*.7 y r 1.9.i.i.u.u.u.s.s.a.f.z.v.4XxXvXvXbXxXvXxXdXvX'.mXmXmXmXmXmXmXmXmXmXmXmXmXmXmX",
"mXmXmXmXmXmXmXmXmXmXmXmXmXmXmXmXmXmXmXzXeXgX&X%.d y y k b D c n n v.OXpXxXxXxXvXvXbXbXwX&X&XcXxXzXmXmXmXmXmXmXmXmXmXmXmXmXmXmXmX",
"mXmXmXmXmXmXmXmXmXmXmXmXmXmXmXmXmXmXmX*XyXdXsXtXwXpXsXsXwXaXsXsXlXxXxXxXxXxXzXgXzXxXzXdXxXbXbX+X+XmXmXmXmXmXmXmXmXmXmXmXmXmXmXmX",
"mXmXmXmXmXmXmXmXmXmXmXmXmXmXmXmXmXmXmX0X0XsXtX&X9XpXfXlXeXfXzXzXxXgXfXxXxXzXeX&X&XeXtXcXxXxXxXuXmXmXmXmXmXmXmXmXmXmXmXmXmXmXmXmX",
"mXmXmXmXmXmXmXmXmXmXmXmXmXmXmXmXmXmXmXgXsX*X=X=X*XsXsXeX#X#XeXeXsX0X#XtXtXtXrXxXzXzXxXvX&XgXsXcXmXmXmXmXmXmXmXmXmXmXmXmXmXmXmXmX",
"mXmXmXmXmXmXmXmXmXmXmXmXmXmXmXmXmXmXmXgXyXgX0XrX0X*X#X|.rXwX9X#X#XeXpX9XrXpXxXgXfXxXzXzXzXsXcXgXmXmXmXmXmXmXmXmXmXmXmXmXmXmXmXmX",
"mXmXmXmXmXmXmXmXmXmXmXmXmXmXmXmXmXmXmXyX0XzXpX9X*XeXwXpXeXpXsXfXzXzXsXfXzXxXzX9X&X0XsXrXvXvXvX+XmXmXmXmXmXmXmXmXmXmXmXmXmXmXmXmX",
"mXmXmXmXmXmXmXmXmXmXmXmXmXmXmXmXmXmXmXl.mXeX#X*X&X*X9X9X#X#XeXpXsXeX@X*X0XeXtXwXwXwXfXvXgXgXsXmXmXmXmXmXmXmXmXmXmXmXmXmXmXmXmXmX",
"mXmXmXmXmXmXmXmXmXmXmXmXmXmXmXmXmXmXmXmXmXtX*XwXwX*X#X}.rX7X*X*X&X&X3X+X%X+XdXzXzXxXxXzXmXl.mXmXmXmXmXmXmXmXmXmXmXmXmXmXmXmXmXmX",
"mXmXmXmXmXmXmXmXmXmXmXmXmXmXmXmXmXmXmXmXmXsXzXpXwXiXeXfXpXrXrXpXsXlXpXpXpXzXzXgXtXtXtX'.mXmXmXmXmXmXmXmXmXmXmXmXmXmXmXmXmXmXmXmX",
"mXmXmXmXmXmXmXmXmXmXmXmXmXmXmXmXmXmXmXmXmX=XgX9X#X9XeXeX*X*XpXaXfXsX*XeXpXsXtX~.mXmXmXmXmXmXmXmXmXmXmXmXmXmXmXmXmXmXmXmXmXmXmXmX",
"mXmXmXmXmXmXmXmXmXmXmXmXmXmXmXmXmXmXmXmXmXU.{. XT.{.|. X_.'.#X*X9X#XmX{.|.#XT.%.mXmXmXmXmXmXmXmXmXmXmXmXmXmXmXmXmXmXmXmXmXmXmXmX",
"mXmXmXmXmXmXmXmXmXmXmXmXmXmXmXmXmXmXmXmX<X!.A.Z.M.M.%.mXmXmXmXmXmXmXmXP.A.B.M.B.mXmXmXmXmXmXmXmXmXmXmXmXmXmXmXmXmXmXmXmXmXmXmXmX",
"mXmXmXmXmXmXmXmXmXmXmXmXmXmXmXmXmXmXmXmXnX,XOXZ.M.%.mXmXmXmXmXmXmXmXmXP.A.M.M.#.mXmXmXmXmXmXmXmXmXmXmXmXmXmXmXmXmXmXmXmXmXmXmXmX",
"mXmXmXmXmXmXmXmXmXmXmXmXmXmXmXmXmXmXmXmX<X:XnX2X%.mXmXmXmXmXmXmXmXmXK.L.b.M.M.mXmXmXmXmXmXmXmXmXmXmXmXmXmXmXmXmXmXmXmXmXmXmXmXmX",
"mXmXmXmXmXmXmXmXmXmXmXmXmXmXmXmXmXmXmXmXmXjX<X<XmXmXmXmXmXmXmXmXmXmX,XL.B.M.B.mXmXmXmXmXmXmXmXmXmXmXmXmXmXmXmXmXmXmXmXmXmXmXmXmX",
"mXmXmXmXmXmXmXmXmXmXmXmXmXmXmXmXmXmXmXmXmXmX,XmXmXmXmXmXmXmXmXmXmXmXnXnXjX3XcXmXmXmXmXmXmXmXmXmXmXmXmXmXmXmXmXmXmXmXmXmXmXmXmXmX",
"mXmXmXmXmXmXmXmXmXmXmXmXmXmXmXmXmXmXmXmXmXmXmXmXmXmXmXmXmXmXmXmXmXmXmXnXjXcXjXmXmXmXmXmXmXmXmXmXmXmXmXmXmXmXmXmXmXmXmXmXmXmXmXmX",
"mXmXmXmXmXmXmXmXmXmXmXmXmXmXmXmXmXmXmXmXmXmXmXmXmXmXmXmXmXmXmXmXmXmXmXmXmXmXmXmXmXmXmXmXmXmXmXmXmXmXmXmXmXmXmXmXmXmXmXmXmXmXmXmX",
"mXmXmXmXmXmXmXmXmXmXmXmXmXmXmXmXmXmXmXmXmXmXmXmXmXmXmXmXmXmXmXmXmXmXmXmXmXmXmXmXmXmXmXmXmXmXmXmXmXmXmXmXmXmXmXmXmXmXmXmXmXmXmXmX",
"mXmXmXmXmXmXmXmXmXmXmXmXmXmXmXmXmXmXmXmXmXmXmXmXmXmXmXmXmXmXmXmXmXmXmXmXmXmXmXmXmXmXmXmXmXmXmXmXmXmXmXmXmXmXmXmXmXmXmXmXmXmXmXmX",
"mXmXmXmXmXmXmXmXmXmXmXmXmXmXmXmXmXmXmXmXmXmXmXmXmXmXmXmXmXmXmXmXmXmXmXmXmXmXmXmXmXmXmXmXmXmXmXmXmXmXmXmXmXmXmXmXmXmXmXmXmXmXmXmX",
"mXmXmXmXmXmXmXmXmXmXmXmXmXmXmXmXmXmXmXmXmXmXmXmXmXmXmXmXmXmXmXmXmXmXmXmXmXmXmXmXmXmXmXmXmXmXmXmXmXmXmXmXmXmXmXmXmXmXmXmXmXmXmXmX",
"mXmXmXmXmXmXmXmXmXmXmXmXmXmXmXmXmXmXmXmXmXmXmXmXmXmXmXmXmXmXmXmXmXmXmXmXmXmXmXmXmXmXmXmXmXmXmXmXmXmXmXmXmXmXmXmXmXmXmXmXmXmXmXmX",
"mXmXmXmXmXmXmXmXmXmXmXmXmXmXmXmXmXmXmXmXmXmXmXmXmXmXmXmXmXmXmXmXmXmXmXmXmXmXmXmXmXmXmXmXmXmXmXmXmXmXmXmXmXmXmXmXmXmXmXmXmXmXmXmX"
};
