/* XPM */
static char *result[] = {
/* columns rows colors chars-per-pixel */
"64 64 191 2 ",
"   c #487A26",
".  c #427D28",
"X  c #4C7F2C",
"o  c #577926",
"O  c #5B7B2E",
"+  c #64782F",
"@  c #6A7D2F",
"#  c #6A7F31",
"$  c #7E7D3C",
"%  c #887C3C",
"&  c #917C48",
"*  c #BC7E54",
"=  c #BD7D5C",
"-  c #C47D55",
";  c #CB7E55",
":  c #C37E59",
">  c #C97F58",
",  c #D37E53",
"<  c #C07F61",
"1  c #46802B",
"2  c #4C842C",
"3  c #4C8B2E",
"4  c #53852D",
"5  c #59862E",
"6  c #518A2E",
"7  c #5B892F",
"8  c #4E902F",
"9  c #478C32",
"0  c #4D8C31",
"q  c #558330",
"w  c #5B8632",
"e  c #528D33",
"r  c #5B8C32",
"t  c #529334",
"y  c #5C9336",
"u  c #54953A",
"i  c #59963A",
"p  c #559B3B",
"a  c #5A9C3C",
"s  c #648632",
"d  c #6D8334",
"f  c #738435",
"g  c #768837",
"h  c #748739",
"j  c #7D843B",
"k  c #7B8B3C",
"l  c #66913A",
"z  c #56A13D",
"x  c #5AA33F",
"c  c #5CAA3E",
"v  c #5DB73C",
"b  c #5FBA3F",
"n  c #63AD3F",
"m  c #66B33E",
"M  c #71B63D",
"N  c #76BA3F",
"B  c #79BB3F",
"V  c #579C41",
"C  c #5B9D41",
"Z  c #5DA442",
"A  c #5EAA44",
"S  c #5EAD48",
"D  c #5FBE42",
"F  c #62A645",
"G  c #62AC46",
"H  c #68AF47",
"J  c #64A549",
"K  c #64AE49",
"L  c #69AE4D",
"P  c #65B245",
"I  c #6CB545",
"U  c #63BD44",
"Y  c #6DB947",
"T  c #65B14A",
"R  c #6AB34D",
"E  c #67BC49",
"W  c #6BBA4D",
"Q  c #73BA45",
"!  c #7BBE44",
"~  c #71B74E",
"^  c #73BB4A",
"/  c #7ABE4A",
"(  c #6CAE52",
")  c #6DB352",
"_  c #6DBA51",
"`  c #71B555",
"'  c #72B955",
"]  c #78BA56",
"[  c #72B558",
"{  c #75BB59",
"}  c #7DBB5A",
"|  c #64C046",
" . c #66C24A",
".. c #69C14D",
"X. c #7BC047",
"o. c #7CC14A",
"O. c #6EC052",
"+. c #74C057",
"@. c #87853D",
"#. c #848A3D",
"$. c #8A8B3F",
"%. c #868641",
"&. c #8F8746",
"*. c #878D40",
"=. c #8C8C41",
"-. c #9E8345",
";. c #938C45",
":. c #9C8C4A",
">. c #8D9145",
",. c #979249",
"<. c #9A954C",
"1. c #99984C",
"2. c #A2874B",
"3. c #A6974F",
"4. c #A68550",
"5. c #A38E51",
"6. c #B88A52",
"7. c #BF805D",
"8. c #A69351",
"9. c #AC9757",
"0. c #A49C54",
"q. c #AC9B55",
"w. c #B59958",
"e. c #B69F59",
"r. c #BF9E5D",
"t. c #81BE5E",
"y. c #C48256",
"u. c #CD8256",
"i. c #C4825B",
"p. c #CA845B",
"a. c #CE8A5C",
"s. c #D48155",
"d. c #D98557",
"f. c #D4845A",
"g. c #DB865B",
"h. c #D28C5D",
"j. c #DC8B5D",
"k. c #C39C5D",
"l. c #CE9D5E",
"z. c #D6915E",
"x. c #DB925F",
"c. c #DE995F",
"v. c #E1865A",
"b. c #E2895C",
"n. c #E0915F",
"m. c #E89D5E",
"M. c #C5A25F",
"N. c #CE8560",
"B. c #CE8B61",
"V. c #D28762",
"C. c #D48D61",
"Z. c #DB8C61",
"A. c #C39E60",
"S. c #D69263",
"D. c #DB9564",
"F. c #DD9964",
"G. c #DC9668",
"H. c #DE9969",
"J. c #E08F60",
"K. c #E29562",
"L. c #EA9564",
"P. c #E29C65",
"I. c #EA9D65",
"U. c #E39D69",
"Y. c #EB9E6A",
"T. c #F09F64",
"R. c #CCA163",
"E. c #D5A265",
"W. c #DDA366",
"Q. c #D4A468",
"!. c #DCA56A",
"~. c #DFA96A",
"^. c #E5A365",
"/. c #EBA266",
"(. c #E4A36B",
"). c #EDA46A",
"_. c #E6A86B",
"`. c #EEAA6B",
"'. c #F2A366",
"]. c #F1A46B",
"[. c #F2AC6D",
"{. c #F3B26E",
"}. c #F8B36F",
"|. c #EDA771",
" X c #EFAC71",
".X c #F3A670",
"XX c #F2AD71",
"oX c #F5B371",
"OX c #F9B571",
"+X c #F5B078",
"@X c #81C05D",
/* pixels */
"R R K K J S K K R K K L L L K K A G P Y ^ I H G K T _ W T R W R _ R K K K R K J A G K T P ^ Q T G G A c A A K K K T K G G K S A ",
"K K J L S S K J K K K L K S K K A m Q ^ X.^ K G J R E T R W W E _ T P G K K K S A G P T U Q Q Y G S G G G G A K K S S S K P S A ",
"R H T ) R ( R K K K K K J G K S m Y o.X.X.^ I G S P T P W W W T S S G S J K K A n n P Y I Q N I P A A G A A A A S S G K P P S A ",
"/ ' L K ( L L K L K J S G H P G N B @XX.! Q I K K K R R R W T G S S G A S A K P P P Y I Q Q M M m S S Z A S J A Z J P T K G F G ",
"~ L S L K L K K K K S K T ~ / ^ ! ! ! B ! ! I H K K T R T S P K K T K P S K T R Y Y W Y I M I Q P S A x A P G A S K K S A A K A ",
"H G S K K K J A K P S G W ^ / / ! ! @XB B N Q W K T K K T P S K T T K K G T K K P Y W R H n I Q W P S A S G K K K K K K S A A S ",
"L K T K K S A J T T K K R I I I Q Q ^ / ! Q Q Y P G K P T T P P T S K G G S A Z A G G G F n P I W P K G c G K K A A P S G S G P ",
"( T R T J K K L K T T T R P c G n G H I Q Y Y P P S A K T S K S T K G A G A A A A G G S A A G G G K P S c G K K A S J S P T R R ",
") W E T _ R K L ) K G G K K G S S S A S P P P P P G A G P G G G T G Z S A A A G G K G S A S K G A G P G A G K K K K S S K R _ W ",
"R R T R W R K R ) T G P P P G P K P K K T P S c c P c S S P G A S A c A A K K G G G A Z A H P S A A c A A A K K K T K K K T T R ",
"T W R E T R R K R W E U E E E Y P P S P K K S G E P P K P G G G G G G G G P K P P F A A T W T P P P G A A A G A Z A T P K T T T ",
"T T W T P R R K P E U U U U | U b b U P G G G T W Y Y T P G G G G F A G G G G G G A G H T W E P P P P G K G G H K S K K P T S G ",
"T R T T P R R T R P |  .| D D | b v c m G P G W Y W W T T G A S S A A K G G P G A c K G P T W R Y W W R R K H K K K T R K T A A ",
") ) _ W ) _ _ R L T  . .U U | | D m m P P T P T R T ' W T G A A G H K K K G G K P G T G S T W W _ W _ W R K G K G T _ R ) P K S ",
"[ ) ) ) ) R ) R G H _ .. .E U E Y U P K T K R P K P W W L K K K T L K L K K K K T T R K P W W _ _ _ _ _ R K K R ) _ _ ) _ ) ) T ",
"` ) ) T L R ) L L L _ O. . .W Y T K R ) ) K K K L L R ) L R R K R L L L L L ) L L ) ( L R W R _ ) ) ) T ) ) ) ) ) ) ) _ { { ) ) ",
"[ [ ) L ( ( ( ~ [ ` ` ' ..W _ R R ( ( ) ( ( ( ( ) L L ) ) ) ( ( ` ( ( L L ( ) ( ( ( ) ` ` ' ) ) ` ) ) ` ) ) [ [ ) ) ' { { { { ) ",
"t.t.} } t.] ` ` [ [ ( [ O._ ) ) [ [ ( ( [ ) [ ) ( L ( ` ) ( ( [ ` ` ` ( ( ( ` ` ) [ [ ( ( ` ` ` ) [ ` ` [ [ [ [ ) ) ` { { { { ) ",
"t.@X@Xt.t.t.] ` L ) ( ' +._ [ ` ( ( ( ( ) ) [ _ ( ( ( ` ( ( ( [ ( ( L L L ( ` [ [ [ ) ( ( ` [ ( [ [ [ [ [ [ ` ) ) ) ' ' ) ' _ ) ",
"~ ] ] ] ` ` ] ` ` ( ) ) ' ' ) ` ( ( ( ( ( ) ) [ ( ( ` ( ( ( ( ( ( ` ( ( ( ( ) ) ` ) [ ( ) ` ` ` [ [ ` ` ) ) ` ) ) ` ) ) ) ` ' { ",
"' ] [ ` H H ~ ` ~ ) ` ' ' ` ) ) ) ) ) L R ) ) ) L R ) ) ) ) ) ) ( ` ` L ` ( L ) ( ) ) ) L ) ) ` ` R ` L ( L ) ) ) ) ) ) _ ) ) ' ",
"R ~ ` R H J L R L L R ' ~ ` L I L L R L ( K K ) R L L ~ R ) L L R ) ` R R R L K ( ) R K K L L L L R ) L K L J ( L K S K L K T ) ",
"H K K K G R K H K F H R R L H F G F K L K G F J L L K R R L K K R L L J J K J S J K G F J G J J J K L L J C J Z F Z p p x x x F ",
"z a a a a a a Z C a n F x x z z p u p a Z p p z F K F F Z Z Z A F F Z p a a p i a x C a C V u u x G K J C t t u p 9 q s r 8 t u ",
"4 6 3 2 7 7 8 8 8 7 l t 3 6 8 8 2 5 7 7 e 3 9 t i u e e i i i i i t 9 2 3 e 3 X r y 0 6 0 0 2 w l V V V 9 1 O w 6 O % 2.#.5 4 5 ",
";.#.f $.q.0.$.d 5 #.1.s d $.#.#.;.3.q.3.>.k h g 7 2 O d 5 4 X X X X o @ *.f # j q.<.$.,.<.;.,.9.0.l X .   + 5.9.=.-.y.; 6.2.:.9.",
"F.W.E.~.`._.Q.k.e.M.~.e.r.Q.E.E.W.I.`._.W.Q.R.k.:.$ & 4.;.@.@.$ %.,.8.r.F.k.A.E.(.(.W.(.(.W.(._.!.9.j j &.w.H.(.D.u.s., s.h.Z.U.",
"K.].[.[.'.'.].`./.^./.`._././././.T.'./.).(.`.^.z.* = p.h.h.f.h.D.(.|.|.)..X|.).)._.`.Y.)././.).|.(.Q.!.(.(.(.).K.g., , , g.j.I.",
"K.].].].'.'./.I.^.^./.`./././.T.I.m.m./.^./.^./.D.y.: - d.v.v.b.Y..X.X.X].].].).Y.].]..XY.).].'.Y.).`.Y.).(.^.(.I.g., ; , d.j.P.",
"m.`.`.`.'.`.`./././.m.'./././././.m.I./.^.^.^./.K.u.- ; d.v.v.v.L..X.X].].].).].].]..X].].).Y.).).).).).Y.Y.Y.(.).j., ; s.g.j.m.",
"K.].[.`.`.`.`./.'.`././././.`.]./.)./././././.^.P.p.- - f.J.v.v.I.[.XX.X].].].`.]..X.XY.Y.Y.'.Y.).).Y.).Y.`.Y.Y.(.j.s.s.d.j.j.K.",
"n.).].].`.`./.).'.`.`./.'.`./.'.'./.).'./././././.a.- - , g.v.v.I.].|.|.].].].].Y.|.|..XY.'.Y.Y.).].Y.).).(.].].(.D.s., d.j.j.K.",
"D./.].]./.`.`./.).).)./.).).)./.I./.).I.).I.).)./.D.- - , v.b.b.L.].].T.].].].].)..X(.|.Y.I.Y.'.).).|.).(.Y.Y.).(.K.s., j.g.b.K.",
"x./.`.`.`././.).`.)./.).).'.)././.I.)././.).^././.K.> - ; v.b.v.L.]..X].].'.].].|.Y.Y.].Y.T.Y.Y.).Y.).Y.).Y.).Y.(.U.g.g.J.j.j.K.",
"j./.]././././.].].`.).).)./././.).I.).).)./.^././.F.> : ; g.g.v.L..X].].].].).).).|.).).Y.).'.).Y..XY.|.(.).Y.).)..Xg.g.g.j.Z.K.",
"j.I.'././././.'.].).).)./././././.).).).).^./././.I.f.- > g.v.g.L.]..X].).).)..X].(..X].'.).).].|.Y..XY.Y.).).Y.Y.Y.J.g.g.g.j.K.",
"Z.I.).)./.`./.).].`././.).).).).)./.`.^.`.I.^./././.C.- > s.v.v.L.]..X.X.X).Y.]..X.X|.(./.`.`.`.Y.).Y.(.).).).).).).n.g.f.g.j.Z.",
"Z.I.].].'.'.].`.`./.`.)./.`.)././.)./.)././.I././.).Z.- - f.v.v.L..X.X.X|.|.].].).).).|.`.`./.^.).(.).).).)./.)./.).L.d.g.Z.g.j.",
"j.P.].)./.].`.).`./.).)./.`.)./././.).^././././.I.).D.> - ; b.b.U..X).[.].).).).`.).).).`./.^.^.].).`.`.).`.`.[.[.[.).d.j.j.j.x.",
"Z.K.].].'.`.).`.).`.].).)./././.`.).)./././.I./././.I.> - s.b.b.Y.].].[.[.[.[.[.XXXXoX{.{.`.{.`.OX[.XX{.`.[.[.{.{.OX[.x.d.j.j.j.",
"Z.K.).].).).).`.).`././.).).`.]././.)./.'.'././././.P.u.- u.v.v.I.{.OXOXOXoXoXoXoXoXoXoX{.{.{.{.{.{.{.`.`.`._.{.{.{.XXP.g.j.b.x.",
"g.K.).'.].'.`.).)./.).).).`.)./.].).`.).).).]./././.I.a.* u.g.v.I.OXOXOXoX}.}.oXoXoXoXoX{.{.{.{.{.{.{.`.`.`.{.{.{.{.{.P.j.j.j.b.",
"j.D.).].).'.)./.`.].).).).)./.`.`.].`./.`././././././.h.> p.g.v.I.}.{.{.{.}.{.{.oXoX{.oX{.{.{.{.{.{.{.`.{.`.`.{.{.{.{.`.j.j.j.K.",
"f.j./.].].)./.`./.`.].].).`.`.)././.`./././.m.m././.'.D.- > f.g.L.}.{.{.{.}.oX{.{.oX{.{.{.{.{.{.{.{.{.{.{.{.{.{.{.{.{.`.j.g.j.j.",
"j.j.].[.XX[.].[.[.[.[.[.[.[.[.[.[. X[.[.`././././.[.[.P.> > g.g.I.{.{.{.}.oX{.{.{.{.{.}.{.{.{.{.{.{.{.`.{.{.{.{.{.{.}.[.j.j.g.j.",
"j.x.].{.XX[.[.[.[.XX.XXX[.].[.[.XXXX[.[.[.`.[.[.[.[.XX).u.- g.v.I.}.oX}.oX{.{.`.{.{.{.{.{.{.{.{.{.`.`.`.{.{._.{.{.{.{./.x.j.j.j.",
"j.n.].{.[.{.[.{.[.XXXX[.[.].[.XXoX X[.[.{.'.`.].[.[.XX`.C.> g.Z.I.{.{.OXoX}.{.{.`.}.{.{.{.{.{.{.{.`.{.{._.{.{.{.{.{.{.`.j.j.j.x.",
"j.n.).{.[.[.[.].[..X[.[.{.].[.`.{. X{.].`.`.`.[.].[.[.`.D.> g.g.I.}.}.{.oXoX}.{.{.}.{.{.{.{.{.`.{.{.{.{.{.{.{. X X{.{.].j.j.j.K.",
"j.K.].OX[.[.[.].].[.[.[.[.[.[.[.[.|.`.`.[.`.[.[.XX.X[.[.P.p.f.j.^.oXoX{.oX}.}.}.}.}.{.{.{.{.{.{.{.{.{.{.`.{.`.`.{.{.{.[.j.j.g.F.",
"g.J.).XX[.[.[..X[.[.[.[..X.X[.[.[.[.XXXXXXXX[.[.XXXXXXXXU.i.; g./.oXoX{.{.'.[.{.{.{.{.{.`.{.{.{.{.{.{.`.{.`.{.{._.{.OX[.j.j.Z.U.",
"g.Z.).XX[.XXXXXXXXXXXXXX}.XX.X[.[.[.[.oXXX.XXX[.XXXX.X[.(.p.p.g./.OXoXoX{.[.[.{.{.{.{.{.`.`.{.{.{.{.{.{.{.{.`.{.{.{.{.`.j.g.j.|.",
"Z.g.`.[.[.XXXXXXXXXXXXXX[.XXXXXXXX[.[.[.[.[.XXXXXXOX[.[.).p.p.j.K.`.`._.`.`.`.`.`.`._.^.m.^._.`.~.`.`.^.`.`.`.{.`./.^.P.j.g.D.].",
"Z.Z.).XX[.XXXXXXXXXXXX[.].[.[.[.].`.[.[.XX`. X X[.XX[.XX`.a.p.f.x.P.m.F.F.^.P.P.W.m.x.c.K.P.^.F.m.l.c.c.c.c.F.^.P.K.m.P.j.Z.K..X",
"Z.g.Y.|. XXXXX[.[.[.[.XXXX}.[.].`.[.[.[.XXoX`. X`.XX[.oXXXC.u.C.x.^.P.W.^.(.^.P.F.c.z.D.P.K.(.F.W.m.F.F.K.W.F.F.F.F.x.D.g.Z.D.|.",
"Z.Z.U.|.`.|.`.[.`.`.`.`.[.[.[.XX[.[.XXXX X X X+X X XXXXX.XS.p.f.D.^.P.^.^.F.U.U.F.K.F.F.F.F.H.^.c.W.c.c.F.F.F.F.F.F.D.D.Z.Z.Z.F.",
"Z.Z.K.U.F.F.F.K.P.P.P.P.Y.P.).].|.|.|. XXXXXXX XXXXXXX+X+XG.> p.x.P.^.F.F.P.U.P.P.P.P.F.F.F.F.F.c.c.c.W.F.F.F.F.D.F.F.P.Z.g.D.F.",
"Z.K.K.F.D.D.j.D.D.D.H.D.D.C.D.x.D.D.P.P.U.).(.(.(.`.).).U.j.p.p.j.P.^.F.(.^.F.P.P.P.F.c.F.K.F.F.E.F.c.F.F.S.F.F.F.F.F.F.j.j.D.F.",
"V.G.H.G.G.G.F.F.F.G.D.S.H.F.D.D.D.D.D.D.D.D.F.S.D.D.D.D.z.h.p.V.C.U.P.U.F.P.F.P.P.P.F.P.P.W.P.W.c.c.F.F.F.x.l.z.F.z.c.F.z.D.F.G.",
"C.G.H.F.F.D.F.D.F.G.D.G.G.G.D.K.G.G.D.G.D.F.F.F.D.x.D.D.D.S.B.p.C.U.P.F.F.P.P.P.P.F.z.F.F.F.F.F.F.F.F.F.c.F.F.F.z.F.F.H.Z.D.F.D.",
"p.S.H.D.x.Z.z.D.D.D.F.F.D.F.G.H.G.G.G.G.S.G.G.G.S.D.D.D.D.G.C.V.C.P.U.U.(.F.U.F.F.F.F.H.H.F.F.H.F.F.F.F.F.F.F.F.F.F.F.F.B.V.D.D.",
"i.N.S.G.z.z.z.F.D.D.D.F.D.D.G.G.D.G.S.S.S.S.F.G.D.D.D.G.D.F.G.C.V.D.(.F.F.F.D.S.D.G.G.G.F.F.S.D.F.F.F.F.D.S.S.S.A.S.B.N.i.i.G.H.",
"7.N.B.B.h.a.z.x.S.S.S.S.S.G.G.C.S.S.S.S.S.S.S.S.D.D.D.S.S.S.C.C.V.S.h.f.a.a.a.a.a.B.a.a.a.a.a.p.i.i.y.7.y.i.i.y.i.7.N.N.= < B.D.",
"7.i.B.S.a.z.h.h.h.a.h.a.a.S.B.C.h.S.a.z.h.h.z.h.C.C.B.h.h.h.h.C.V.B.i.y.y.y.i.p.a.a.i.i.i.i.i.i.y.y.7.y.y.y.y.y.= i.i.: = < N.B.",
"7.7.N.B.a.z.h.h.z.h.a.h.B.a.h.a.h.a.C.a.a.a.a.V.C.h.a.a.a.a.B.B.N.N.a.p.y.i.a.i.i.a.a.i.N.i.i.* y.7.i.i.i.y.7.7.7.i.i.= = < i.N."
};
