/* XPM */
static char *result[] = {
/* columns rows colors chars-per-pixel */
"64 64 232 2 ",
"   c #341106",
".  c #35140B",
"X  c #3C150A",
"o  c #3B160A",
"O  c #3C1B12",
"+  c #361912",
"@  c #300F06",
"#  c #3C221D",
"$  c #41160B",
"%  c #44190B",
"&  c #4B1C0C",
"*  c #431B06",
"=  c #521E0D",
"-  c #481C12",
";  c #4C2109",
":  c #53220E",
">  c #5C2A0B",
",  c #472317",
"<  c #552312",
"1  c #5B2412",
"2  c #5C2B1A",
"3  c #552A17",
"4  c #68360A",
"5  c #743A0D",
"6  c #632913",
"7  c #662A18",
"8  c #693517",
"9  c #763917",
"0  c #472B24",
"q  c #573628",
"w  c #56372D",
"e  c #682D21",
"r  c #792C27",
"t  c #6A3826",
"y  c #733929",
"u  c #7B410D",
"i  c #7A4519",
"p  c #774626",
"a  c #754E33",
"s  c #36367D",
"d  c #7B5A4A",
"f  c #7C6658",
"g  c #4B4170",
"h  c #795E68",
"j  c #823F1D",
"k  c #883C23",
"l  c #863031",
"z  c #894A0C",
"x  c #94520D",
"c  c #9B560C",
"v  c #8C4D14",
"b  c #854818",
"n  c #974D19",
"m  c #8D501A",
"M  c #945414",
"N  c #9A5613",
"B  c #9D5A1B",
"V  c #995619",
"C  c #904F0B",
"Z  c #A35D0D",
"A  c #A35C14",
"S  c #A25B1C",
"D  c #A45915",
"F  c #AC6313",
"G  c #AA6218",
"H  c #B2661C",
"J  c #B96B17",
"K  c #B26711",
"L  c #854D24",
"P  c #894D28",
"I  c #8A5328",
"U  c #9A5B24",
"Y  c #8A5838",
"T  c #975C33",
"R  c #8D4C2D",
"E  c #A15D22",
"W  c #A35D37",
"Q  c #9A682C",
"!  c #9D6337",
"~  c #82653D",
"^  c #A5622A",
"/  c #A86628",
"(  c #A66637",
")  c #B56F2C",
"_  c #9A601C",
"`  c #C77519",
"'  c #D57E1C",
"]  c #C97726",
"[  c #D47D28",
"{  c #C87A32",
"}  c #CC6E34",
"|  c #A73F42",
" . c #895E47",
".. c #B6484B",
"X. c #996747",
"o. c #866B56",
"O. c #8B7552",
"+. c #95735B",
"@. c #9C744C",
"#. c #A86C44",
"$. c #AD7553",
"%. c #B57954",
"&. c #B17044",
"*. c #987D67",
"=. c #8A7A6B",
"-. c #A07D62",
";. c #CD5556",
":. c #CC714A",
">. c #DC5C62",
",. c #E9666A",
"<. c #F87679",
"1. c #E7796D",
"2. c #EE7B54",
"3. c #E28619",
"4. c #D98427",
"5. c #D98537",
"6. c #CF8031",
"7. c #E68B29",
"8. c #E58C35",
"9. c #EE9336",
"0. c #F29638",
"q. c #EA9229",
"w. c #F4A939",
"e. c #DE851B",
"r. c #89856C",
"t. c #8D8B74",
"y. c #888A73",
"u. c #948C75",
"i. c #95927A",
"p. c #99967E",
"a. c #9B997E",
"s. c #949076",
"d. c #998467",
"f. c #A49578",
"g. c #AF9070",
"h. c #B89A60",
"j. c #D4914B",
"k. c #EC9145",
"l. c #E8AD52",
"z. c #FB856E",
"x. c #D4A86A",
"c. c #3C3C84",
"v. c #4C4D86",
"b. c #5757A8",
"n. c #786F9F",
"m. c #FD7C83",
"M. c #78A895",
"N. c #75AE99",
"B. c #9D9B83",
"V. c #9B9683",
"C. c #82849E",
"Z. c #A19E83",
"A. c #A79D8F",
"S. c #86AD99",
"D. c #8BB39E",
"F. c #84B19B",
"G. c #98B49D",
"H. c #93AD98",
"J. c #A3A284",
"K. c #AAA88C",
"L. c #A7AB99",
"P. c #B7A895",
"I. c #A7B696",
"U. c #B5B392",
"Y. c #B8B698",
"T. c #B0AA89",
"R. c #8CBAA3",
"E. c #86B8A4",
"W. c #93BAA4",
"Q. c #98BAA6",
"!. c #A6BBA6",
"~. c #B7B8A2",
"^. c #ACACB2",
"/. c #9B9DBF",
"(. c #FF8287",
"). c #C1B79A",
"_. c #86C2AE",
"`. c #99C3AD",
"'. c #9CCAB3",
"]. c #9BC8B5",
"[. c #99D5BC",
"{. c #8CC7B3",
"}. c #A8C2AC",
"|. c #B5C3AB",
" X c #B8C5AA",
".X c #A5C9B6",
"XX c #B6CAB4",
"oX c #A8D6BC",
"OX c #BBD5BB",
"+X c #C4C19E",
"@X c #D1C881",
"#X c #ECD491",
"$X c #CAC7A6",
"%X c #C4C9B7",
"&X c #C3D6BB",
"*X c #D8D6B8",
"=X c #D2CDAF",
"-X c #E6DBA7",
";X c #D2E4BB",
":X c #B4B7CB",
">X c #99DAC3",
",X c #A4DBC2",
"<X c #AADAC5",
"1X c #B7DAC6",
"2X c #9CE3C9",
"3X c #9FECD5",
"4X c #A3E5CA",
"5X c #ABE4C9",
"6X c #B2E5CB",
"7X c #B4E9CE",
"8X c #BCE5CC",
"9X c #AEEBD1",
"0X c #B4ECD4",
"qX c #BBECD5",
"wX c #BBF2D9",
"eX c #ABF0D9",
"rX c #C5DAC3",
"tX c #CED0CE",
"yX c #CAE6CB",
"uX c #D3E5CA",
"iX c #C5E8D3",
"pX c #D6ECD2",
"aX c #C6F3DB",
"sX c #D6F4DB",
"dX c #E3E7C8",
"fX c #E7EDD2",
"gX c #E3F0D6",
"hX c #C9FBE5",
"jX c #DAF9E5",
"kX c #E3FAE8",
"lX c #F3FCE5",
"zX c None",
/* pixels */
"zXzXzXzXzXzXzXzXzXzXzXzXzXzXzXzXzXzXzXzXzXzXzXzXzXzXzXzXzXzXzXzXzXzXzXzXzXzXzXzXzXzXzXzXzXzXzXzXzXzXzXzXzXzXzXzXzXzXzXzXzXzXzXzX",
"zXzXzXzXzXzXzXzXzXzXzXzXzXzXzXzXzXzXzXzXzXzXzXzXzXzXzXzXzXzXzXzXzXzXzXzXzXzXzXzXzXzXzXzXzXzXzXzXzXzXzXzXzXzXzXzXzXzXzXzXzXzXzXzX",
"zXzXzXzXzXzXzXzXzXzXzXzXzXzXzXzXzXzXzXzXzXzXzXzXzXzXzXzXzXzXzXzXzXzX, & - < 2 zXzXzXzXzXzXzXzXzXzXzXzXzXzXzXzXzXzXzXzXzXzXzXzXzX",
"zXzXzXzXzXzXzXzXzXzXzXzXzXzXzXzXzXzXzXzXzXzXzXzXzXzXzXzXzXzXzXzXzX: X $ - $ X % 2 zXzXzXzXzXzXzXzXzXzXzXzXzXzXzXzXzXzXzXzXzXzXzX",
"zXzXzXzXzXzXzXzXzXzXzXzXzXzXzXzXzXzXzX2 2 zXzXzXzXzXzXzXzXzXzXzXv 5 l ;.;...l - $ 2 zXzXzXzXzXzXzXzXzXzXzXzXzXzXzXzXzXzXzXzXzXzX",
"zXzXzXzXzXzXzXzXzXzXzXzXzXzXzXzXzX- X o $ 8 zXzXzXzXzXzXzXzXzXzXB D ;.m.m.m.,.| - ; zXzXzXzXzXzXzXzXzXzXzXzXzXzXzXzXzXzXzXzXzXzX",
"zXzXzXzXzXzXzXzXzXzXzXzXzXzXzX, $ $ 7 l r 4 G zXzXzXzXzXzXzX8.k.6.[ 2.z.(.m.m.,.r > zXzXzXzXzXzXzXzXzXzXzXzXzXzXzXzXzXzXzXzXzXzX",
"zXzXzXzXzXzXzXzXzXzXzXzXzXzXzXo & | >.,.>.k G 6.j.{ 8.8.5.8.8.8.9.9.0.k.k.z.<.>.n v zXzXzXzXzXzXzXzXzXzXzXzXzXzXzXzXzXzXzXzXzXzX",
"zXzXzXzXzXzXzXzXzXzXzXzXzXzXO % ..<.(.<.,.:.{ { 4.[ ' ] ` ` H H H J ] e.0.0.k.} K N zXzXzXzXzXzXzXzXzXzXzXzXzXzXzXzXzXzXzXzXzXzX",
"zXzXzXzXzXzXzXzXzXzXzXzXzXzX$ e ,.(.(.1.:.{ ] ` G N j 9 6 6 1 1 1 6 7 j n ` q.0.[ zXzXzXzXzXzXzXzXzXzXzXzXzXzXzXzXzXzXzXzXzXzXzX",
"zXzXzXzXzXzXzXzXzXzXzXzXzXzX: k ,.(.1.) ) H v 8 1 = = = = = = = = 6 1 1 6 7 n [ 0.k.zXzXzXzXzXzXzXzXzXzXzXzXzXzXzXzXzXzXzXzXzXzX",
"zXzXzXzXzXzXzXzXzXzXzXzXzXzXi Z } >.&./ v 6 = & & = & & = = = = = = = = 1 6 7 k [ 0.zXzXzXzXzXzXzXzXzXzXzXzXzXzXzXzXzXzXzXzXzXzX",
"zXzXzXzXzXzXzXzXzXzXzXzXzXzXzXN / ( / i & % & % & & & & & = & = = = = j D N 9 6 k [ 9.zXzXzXzXzXzXzXzXzXzXzXzXzXzXzXzXzXzXzXzXzX",
"zXzXzXzXzXzXzXzXzXzXzXzXzXzXzXzX&.^ 8 & $ $ $ $ $ & $ & & & & & & = 4 ` ' q.[ k 7 P 8.9.zXzXzXzXzXzXzXzXzXzXzXzXzXzXzXzXzXzXzXzX",
"zXzXzXzXzXzXzXzXzXzXzXzXzXzXzXzX&.p % X ; 4 > $ $ $ $ $ % & % & % & X.6.' ' q.] 7 7 ) 9.zXzXzXzXzXzXzXzXzXzXzXzXzXzXzXzXzXzXzXzX",
"zXzXzXzXzXzXzXzXzXzXzXzXzXzXzX%.( 2 o 1 B ` ` z $ $ $ $ $ % $ * % = P.^.o.#.[ 3.b 6 k 7.8.zXzXzXzXzXzXzXzXzXzXzXzXzXzXzXzXzXzXzX",
"zXzXzXzXzXzXzXzXzXzXzXzXzXzXzX%.P - & m H J J h.q X $ X X $ $ $ $ - P.:Xb.b.n.g.T 1 8 ] 9.zXzXzXzXzXzXzXzXzXzXzXzXzXzXzXzXzXzXzX",
"zXzXzXzXzXzXzXzXzXzXzXzXzXzXzX#.t + 2 ^ A U h %Xf X X X X X X X $ & *.:Xb.b.b.tX*.1 6 S 7.5.zXzXzXzXzXzXzXzXzXzXzXzXzXzXzXzXzXzX",
"zXzXzXzXzXzXzXzXzXzXzXzXzXzX%.#.q O t / I g c.^.u.  X X     $ $ $ $ r tX/.b.C.tX .= 1 n 4.5.zXzXzXzXzXzXzXzXzXzXzXzXzXzXzXzXzXzX",
"zXzXzXzXzXzXzXzXzXzXzXzXzXzXj.X.3 + t +.g c.c./.=.  X o $ $ * & $ $ $  .=XtXtXf.1 = 1 M [ 5.zXzXzXzXzXzXzXzXzXzXzXzXzXzXzXzXzXzX",
"zXzXzXzXzXzXzXzXzXzXzXzXzXzX%.T 3 . q ^.v.s v.~.f   X : 5 v A S D n 4 1 t  .a = & & 6 D ] { zXzXzXzXzXzXzXzXzXzXzXzXzXzXzXzXzXzX",
"zXzXzXzXzXzXzXzXzXzXzXzXzXzX%.W 0 O X =.^.C.^.L., * 5 D ` [ { [ [ q.' D 5 : $ $ & 1 b ` ` { zXzXzXzXzXzXzXzXzXzXzXzXzXzXzXzXzXzX",
"zXzXzXzXzXzXzXzXzXzXzXzXzXzX%.^ 2 O   - o.V.=.0 * u H ) ! a y Y W } 7.7.` Z z 5 j N K J ) ) zXzXzXzXzXzXzXzXzXzXzXzXzXzXzXzXzXzX",
"zXzXzXzXzXzXzXzXzXzXzXzXzXzX%./ 9 X           $ 5 S E a w , . < 9 R [ 3.3.` K K K Z K H / zXzXzXzXzXzXzXzXzXzXzXzXzXzXzXzXzXzXzX",
"zXzXzXzXzXzXzXzXzXzXzXzXzXzX%.( U > o .     ; 5 c S I q , +   o = 7 B 4.` ` J Z Z Z _ _ Q zXzXzXzXzXzXzXzXzXzXzXzXzXzXzXzXzXzXzX",
"zXzXzXzXzXzXzXzXzXzXzXzXzXzXzX&.E m 5 > > 4 z c A E P 3 O + . . $ 1 m J J J K Z c N M U zXzXzXzXzXzXzXzXzXzXzXzXzXzXzXzXzXzXzXzX",
"zXzXzXzXzXzXzXzXzXzXzXzXzXzXzX%.^ B N C C C x N B S m 8 , + + . O > i N F A A C v v I I zXzXzXzXzXzXzXzXzXzXzXzXzXzXzXzXzXzXzXzX",
"zXzXzXzXzXzXzXzXzXzXzXzXzXzXzXzX&.^ B N x x M N B S U i 8 , , , 3 8 b v m m m m L I zXzXzXzXzXzXzXzXzXzXzXzXzXzXzXzXzXzXzXzXzXzX",
"zXzXzXzXzXzXzXzXzXzXzXzXzXzXzXzX%.( ^ B V N N B S E U U R p p t p L L L p I L I Y zXzXzXzXzXzXzXzXzXzXzXzXzXzXzXzXzXzXzXzXzXzXzX",
"zXzXzXzXzXzXzXzXzXzXzXzXzXzXzXzXzX$.#.( U U U U W ( ( T T T T T T Y Y  .O.d.d.zXzXzXzXzXzXzXzXy y zXzXzXzXzXzXzXzXzXzXzXzXzXzXzX",
"zXzXzXzXzXzXzXzXzXzXzXzXzXzXzXzXzXzXzX$.#.( ! ! ! #.X.#.X.X.X.Y Y *.L.}.'.}.[.,XaXzXzXzXzXe 7 1 7 y zXzXzXzXzXzXzXzXzXzXzXzXzXzX",
"zXzXzXzXzXzXzXzXzXzXzXzXzXzXzXzXzXzXzXzXzXzXzXzX@.f.A.-.R L p b @.%X8XwXiX`.{.>XqXjXyXU.L < & & & 2 zXzXzXzXzXzXzXzXzXzXzXzXzXzX",
"zXzXzXzXzXzXzXzXzXzXzXzXzXzXzXzXzXzXzXzXzXzXzXzXzX1XrX$XI C c Q  X1XoXrXsXiX]..XiXrXh.` C : X X X zXzXzXzXzXzXzXzXzXzXzXzXzXzXzX",
"zXzXzXzXzXzXzXzXzXzXzXzXzXzXzXzXzXzXzXzXzXzXzX<X<XXXrX8XI.Q ( I.7XwXaXpXaXhX].Q.6Xh.K K c 4 o + # zXzXzXzXzXzXzXzXzXzXzXzXzXzXzX",
"zXzXzXzXzXzXzXzXzXzXzXzXzXzXzXzXzXzXzXzXzXzX~.!.Q.].XX&X'.I.|.[.6X9XwXhXjXhXqXR.`.Q Z Z x u > , zXzXzXzXzXzXzXzXzXzXzXzXzXzXzXzX",
"zXzXzXzXzXzXzXzXzXzXzXzXzXzXzXzXzXzXzXzXzXrXQ.R..X!.}.G.H.&XyX5X6XqXeXhX-X-XjX1XU._ c x C z zXzXzXzXzXzXzXzXzXzXzXzXzXzXzXzXzXzX",
"zXzXzXzXzXzXzXzXzXzXzXzXzXzXzXzXzXzXzXzX<X1XS.E..XQ.E.R.!.).).iX7X7XqX-Xw.8.x.fX|.@.M M m zXzXzXzXzXzXzXzXzXzXzXzXzXzXzXzXzXzXzX",
"zXzXzXzXzXzXzXzXzXzXzXzXzXzXzXzXzXzXzXzXzXXXW.}.~.Q.E.R.XXf.f.rXpXsXyX-Xw.} e.#XpXQ.zXzXzXzXzXzXzXzXzXzXzXzXzXzXzXzXzXzXzXzXzXzX",
"zXzXzXzXzXzXzXzXzXzXzXzXzXzXzXzXzXzXzXzXU f..XOX!.R.`.{.oXrX,X0X8XiXpXuXl.5.[ l.dX6XzXzXzXzXzXzXzXzXzXzXzXzXzXzXzXzXzXzXzXzXzXzX",
"zXzXzXzXzXzXzXzXzXzXzXzXzXzXzXzXzXzXzXzXN V L.[.!.`.].].'.aXwXeX6X7X9X0X&Xj.3.w.dXhXzXzXzXzXzXzXzXzXzXzXzXzXzXzXzXzXzXzXzXzXzXzX",
"zXzXzXzXzXzXzXzXzXzXzXzXzXzXzXzXzXzXzXH Z x J.{.Q.}.{.{.'.1XOX6X4X5X7X5X8X;X@X@XaXjXzXzXzXzXzXzXzXzXzXzXzXzXzXzXzXzXzXzXzXzXzXzX",
"zXzXzXzXzXzXzXzXzXzXzXzXzXzXzXzXzXzX^ F Z _ G._.E.~.}.`.XXL.+.!.2X2X6X5XpX7X9X9XwXsXlXzXzXzXzXzXzXzXzXzXzXzXzXzXzXzXzXzXzXzXzXzX",
"zXzXzXzXzXzXzXzXzXzXzXzXzXzXzXzXzXzXi C C Q `._.E.~.~.XX%XI.=.!.5X2X2X5XgXgXfXsXhXjXjXzXzXzXzXzXzXzXzXzXzXzXzXzXzXzXzXzXzXzXzXzX",
"zXzXzXzXzXzXzXzXzXzXzXzXzXzXzXzXzX2 & > 4 O..XQ.E.W.E.R.`.&XoX5X5X,X4X5XyXyXpXsXsXlXkXzXzXzXzXzXzXzXzXzXzXzXzXzXzXzXzXzXzXzXzXzX",
"zXzXzXzXzXzXzXzXzXzXzXzXzXzXzXzXzX-   o , zXoX!.G.F.E.W.W.&XpX9X2X,X8XuX8XpX9X9XwXjXhXJ.e y y zXzXzXzXzXzXzXzXzXzXzXzXzXzXzXzXzX",
"zXzXzXzXzXzXzXzXzXzXzXzXzXzXzXzX0 o   + zXzX].}.!.M.S.R.R.|.dX*XyX;X;XdXdXyX2X9XwXaXhXQ.7 6 7 y zXzXzXzXzXzXzXzXzXzXzXzXzXzXzXzX",
"zXzXzXzXzXzXzXzXzXzXzXzXzXzXzXzXzXO + zXzXzXrX~.S.M.M.N.N.W.p.+.}.oX6XOXuX5X5X4X0XaXaX1Xt < 1 7 t zXzXzXzXzXzXzXzXzXzXzXzXzXzXzX",
"zXzXzXzXzXzXzXzXzXzXzXzXzXzXzXzXzXzXzXzXzX1X<X!.!.M.M.N.S.R.y.o.}.oX[.,X1X,X5X4X9XaXjXwXa - < 1 7 zXzXzXzXzXzXzXzXzXzXzXzXzXzXzX",
"zXzXzXzXzXzXzXzXzXzXzXzXzXzXzXzXzXzXzXzXzX1X.XW.G.S.M.S.D.G..X}.,X[.[.oX&X5X5X7X9X0XjXrXq & & < 7 zXzXzXzXzXzXzXzXzXzXzXzXzXzXzX",
"zXzXzXzXzXzXzXzXzXzXzXzXzXzXzXzXzXzXzXzXzXzX>XQ.D.S.M.S.S.S.].>X2X[.oXoXyX;X<X7XqXqXiXo.$ % % & 3 zXzXzXzXzXzXzXzXzXzXzXzXzXzXzX",
"zXzXzXzXzXzXzXzXzXzXzXzXzXzXzXzXzXzXzXzXzXzX,X`.E.H.H.S.D.G.[.>X>X4XoXoXuXdXuX&XOXOX$Xw X $ % % , zXzXzXzXzXzXzXzXzXzXzXzXzXzXzX",
"zXzXzXzXzXzXzXzXzXzXzXzXzXzXzXzXzXzXzXzXzXzXzX!.Q.G.^.P.~.Y.Q._.'.`.Q.W.Y.U.U.Y.).$X$Xq     o O zXzXzXzXzXzXzXzXzXzXzXzXzXzXzXzX",
"zXzXzXzXzXzXzXzXzXzXzXzXzXzXzXzXzXzXzXzXzXzXzX~.K.Z.V.p.i.i.y.y.t.y.r.t.s.a.a.T.U.+X+Xq   + # 0 zXzXzXzXzXzXzXzXzXzXzXzXzXzXzXzX",
"zXzXzXzXzXzXzXzXzXzXzXzXzXzXzXzXzXzXzXzXzXzXzX~.K.Z.V.i.i.t.t.y.t.r.r.y.t.s.s.a.T.+X$Xw # 0 zXzXzXzXzXzXzXzXzXzXzXzXzXzXzXzXzXzX",
"zXzXzXzXzXzXzXzXzXzXzXzXzXzXzXzXzXzXzXzXzXzXzXY.Z.V.p.V.p.V.V.p.V.V.i.i.s.t.i.T.Y.$X=XzXzXzXzXzXzXzXzXzXzXzXzXzXzXzXzXzXzXzXzXzX",
"zXzXzXzXzXzXzXzXzXzXzXzXzXzXzXzXzXzXzXzXzXzXzXK.V.u.s.s.s.t.i.p.B.L.Z.i.i.a.U.+X+X$X*XzXzXzXzXzXzXzXzXzXzXzXzXzXzXzXzXzXzXzXzXzX",
"zXzXzXzXzXzXzXzXzXzXzXzXzXzXzXzXzXzXzXzXzXzXzXJ.s.a.s.s.i.a.a.J.zX~.J.i.V.K.Y.).+X$X*XzXzXzXzXzXzXzXzXzXzXzXzXzXzXzXzXzXzXzXzXzX",
"zXzXzXzXzXzXzXzXzXzXzXzXzXzXzXzXzXzXzXzXzXzXzXa.s.s.a.a.a.J.J.T.zX~.B.V.K.Y.+X+X=X=X=XzXzXzXzXzXzXzXzXzXzXzXzXzXzXzXzXzXzXzXzXzX",
"zXzXzXzXzXzXzXzXzXzXzXzXzXzXzXzXzXzXzXzXzXzXzXzX~ i d O.r.s.a.zXzXzX@.O.d.f.T.Y.Y.U.zXzXzXzXzXzXzXzXzXzXzXzXzXzXzXzXzXzXzXzXzXzX",
"zXzXzXzXzXzXzXzXzXzXzXzXzXzXzXzXzXzXzXzXzXzXzXzXi 4 4 u p zXzXzXzXzX8 4 u i d zXzXzXzXzXzXzXzXzXzXzXzXzXzXzXzXzXzXzXzXzXzXzXzXzX",
"zXzXzXzXzXzXzXzXzXzXzXzXzXzXzXzXzXzXzXzXzXzXzXw . o ; ; zXzXzXzXzXzX, o o ; zXzXzXzXzXzXzXzXzXzXzXzXzXzXzXzXzXzXzXzXzXzXzXzXzXzX",
"zXzXzXzXzXzXzXzXzXzXzXzXzXzXzXzXzXzXzXzXzXzXzXzX@ @   # zXzXzXzXzXzX# . @ o zXzXzXzXzXzXzXzXzXzXzXzXzXzXzXzXzXzXzXzXzXzXzXzXzXzX",
"zXzXzXzXzXzXzXzXzXzXzXzXzXzXzXzXzXzXzXzXzXzXzXzXzXzXzXzXzXzXzXzXzXzXzXzXzXzXzXzXzXzXzXzXzXzXzXzXzXzXzXzXzXzXzXzXzXzXzXzXzXzXzXzX",
"zXzXzXzXzXzXzXzXzXzXzXzXzXzXzXzXzXzXzXzXzXzXzXzXzXzXzXzXzXzXzXzXzXzXzXzXzXzXzXzXzXzXzXzXzXzXzXzXzXzXzXzXzXzXzXzXzXzXzXzXzXzXzXzX"
};
