/* XPM */
static char *result[] = {
/* columns rows colors chars-per-pixel */
"64 64 68 1 ",
"  c #5BA63F",
". c #5EAB3F",
"X c #5EB43E",
"o c #57BA3A",
"O c #5BBB3D",
"+ c #69B23F",
"@ c #72B43E",
"# c #76B93F",
"$ c #5A9F47",
"% c #5CA445",
"& c #5EAA45",
"* c #5EA449",
"= c #5FA949",
"- c #5EBD41",
"; c #61A645",
": c #62AC46",
"> c #6AAD46",
", c #60A64A",
"< c #64AD4B",
"1 c #68AF4D",
"2 c #75AF43",
"3 c #64B245",
"4 c #6BB345",
"5 c #63BC45",
"6 c #66B14C",
"7 c #6AB34D",
"8 c #66BB49",
"9 c #6BB94D",
"0 c #73B445",
"q c #7AB542",
"w c #75BA45",
"e c #7ABD45",
"r c #72B54B",
"t c #7BB54B",
"y c #74BA4B",
"u c #7ABD4A",
"i c #66AD50",
"p c #68AE51",
"a c #67B151",
"s c #6AB351",
"d c #6CB951",
"f c #70B551",
"g c #72BB52",
"h c #79BD51",
"j c #63C144",
"k c #67C048",
"l c #69C14B",
"z c #7CC146",
"x c #7DC14B",
"c c #7CC151",
"v c #9EB73D",
"b c #A3B63F",
"n c #A4B93D",
"m c #82B546",
"M c #89B747",
"N c #81B749",
"B c #8DB749",
"V c #8CBB49",
"C c #94B745",
"Z c #94BB46",
"A c #9DBA46",
"S c #92BE4D",
"D c #9CBA48",
"F c #A6B747",
"G c #A3BB44",
"H c #AABB45",
"J c #A4BC4B",
"K c #AABA4A",
/* pixels */
",1r222t221,,,$$$$*$$*$**$$$$*$*$%%%%%%%;=%%%%%*$*;1r1,$*****=,=,",
",<fttttp1>,,,,,,***$*,*%***,***$%%%%&<&<==,,**=**:rrr:,,,,=*,,,,",
",iprtft2>>$,,,,,,,**,,*%**=,===*%%%%==366<<=,,=,7w0qtr:,,i==,==,",
"i,11tpi>,,,,i,,,*=,=,;*,<==,====%&&<366=3==ii==7ywttyt1:,,,ii,,,",
"i,,ppi;pi,,,,i,,==i<===<6<6<;&====,<666===i=ii77yyyuyyg<,,<i,<i,",
"iippiippiip<i,,>=i<=<a,<77477;,<<<i<===a<i<i=,74>rgryts<,,<ii,ii",
"ipippppp<ppiii1,=i<<ii<6s999y477,<<<=<6ai<6<<==&;<1<<4<<a<<<p,<i",
"ppppppp,p<,,,<,1iaaaaaaisgyzyyd7<<<=<a<36<<<<==3:7ii<66i<,<i<i<p",
"psgddaaapi<==<61<6ssdaa6syguuhd6<<<a<66a6<a6=&&=<aaai<<i<<<<=<aa",
"ssdfddddi,<,i,<6aasdda<6799uh77<<6a636dld66s6&366aia==<<aa=%=iaa",
"psddsaai<<iiaaasd8sds6i=<7ff76ia66a777gld<6666666aa<a<<<<6=&<aa7",
"pppssi<6aai6asdda8ddsaaa<77aaaiiass497dds6a666768a3<<a6<,6aaa<<,",
"pppaa=aaasa6=aa9dddsaaaa171isaaddd7799ggdsa66668dd666<<&iadda<==",
"ppii=6aassaaaaaadssdapaa1<7aaa76<6dd7yldd6a68669dss666<<aadddd66",
"fsiia=sas8ld6a6=<ddsa7<<1paaaa7<,:6dddd96<<<sd966666a6<aaa9ldda6",
"hgda6sd9ssa9ass=<ssaas6,1s11ip<<:<67sdd98<=<dd9d9s66a6<66aa9s8sd",
"hfd1<dgds68da<iiaaa<a1<<ps1<ipp<<<a<=<s96==<sd9s98aaa711<<6d99d8",
"7<7paa<p777da<iippi6ia<7aa<<<ippp<a<<36sa<==6666=s66a6<a6<6dddds",
":<pa6<,77666<&<i<<<iaa<,<pp1ppsp<<p1<66sa7<==a6<=<=67<<aa766a9dd",
"<<ppa<61aa<,<,ai1p<ii<<<pi<1pp1<iaaas77<aa6a36<<6<3a<,<6<a<<6s6<",
"ii<iip77ppp<<1s1:<,<<6i6a1aspp1<,iasgc9<11<71<;<6i7a<<6<<<6=6a6=",
"=<<<<dhurpsp1ap17<:;<aaaaaaap1<:677guxha<a<<<<&<a<1a6,<<<<666663",
"<i6a<ruuy7ppia17rd7<<<6aapp11:177yuuzz077aa7<<<<6aap<;:=<a6636<=",
"a66<7yuzuy1sa1<fhg77<<<a7p1<<pffycxxNz4<,1a<<<<7a6::,66<6766=666",
"<<<<4uuuuxyap,1ghg777776<&=<affghcxxNxy:=<<,&<,67<<<,7a6a<<668ad",
"6<:6yxuuuuhfp<1fhy9ygds<<<<<asdfhcxNxxy6<a6<<<<<<<a<<<<a6<6dd669",
"<<<7yy0yhyhd1<1gyryggga<6<<<1p77yyryucy6<61a6<<:,<6<<;=6<6ad9698",
"<<66<<77s777<<dgyddgfd71<,<<6<76p1:17uhdip1p7<<<<<<6<33=<67s6686",
"771<<aaap7a7i1ggd7d717p,%<<<7sdai<<<77r7<7:<<<3&<<<<<<<666da6866",
"a17aas7a7<<iaaff7761app<:<<<7dd66636a76671:<,=,<:<:<666689988=3-",
":<aia<171661aad777<7s11p<1<69ddsds8aa3<<<<::&&=<<<&366a3688s6863",
",<a7<,<7s7a71<<<ss1<11::1p76a9dd966s6<<a1:13 %%<<<<<3=<<66686336",
"=63;<<69dsdad66<1p11yy41aa66ddds86as666a:40y:&<<<<<&&<<<66663<36",
"36<:<<<699ddd6a7ap77hxy1<<66sddda663=677+0wx436i<<&&&<&3=6<3<<<<",
"7333<<36979d8sg771yxuxy3<<<<7dd<66<:&;7yeweew3<6<,,:<=<<a679r777",
"ww097<679dd98sd770yxNew4:<<667a6a6<;&+0xeq##y3<6<<<33<663=9uyuuy",
"ywud666679966667fyweueuw3<==;<66<66:4yuxueeey7<6<6<3<666::6wezze",
"uy96<67a6393::::yweeeexxy33=<7<&::<6dyuuez##e4<:3<63=<36::8yzzzx",
"y77:3aa66643:67dyuxyqueeyr6a1:::&&&<:30yue@@e03<6<&=3=3<<66yueee",
"376<666=3663<1dgyyyyyywqhs<a77<::&:;<<:79444zy666<<<<=&<<364weue",
"116666<:=<6<6666347;+.>43:17ry7,3<&==3=363:4w9363<&363&<&<::weww",
"<6<6<::;&::6<<3;>73& ;<3&3yuyy3,<<&&3=66=<&..66<6<<&=&&<&&<:0zew",
"6666<&3<6<<6<<&%1a<&%67740wxew7,::&:<<3<:&&&&<<:=:<<3&&:::<6wwy4",
":6<63&<676&&,&=<<<&&&<70uezzzw3&&&&&&;<<<:&&&=3:&&33&3<33::64+43",
"3:<<6<<666:;&&:<<=;&<adyxuxNuy<3&&:<&3<<<:&&3663636336333&&66:&3",
"<<<666<66:<::&:<363&:3<777gyr4:&63:<=33<<:,:3896663663<:33<33=3:",
"<<<::=<a<,<:&:66a66:::1111<>:::66<<&&3<&<<:3468966:<3&.353::&&<3",
";<:rr:<<111<=:<<<66<67<<77<1:&=6<&&3:<&::<&:688663::&&.5-53=&&36",
"37:VSNq>><<<;&6&::::<1<1<<6<::333:3646::<:&&38633;&&3585j896<:;3",
"9:4ZGAZVNw4:&<<&::,<<<17<33<&::36639946<3=<3666&33&5855Oojl6<<<&",
"4:4SHGJGADBt><;<1;;,<<p7<<a<&.&3686633<<&<<:63:&333j5-joo-l67<<;",
"53;0FKKGHGDSy<<<1:;1<1pp<<<&&386976s3<::&&<<<:;&669ljjjoojj9>663",
"X.%2GHFFDBNt1:1p1::,<3<6<<<&;69963376:&:3::<&<<::3385k8-O5k8333w",
"X& mnbFCt361::<11:116363666<66966666:::3443:<6<&:&.3383-58l83:6y",
"5>&#vCm21<::<1111:<1495564666<7746663::9zw4:<6=&&::::3&&:4336:3w",
"3;%>M0:::6>;1r1r77<<:8+55897<:<7<36:;37xzzw7666=:6<:;&:366:&366w",
":;&:73<&<7ywyutq06:,145O5897<11:;6<%:7yzz#zz866<<<&&<<<6<::&&3:9",
":<,<:::&:70yye#t0;:<>755883<11p1;<:;:7uez##zy7:&&<<<3663:;:&:360",
"6<,;:7<;<<70wteq4:1,<78836<117p:<,:>30tzzezexw:&63&36<&&:<3::664",
"1:<<647<<114yw#wr111776363:<1<<167<:4w##z#Nzzx43<<=<6<=<66<&:664",
"<<17666<:1111ww01:1p1a3;<:;1p<:1p173wzew0wzzzxc63666a<<66<<::6:3",
"<:<74786:1pp7101:,:p<<<<1:,11<:11s17yxxwywey7797ass63=&3<<3<<<:3",
"667679771<p111<1:i7<<a171111::1:1s7guy404+4776676666<<:<3<666:<:",
"66976997d<1:<<:<1<<<77<<d7771<11177dy7>:;:>76766<<<3663<3<666<<7"
};
