/* XPM */
static char *_c3c6a6c40a6441aaf5a838842cd53f3Pxq0N5Q6ePPvzxAR[] = {
/* columns rows colors chars-per-pixel */
"64 64 227 2 ",
"   c None",
".  c #4E3D2A",
"X  c #533F2A",
"o  c #513B24",
"O  c #4F422C",
"+  c #53442C",
"@  c #59472F",
"#  c #5A4A2E",
"$  c #504427",
"%  c #5C4B33",
"&  c #574831",
"*  c #535C36",
"=  c #674D29",
"-  c #664F35",
";  c #645235",
":  c #695536",
">  c #69563B",
",  c #6C5A3C",
"<  c #695837",
"1  c #735E3A",
"2  c #765F37",
"3  c #53603A",
"4  c #75613C",
"5  c #7B653D",
"6  c #7E683E",
"7  c #766036",
"8  c #6F6B3F",
"9  c #6D5E41",
"0  c #655D42",
"q  c #705C40",
"w  c #6C6243",
"e  c #6F6845",
"r  c #6E694C",
"t  c #6D674C",
"y  c #746342",
"u  c #7A6643",
"i  c #7D6A43",
"p  c #726A4B",
"a  c #7C6D4C",
"s  c #756747",
"d  c #6C7041",
"f  c #747244",
"g  c #7D714C",
"h  c #797843",
"j  c #797251",
"k  c #836B3E",
"l  c #8B703C",
"z  c #836D43",
"x  c #836D4A",
"c  c #886F48",
"v  c #867046",
"b  c #8B7345",
"n  c #85724B",
"m  c #8A744A",
"M  c #857C4B",
"N  c #8C794D",
"B  c #827945",
"V  c #927646",
"C  c #937B4C",
"Z  c #9A7D4C",
"A  c #947A47",
"S  c #846B50",
"D  c #847451",
"F  c #857B53",
"G  c #8C7B52",
"H  c #8C7554",
"J  c #947E52",
"K  c #937A5A",
"L  c #997D53",
"P  c #A17D4D",
"I  c #7E874F",
"U  c #88864E",
"Y  c #9C814D",
"T  c #8C8252",
"R  c #878356",
"E  c #958253",
"W  c #9C8452",
"Q  c #9D8A55",
"!  c #95845C",
"~  c #9B8959",
"^  c #978958",
"/  c #9C9659",
"(  c #A1854C",
")  c #A68A4C",
"_  c #AB8E4F",
"`  c #AF934E",
"'  c #A18752",
"]  c #A58B55",
"[  c #AB8E54",
"{  c #A58C5A",
"}  c #AA8E5A",
"|  c #A2845E",
" . c #AD9255",
".. c #A5925B",
"X. c #AC935A",
"o. c #AE9C5B",
"O. c #A79655",
"+. c #B29555",
"@. c #B49955",
"#. c #BA9C57",
"$. c #B3965A",
"%. c #B49A5B",
"&. c #BA9C5C",
"*. c #B99758",
"=. c #ABA45F",
"-. c #BEA156",
";. c #B4A05E",
":. c #BDA25C",
">. c #9A8C61",
",. c #9C9064",
"<. c #A58B64",
"1. c #AB8D63",
"2. c #AA8E69",
"3. c #A59365",
"4. c #AD9264",
"5. c #AC946B",
"6. c #A89B64",
"7. c #B39B63",
"8. c #BB9B63",
"9. c #B4966C",
"0. c #BA966C",
"q. c #B39B6B",
"w. c #BA9A6C",
"e. c #B59463",
"r. c #BC9C72",
"t. c #B79A70",
"y. c #AEA666",
"u. c #BDA362",
"i. c #BDA46B",
"p. c #B6AA6D",
"a. c #BAA969",
"s. c #B6B36C",
"d. c #BCA174",
"f. c #BFA178",
"g. c #BFBE74",
"h. c #C19F5E",
"j. c #C0A557",
"k. c #C3A45D",
"l. c #C5AA5D",
"z. c #CAAA5E",
"x. c #C09766",
"c. c #C39D6B",
"v. c #C39B68",
"b. c #C39D73",
"n. c #C59B72",
"m. c #C3A462",
"M. c #C4AA64",
"N. c #CBAC64",
"B. c #C5A36C",
"V. c #CBA46D",
"C. c #C3AB6C",
"Z. c #CBAC6C",
"A. c #C8A464",
"S. c #D1AD67",
"D. c #D2AC6D",
"F. c #D2A76E",
"G. c #CEB166",
"H. c #CCB269",
"J. c #D2B466",
"K. c #D5B866",
"L. c #D3B46A",
"P. c #D5BA6B",
"I. c #D9BA6C",
"U. c #D8B66A",
"Y. c #C5A373",
"T. c #CCA573",
"R. c #C4AC74",
"E. c #CCA974",
"W. c #C3A57A",
"Q. c #CCA57A",
"!. c #CEAB79",
"~. c #C3A878",
"^. c #D1A473",
"/. c #D3AC74",
"(. c #D9AC76",
"). c #D3AD7A",
"_. c #DAAE7A",
"`. c #D6A776",
"'. c #C9B677",
"]. c #D4B273",
"[. c #DAB375",
"{. c #D5BB73",
"}. c #DABA72",
"|. c #D5B27B",
" X c #DCB47B",
".X c #DEB97D",
"XX c #D6B87D",
"oX c #E1AF7C",
"OX c #E2B57C",
"+X c #E3BA7D",
"@X c #EABD7F",
"#X c #E6B979",
"$X c #EAC27F",
"%X c #E1C07D",
"&X c #CFAC80",
"*X c #D4AE82",
"=X c #CDB381",
"-X c #D1B381",
";X c #DBB481",
":X c #DDBA82",
">X c #DBBB89",
",X c #E3B682",
"<X c #E4BC83",
"1X c #E9BE82",
"2X c #E5BF8B",
"3X c #ECBE88",
"4X c #DBC585",
"5X c #E4C284",
"6X c #EBC484",
"7X c #EDC983",
"8X c #E5C389",
"9X c #EBC58A",
"0X c #E6CB8C",
"qX c #EFCA8E",
"wX c #ECCA8C",
"eX c #F1CC8E",
"rX c #F2C888",
"tX c #F1D38F",
"yX c #EECA91",
"uX c #EFC690",
"iX c #F4CF91",
"pX c #F3D192",
"aX c #F5D292",
"sX c #F4D293",
"dX c #F9D596",
"fX c #F8D296",
"gX c #FBD398",
/* pixels */
"                                                                                                                                ",
"                                                                                                                                ",
"                                                                                                                                ",
"                                                                                                                                ",
"                                                                                                                                ",
"                                                        f f f e                                                                 ",
"                                            y.E.=Xg M E.uXuXuXyX0X4X4X'.p.y.6.                                                  ",
"                                        y..X+XOX:X|.8..X9XiXsXsXdXgXfXsXiXtXtX0Xg.I                                             ",
"                                    y.!..X<X5X+XOX.X|.<X5X9XpXsXdXpXsXpXsXdXdXfXsXwX'.                                          ",
"                                , B.`. X.X+X#XOXOXOX X<X5X9XwXwXyXeXeXeXeXeXiXiXfXfXsX0X'.                                      ",
"                              =XY.v./. X.X X.XOXOXOX_. X<X8X5X<X9X6X9X9XwXeXqXqXsXgXdXgXsX0Xg.                                  ",
"                          f =X>X_.F.|.OXOX,XOX X X[./.^. X:X:X;X:X<X<X5X5X5X6X9XyXiXsXdXdXqXwXC.s.I                             ",
"                        <.).:X.X XOX(._.,X X X|././.L./.].].].].].].XXXX.X:X,X<X8XuXiXuXuXwX9X5X0X4Xs.                          ",
"                    * >.Y.]. X.XOX XF././././.P.].[.P.P.U.U.U.].P.].].].L./.].|.XX;X<X5X2X1X.X,X9X9X8Xy.                        ",
"                    3.0.c.)..X+XOXU.U.}.[.U.}.{.}.I.P.K.U.J.K.J.L.L.J.J.U.U.].L./.]..X.X,X:X].|.<X9X1XXXy.                      ",
"              3   ~.<X[.E.Q.;XOX[.J.U.K.K.K.P.I.{.{.P.P.J.J.J.J.G.J.J.S.L.].H.Z.H.D.Z.E.].).).:X;X<X<X.X Xy.                    ",
"            * >.&X>X9X+X X]._.[.].P.U.P.K.P.P.P.P.P.H.L.H.L.J.D.S.S.J.J.H.H.H.N.N.N.M.Z.Z.C.E.|.>X<X<X,XOX).6.                  ",
"            F 9.;XuXuX<X+X[.]. XI.U.K.K.U.L.P.P.P.P.L.L.J.J.J.H.J.G.N.N.G.H.H.N.N.M.M.G.C.m.C.E.|.,X+X.X).E..X].M               ",
"            >.Q.<XiX5X%X.X[.].[.P.K.J.K.K.K.H.K.L.H.H.L.Z.S.J.G.H.H.G.M.N.H.H.C.C.M.M.M.M.u.:.u.C./.|.Q.8.).,X<X;X^             ",
"            5.*X6XrX5X#X[.U.U.U.J.J.K.J.G.K.H.H.K.H.H.G.N.Z.N.M.G.N.M.M.N.M.M.M.M.M.N.M.M.u.:.%.%.8.B.9.d.).OX@X<X:Xa.          ",
"            W.2X6X1X<X#XU.U.K.K.J.G.J.J.G.G.G.G.H.G.G.N.M.N.M.M.H.H.M.M.M.M.a.M.M.m.m.M.:.;.;.%.%.%.X.4.d.E.U.#X1X+X[.:.        ",
"          ~ ;X9X$X+X+X[.D.S.J.G.G.K.G.G.G.G.G.N.G.N.M.M.m.:.u.M.u.M.M.k.k.M.m.M.a.M.:.m.a.u.;.=.o.O.O.1.r.Y./.[.OX[. XV.o.      ",
"          b.;XOX+X+X#XD.S.S.G.z.G.G.J.G.z.N.N.m.m.m.l.M.k.%.:.m.:.m.k.:.&.m.M.a.a.u.u.u.u.u.;.;.%.O.O...1.0.T.E.]. X).V.8.      ",
"        F W.,XOX+X#X[.S.S.z.z.N.z.z.z.N.z.A.m.#.&.&.k.&.&.&.&.8.&.&.&.%.%.&.:.m.m.M.M.u.%.;.%.7.%.X...~ ~ <.0.n.^.n.V.v.7.      ",
"        3.|..XOXOXOXL.N.z.l.z.N.N.N.z.z.k.A.k.&.&.&.&.&.*.$.$.$.%.%.*.$. .$.%.$.+.u.u.u.%.%.%.7.O.X...~ ! ! ~ 9.T.T.;X).i.      ",
"        W.;X X.X X[.S.A.l.l.l.l.z.k.k.h.k.&.&.&.&.8.8.*.$.*.*.+.$.*.o.$.$.X.$.o.o.@.o.%.%.X.X.X.] ] Q E T T ! q.E. X6XOXT.h     ",
"      ~ b.*X X.X XD.A.l.l.j.l.l.k.#.#.*.&.&.&.%.&.8.%.*.*.+.+.[ $.*.$.%.$.$.+.X.X.] ..%.7.o.X.X...W E E T G E r.)..X6XOX^.O.    ",
"      <.n.B.E./.(.A.k.l.-.l.l.M.k.#.*.*.*.*.&.&.%.$.$.$.$.+.e.$.$.$.$.e.4.$.X.X.X.X.[ ] X.....X...W E ! G D K t.).,X<X XB.M     ",
"      >.r.b.Y.B.A.k.#.j.j.j.k.k.&.*.+.*.*.*.%.%.$.+. .$. .$. . .e. . .$.+.+.} } X.X.{ } ..] ..X.] W Y T F g G 9.E..X+X/.x.      ",
"    * 3.*X>X.XZ.h.h.-.j.j.j.#.#.+.+.@.@.*.*.+.+.%.$. . .X.$. .+. .$. . .} } [ } } } ] X.] { ....Q Q E T D a D 9.E.<X@XF.x.      ",
"    R f.2X7X5X].h.#.h.-.h.#.@.+. .+.@.@.@. . .+. .[ } [ } +.[ [ [ [ [ +.[ } } [ [ { ] { { ] Q { ~ ^ T F j p D 9.).,X+XF.8.      ",
"    ~ =X<X7X6X[.&.#.#.@.` ` +.[ +.+.+. . . . .[ [ [ [ Y Z ' } ' ] [ } [ ' } 4.} ] ] } ' Q Q Q Q Q E G g p r n 5.T. X(.V.8.      ",
"    9.Q.#X$X6X/.#.@.@.+._ +.[ +.+.+.+.[ [ [ ( Z Y ' Z V V Z ' ] } ] ] W A ' } } ] ] } ] ' Q E E E N M g t p D 5.Q.*X/.v.8.      ",
"    w.E.XX|.).E.*.*. .+._ _ _ ` ` ` _ _ } [ A b b b m m b N V Z L C b v b C W { { ' | ' W W E E N v a j r p D t.)._.(.A.o.      ",
"    0.n.T.E.).B.$. .+.+._ _ [ _ [ _ [ ' ' ' V m b z c m v b z z z b v b m b J L | ' L Z L W E E G v g p t p D t.)._.(.A.;.      ",
"    6.Y.-X<X<X:Xm. .+.[ _ _ ) [ [ ( Z A V b V m c z z z z b z k z b b b b m m C J J c N L E C E N n g p p t D t.T._.(.n.o.      ",
"    M R.4X0XrX9X.X8. .) ) _ [ [ Z l V b b z m v z z z u z z v z z b z b m m m C N H m z E L C J n x r t t p >.t.).|.V.i.h       ",
"    q.Y..X0XwXwX8X.X@.) ) ) ) ( A b N v b z z z z z 6 k 6 6 k z z z z z b c m m m M v z N E T G n g w t t ! W.>XwX0XZ./         ",
"    q.T.-X5X0XyXyX8X|. .( Y ] ' l l k v z k 6 z 6 5 6 5 5 6 6 z u k u z x c c m v m m x z N G N a s w w K d.4X0XsXsX{.          ",
"    e w.Q.:X8XwXtXqX5XC.( Y ( Y b k l z z k 6 6 6 5 5 5 5 4 4 u u 5 6 z z m m m x n m i u i i a e w > F f.-X0XsXfXeX{.          ",
"      3.B.).2X9X9XpX0X5XB.( Y V l v v 6 6 6 6 6 5 4 7 7 4 4 4 5 2 u z z z c m c c x x u s 1 , p e > g r.-X5X9XsXfXrXH.          ",
"        w.E.*X:X9XwXeX9X8X%.l k 6 v i 6 6 6 5 5 5 7 4 4 : ; , 4 y 2 1 z z z c c x x u u s y , w w p f.!.>X<XeXsXqX+X/           ",
"        / b.E.).5X0XtXqXqX4X8.b k 6 6 5 4 5 7 4 , : ; ; % % ; < > : - 2 z u u z x i u a u 9 0 9 9 >.~.;X:X5X6XqX6X'.            ",
"          7.Y.E.;X5X0XyXpXtX8X~.W 5 7 5 7 7 7 < : % % % # # # % ; - # > y 1 1 u u u u y q > q a D <.d.).5X5X6X5X.Xy.            ",
"          / i.T.).:X8XtXtXaXyXyXXX} x 7 < 1 : ; @ + & @ @ @ & % % % % % 0 q 0 q y 4 y q q s K 2.t.d.Y.T.].4X6X+X{.              ",
"            y.V.E..X9XqXsXdXaXaXiX8Xi.b = - % $ + $ $ + + + & @ & & % % - % - 9 y w q u K 2.r.!.|.;XOXoXV.XX<X+Xs.              ",
"              C.T.(.,XwXtXsXtXsXiXeX6X).L > % $ . O + . X + + + + & % & % % ; - , 2 H 2.b.Q.;X<X6X6X5XOX(.V..X{.I               ",
"                d.E. X3XeXtXtXsXeXeXrX XE.Y.1.x - o . X X X X X + & & - s S S H | 9.B.).|.3X1X6X7X5X+X.XOXB.~                   ",
"                U p.!.,X3XwXwX9XeXrX3X/.OX$X.X|.9.= 5 <.2.2.<.<.<.<.1.1.r.n.W.).)..X+X6X$X$X$X6X%X.X X_.].T                     ",
"                    R._.,X2X4X5X1X1XE._.<X7X6X<X).P 0.).).[..X.X X X X XOX+X<X<X6X6X6X6X+XOXOXOX X).).B.T                       ",
"                      i.(./._.oX_.Q.B. X+X$X1X<Xn.8.).,X6X$X7X7X$X6X6X$X7X7XrX7X9XrX6X5X%X X(.`.^.Z.T                           ",
"                        =.Z./.(.^.n.E._.OXOXOX_.x.B.|.5X7X7X7X7X6X6X6X6X6X$X6X1X@X1XOX.X(././.C.f                               ",
"                                  w.E././.^./.T.$.^.).OX+X6X6X<X+X<X+X,X<X,X#X#X#XOX_.`./.Z./                                   ",
"                                  i.^.n.E.B.Y.4.1.Q././.(.OXOX X X_._./././.(.(.(./.^.^.R.U                                     ",
"                                  f m X.M.B     a T.^.T.V.E.^.^.E.^.^.T.E.Q.V.^.E.o.N 8                                         ",
"                                                  7.n.B.m.B.v.a.a.3.3.../ T                                                     ",
"                                                                                                                                ",
"                                                                                                                                ",
"                                                                                                                                ",
"                                                                                                                                ",
"                                                                                                                                ",
"                                                                                                                                ",
"                                                                                                                                ",
"                                                                                                                                "
};
