/* XPM */
static char *_5ced1e2266d49c6b121c112e72ef0d5sgLUi5XK69VrnEVN[] = {
/* columns rows colors chars-per-pixel */
"64 64 220 2 ",
"   c None",
".  c #013C00",
"X  c #054B0B",
"o  c #064808",
"O  c #0B510D",
"+  c #0B5212",
"@  c #0C5A12",
"#  c #115C16",
"$  c #145C1C",
"%  c #214B19",
"&  c #0F6315",
"*  c #156319",
"=  c #156C1D",
"-  c #1A6C1E",
";  c #196719",
":  c #16721D",
">  c #19711E",
",  c #127618",
"<  c #176E21",
"1  c #1A6D21",
"2  c #177020",
"3  c #1B7222",
"4  c #1C7B21",
"5  c #1F7228",
"6  c #226F28",
"7  c #217126",
"8  c #217A26",
"9  c #247429",
"0  c #2A752D",
"q  c #297B2A",
"w  c #387725",
"e  c #2C7532",
"r  c #2C7C34",
"t  c #2B7536",
"y  c #337737",
"u  c #39773C",
"i  c #3B7C3E",
"p  c #317638",
"a  c #39672A",
"s  c #3A7C41",
"d  c #437C44",
"f  c #457F4B",
"g  c #4B7E4C",
"h  c #497F47",
"j  c #1D852B",
"k  c #1F8A2C",
"l  c #1A8724",
"z  c #208226",
"x  c #24852C",
"c  c #2B852B",
"v  c #248C2D",
"b  c #2A8B2F",
"n  c #2C8127",
"m  c #32852C",
"M  c #3E872F",
"N  c #26912D",
"B  c #29942D",
"V  c #299C2F",
"C  c #249127",
"Z  c #2C8434",
"A  c #268E31",
"S  c #2A8C33",
"D  c #278B36",
"F  c #36843A",
"G  c #338D3A",
"H  c #338937",
"J  c #269232",
"K  c #2A9433",
"L  c #269A33",
"P  c #2C9B35",
"I  c #2C9439",
"U  c #2E9D39",
"Y  c #319636",
"T  c #319D36",
"R  c #33943B",
"E  c #339D3B",
"W  c #38973E",
"Q  c #2DA137",
"!  c #2EA239",
"~  c #25A134",
"^  c #30A037",
"/  c #32A23C",
"(  c #34A83F",
")  c #4B8D2B",
"_  c #4D912C",
"`  c #4B8A32",
"'  c #458935",
"]  c #508B3A",
"[  c #4E9134",
"{  c #4C953D",
"}  c #589238",
"|  c #3F8944",
" . c #3B9342",
".. c #359F41",
"X. c #3C9D42",
"o. c #319340",
"O. c #36A140",
"+. c #3BA343",
"@. c #3AAD43",
"#. c #3EAF49",
"$. c #3AB546",
"%. c #418144",
"&. c #45824B",
"*. c #4B814D",
"=. c #4A8F4D",
"-. c #419645",
";. c #499447",
":. c #429B46",
">. c #4D9E43",
",. c #44964B",
"<. c #459C4B",
"1. c #4B9D4D",
"2. c #4A944B",
"3. c #559449",
"4. c #4D9C52",
"5. c #519E55",
"6. c #559D5A",
"7. c #5B9D5E",
"8. c #579653",
"9. c #649F51",
"0. c #609945",
"q. c #41A346",
"w. c #45A44B",
"e. c #49A34E",
"r. c #46AA4B",
"t. c #4CA044",
"y. c #52AA4C",
"u. c #5AA74A",
"i. c #44B74C",
"p. c #4DA453",
"a. c #4DAA53",
"s. c #50A555",
"d. c #51AD56",
"f. c #54A45A",
"g. c #5AA45E",
"h. c #55AB5A",
"j. c #59AD5E",
"k. c #4DB252",
"l. c #4CBB55",
"z. c #51B154",
"x. c #52B459",
"c. c #5AB45E",
"v. c #53BE5A",
"b. c #5ABE5F",
"n. c #62AA4A",
"m. c #60AB47",
"M. c #61AB52",
"N. c #65B95C",
"B. c #5E9D61",
"V. c #609F63",
"C. c #5DA362",
"Z. c #5DAC61",
"A. c #5DB263",
"S. c #5ABC61",
"D. c #61A465",
"F. c #62AC65",
"G. c #64A768",
"H. c #65AC6A",
"J. c #69AE6C",
"K. c #62B166",
"L. c #66B26A",
"P. c #6AB26E",
"I. c #68B96A",
"U. c #6AAF70",
"Y. c #6DB472",
"T. c #71BD75",
"R. c #71B676",
"E. c #76A669",
"W. c #3EC44F",
"Q. c #3CD453",
"!. c #44D24F",
"~. c #4AD14F",
"^. c #4BC454",
"/. c #46CD54",
"(. c #4BCD55",
"). c #4EC45A",
"_. c #4DCC59",
"`. c #47C552",
"'. c #52CB55",
"]. c #54C35C",
"[. c #53CB5C",
"{. c #59C957",
"}. c #45D154",
"|. c #4AD155",
" X c #4CD158",
".X c #53D55D",
"XX c #57D55E",
"oX c #56C94F",
"OX c #6AC858",
"+X c #75C753",
"@X c #68C44D",
"#X c #5AC261",
"$X c #55CA61",
"%X c #5BCC65",
"&X c #59C665",
"*X c #54D362",
"=X c #5AD465",
"-X c #57D862",
";X c #70CE60",
":X c #63D46C",
">X c #63D569",
",X c #78C97B",
"<X c #6CD573",
"1X c #6ADA73",
"2X c #7AD37E",
"3X c #76DC7D",
"4X c #6AC870",
"5X c #7DC283",
"6X c #7ADB81",
"7X c #81CD86",
"8X c #84D987",
"9X c #8AD98D",
"0X c #88D68D",
"qX c #8AE490",
"wX c #98E79B",
"eX c #88E389",
"rX c #A1E6A5",
"tX c #A5EEA6",
"yX c #B0EEAF",
"uX c #B3F7B3",
/* pixels */
"                                                                                                                                ",
"                                            +X+XOX{.'.{.{.[.$X[.[.[._._.(._._.{.OX+X                                            ",
"                                  OXoX'._.|.*X%X<XwXrXrXwX0X,X4X].b.v.v.v.v.[.&X{.=X$X[.'.(.oX@X                                ",
"                          OX'./.(.(.`.^.l.k.a.X.G H 8 3 4 4 > 3 3 4 4 4 8 q Z  .<.K.T.,X2X,X%X[.!.!.{.                          ",
"                      {.Q.}./.W.i.q.Y z , 3 3 : 3 - > 3 : = 2 3 - > > > 3 7 9 0 y F %.&.8.C.T.4X%X{.(.~.{.                      ",
"                  OX(.|.|.^.$./ l > > > 1 3 1 3 3 3 = < 3 3 2 3 3 3 3 7 7 7 q y p i f *.g *.*.=.Z.S.}.~.}.(.                    ",
"                   X}.~.}.@.z 3 3 > 1 1 3 3 > 2 1 3 3 1 < 1 1 1 1 1 1 3 6 9 0 0 y i f *.*.g g d F >./.(.(.}.'.                  ",
"                {. X}.!.(.P : 1 2 2 > : 2 < 2 1 = 1 = 1 - 1 1 1 1 1 1 - 7 6 9 e p s d *.*.*.f | F N (.}./.(./.                  ",
"                %X%X_.}.!.[.l , > 1 1 - 1 1 = - 1 1 1 1 1 - 1 1 1 - > < 1 9 9 0 t u d g *.&.&.F q.(./.}.|.(.l.OX                ",
"                #X:X:X%X_.(._.^.Q , , : = 1 - 3 = = = = = = - - - - - - 1 6 6 t t s s s ' ;.x._.}.|.|.|./.`.@.n.                ",
"                l.S.6X6X3X1XXX_.(._.).l./ l , , = = = = = 1 = = = = - - 1 3 5 4 S q.a.]. X(.|.|. X X/.^.i.Q K M.                ",
"                x.A.L.T.0X9X8X6X3X1X-X.X_._.'.[.)._._.^.^.@.( ( #.).^.).).[._.$X[.[.*X*X=XXX.X X(.`.$.Q P P K n.                ",
"                z.x.K.L.P.R.7X0X0X8X6X<X1X>X=X-X.XXX.X.XXXXX-X>X<X3XeXtXtXyXuXuXtXqX3X<X[.^.i.( / ~ U P U K K m.                ",
"                z.b.K.P.P.Y.Y.U.I.Z.A.A.S.S.#X#X$X$X$X%X=X=X:X<X1X3X8X9X0X7X,X#Xi.r.( ^ ! ! Q T U U Q P P K K n.                ",
"                z.c.K.I.Y.Y.Y.Y.P.K.c.h.s.r.q.@.( / / ! ! ! ! ^ ^ / ! ! ! ! ! ! / ! ! Q ^ Q ^ Q Q Q P P P K B n.                ",
"                z.c.K.P.P.Y.Y.Y.L.K.j.h.a.r.q.q.( ( / / ( ^ ( ! ! ! Q / ! ! / ! ! Q Q Q Q Q P ^ T Q P Q P P K n.                ",
"                a.c.K.L.I.Y.Y.Y.I.K.A.d.a.r.q.+.O./ / / / ! ^ ! Q ! U ! ! Q ! Q Q Q Q Q P ^ Q U Q Q U P K K K n.                ",
"                z.c.K.I.P.Y.Y.P.P.K.Z.d.a.r.q.+.@./ O./ ^ / ! ! ! ! Q ! ! ! ! Q Q Q Q Q Q Q P Q P Q P P P P K                   ",
"                k.c.A.L.P.Y.Y.Y.L.K.j.d.a.r.q.+.+.O.O./ / ! ! Q Q Q Q Q Q ! ^ Q Q Q ~ Q ^ Q U Q Q T ~ P K K K                   ",
"                  b.K.L.P.P.R.P.I.F.j.d.p.r.r.+.+./ ( O.! ! ! ! Q Q Q Q Q Q ^ ^ ! ! Q U Q Q Q T T T P Q P P }                   ",
"                  M.N.P.I.P.Y.P.P.K.Z.d.a.r.w.+.O.O.( / / Q ! Q Q Q Q ! Q / U ^ Q Q Q Q T T Q Q Q ~ T T H O                     ",
"                      e.N.T.Y.P.L.Z.A.d.p.r.q.+.O.O./ ! / ! ! Q Q ! Q Q ^ Q Q ~ Q Q ~ Q ~ P Q U / K 0 + %                       ",
"                      <.H | ,.5.Z.A.Z.h.p.r.q.+.+.O./ / / Q ! ! ! ! Q ! Q T ! ! / E ......o.r 1 O o $ q                         ",
"                      u.a.p.p.F r Z Z G G R  ...O.O.O.O./ / / ! / ! / ! E T K D q 3 & O o . O 6 t S v C                         ",
"                      y.h.j.j.D.C.C.4.=.r r = = - 1 ; * * * * # @ @ + + X X o o # # 1 e Z S S B J K J v                         ",
"                      y.h.A.H.H.J.H.Z.C.5.<.X. .o.G D Z x Z x Z c x x x x D S v S N K S B P P K K K L A                         ",
"                      u.c.Z.H.H.U.U.Z.Z.f.e.1.X...W Y Y K I I I I I J K J L K P L P P L P V P K P K L I                         ",
"                      y.j.A.K.J.U.U.F.Z.f.p.e.X.X./ E T P V V V P V P K P P P P P P P P K Y K P P K K J                         ",
"                      y.c.A.F.P.U.U.F.Z.h.p.w.X.X.E / T E U U U P U Q P P P U U Q P P P P P P B P P J J [                       ",
"                      y.h.A.K.P.P.P.L.Z.h.a.w.w.+.O.E / E U P U U P P P P P U P P U P P P P P P K K V J [                       ",
"                      y.c.A.K.L.J.Y.F.Z.j.a.r.+.+.O...E ! ! U U U U Q P P P P U U P P P P P P P P P J B [                       ",
"                      y.h.A.F.P.Y.J.P.Z.g.p.e.w.+.O./ E T U U U Q P P U Q U U U ! P P P P P P P K P J J [                       ",
"                      y.h.A.A.L.J.P.L.F.h.p.e.q.+.X./ E T ^ P U T Q U P ^ ^ Q P P P Q P P P P L K K J J [                       ",
"                      y.h.A.F.J.J.P.L.Z.j.p.r.w.+./ / / / ^ Q T U U Q U U P ^ P P U P U P P P P P B P J [                       ",
"                      >.x.A.L.L.J.P.F.Z.h.s.e.+.+.X.E E U U U Q U Q ^ ^ U P U P P P P P P P P B P K B J _                       ",
"                      >.x.Z.Z.P.J.P.L.Z.g.s.e.+.O.O./ ^ ^ P U Q P P P P P Q P P U P P P P V P P P K L D _                       ",
"                      >.c.Z.Z.H.J.Y.H.Z.g.p.r.w.+...E / U P P T P P P P Q P ^ P P P P P P P P J J K J J _                       ",
"                      u.d.Z.K.J.J.J.H.Z.h.s.e.X.+.X./ T Q P Q P Q Q P P P P P P P P P L L P P P P K B J _                       ",
"                        d.c.F.K.J.J.F.Z.h.p.r.<.+...E T Q U P P P T P P P P P P P P P P P K P P L K B J [                       ",
"                        d.c.F.H.J.P.H.Z.f.p.e.+.X.O.E / U Q P P P P P P P P P P P P P K P P K P K K J N [                       ",
"                        a.A.F.H.J.H.H.Z.f.p.r.X.+.X.E T ! U P P P P P P P P P P K V P K K P K K L I J J [                       ",
"                        a.j.F.H.J.J.H.Z.f.p.w.<.X.E E T U U P P P P P P P K P L P P P P P P P K I L J J {                       ",
"                        a.j.F.H.H.J.F.Z.g.p.e.+.X...E T U P P P K P P V P P K P K V P K P K P K J J J D ]                       ",
"                        a.Z.F.H.H.H.F.Z.f.p.e.X.+.O.T U U P P P P P P K L P P P P P P L K P K K J B J J `                       ",
"                        a.j.Z.H.J.H.F.C.f.p.w.X.X.E E W Y P P K P K P K P K I P K P K L K K Y K K I C A )                       ",
"                        a.g.Z.G.G.H.F.Z.f.p.1.+.X.X.E T Y Y P P P P P P K U P K K K P K P K K K K I v A )                       ",
"                        p.h.Z.G.G.H.F.C.f.p.w.X.E E E T V P P K B P K K P P I K P J P K K Y K K J I C A )                       ",
"                        p.g.Z.G.G.G.C.g.f.p.e.X.X.W T Y Y P P K P K K P K K P L K P J P K K K J B S v A )                       ",
"                        p.h.Z.D.G.H.D.Z.f.4.w.X...W T U P K P V J P J P K K K K P K P K K K K B v S v A )                       ",
"                        e.f.g.D.D.H.D.C.f.e.4.X...o.W K Y K K K P P J P P P K P J K K K K K J K J B v v `                       ",
"                        e.f.C.D.G.D.C.g.f.4.X.X...W T I K P P K J P B J J K K K K J J K K K J J J N v k `                       ",
"                        e.f.g.C.D.D.D.g.5.4.X.X.W W T K P K K K J B P J P J J K K K K J K S J J J v v x `                       ",
"                        e.f.g.C.D.D.C.g.5.4.:.X.W Y Y Y K K K K K K K J K S K K K J J J J K S A v v v j `                       ",
"                        e.f.g.7.D.C.C.g.6.1.:.X.W W Y Y Y K K K K K J K K J J K K J K K J J v B v v v j `                       ",
"                        4.p.f.B.V.D.C.g.s.1.-.X.W R Y K K K K J K K J J J K B S J J v S J v v v v x v x '                       ",
"                        1.4.f.B.V.V.C.6.4.<.-.W R Y I K K K K S B J K J J J J K J S B v v N v v v k k z '                       ",
"                        w.5.6.C.B.B.B.6.4.<.-. .R R S Y S K J J S N J J J J N A v A v v B v v v x A x z '                       ",
"                        X.4.5.B.B.B.B.6.4.,.-.W R R Y K K K v J J A N v v v v S v S v v v b v v v x j l w                       ",
"                        { 4.5.B.B.6.7.6.4.2.-. .G R Y b b B v J v v v N A N N v v v v v b v v x x j z q                         ",
"                          ;.4.B.B.B.6.6.4.=.,. .R H G S b S v v b v v v v v v v x v v v b v j k x n w                           ",
"                              8.6.9.B.8.4.2. .o.I I S S J v v v v v S b v v v v v A x A v v x n                                 ",
"                                    E.8.=.=. .o.H S S v v C v v v x v v v k x k v c c n w                                       ",
"                                              a M.M m m m m c c c c c c c m 0.]                                                 ",
"                                                                                                                                "
};
